# Wavefront .OBJ file for tesselated shape: targets-1 path: C:\Users\Melen\Desktop\SOLIDWORKS\targets.SLDPRT

g body_1
v 0.023928 0.042389 0.031814
v 0.023928 0.048717 0.032437
v 0.028610 0.048717 0.032437
v 0.023928 0.036304 0.029968
v 0.028610 0.042389 0.031814
v 0.023928 0.030696 0.026971
v 0.028610 0.036304 0.029968
v 0.023928 0.025780 0.022937
v 0.028610 0.030696 0.026971
v 0.023928 0.021746 0.018021
v 0.028610 0.025780 0.022937
v 0.023928 0.018749 0.012413
v 0.028610 0.021746 0.018021
v 0.023928 0.016903 0.006328
v 0.028610 0.018749 0.012413
v 0.023928 0.016280 0.000000
v 0.028610 0.016903 0.006328
v 0.023928 0.016903 -0.006328
v 0.028610 0.016280 0.000000
v 0.023928 0.018749 -0.012413
v 0.028610 0.016903 -0.006328
v 0.023928 0.021746 -0.018021
v 0.028610 0.018749 -0.012413
v 0.023928 0.025780 -0.022937
v 0.028610 0.021746 -0.018021
v 0.023928 0.030696 -0.026971
v 0.028610 0.025780 -0.022937
v 0.023928 0.036304 -0.029968
v 0.028610 0.030696 -0.026971
v 0.023928 0.042389 -0.031814
v 0.028610 0.036304 -0.029968
v 0.023928 0.048717 -0.032437
v 0.028610 0.042389 -0.031814
v 0.023928 0.055045 -0.031814
v 0.028610 0.048717 -0.032437
v 0.023928 0.061130 -0.029968
v 0.028610 0.055045 -0.031814
v 0.023928 0.066738 -0.026971
v 0.028610 0.061130 -0.029968
v 0.023928 0.071654 -0.022937
v 0.028610 0.066738 -0.026971
v 0.023928 0.075688 -0.018021
v 0.028610 0.071654 -0.022937
v 0.023928 0.078685 -0.012413
v 0.028610 0.075688 -0.018021
v 0.023928 0.080531 -0.006328
v 0.028610 0.078685 -0.012413
v 0.023928 0.081154 0.000000
v 0.028610 0.080531 -0.006328
v 0.023928 0.080531 0.006328
v 0.028610 0.081154 0.000000
v 0.023928 0.078685 0.012413
v 0.028610 0.080531 0.006328
v 0.023928 0.075688 0.018021
v 0.028610 0.078685 0.012413
v 0.023928 0.071654 0.022937
v 0.028610 0.075688 0.018021
v 0.023928 0.066738 0.026971
v 0.028610 0.071654 0.022937
v 0.023928 0.061130 0.029968
v 0.028610 0.066738 0.026971
v 0.023928 0.055045 0.031814
v 0.028610 0.061130 0.029968
v 0.028610 0.055045 0.031814
v 0.023928 0.254000 -0.034852
v 0.023928 0.000000 -0.034852
v 0.023928 0.048717 -0.032437
v 0.023928 0.055045 -0.031814
v 0.023928 0.254000 0.039274
v 0.023928 0.055045 0.031814
v 0.023928 0.048717 0.032437
v 0.023928 0.061130 -0.029968
v 0.023928 0.066738 -0.026971
v 0.023928 0.042389 -0.031814
v 0.023928 0.061130 0.029968
v 0.023928 0.078685 0.012413
v 0.023928 0.075688 0.018021
v 0.023928 0.081154 0.000000
v 0.023928 0.071654 -0.022937
v 0.023928 0.075688 -0.018021
v 0.023928 0.021746 -0.018021
v 0.023928 0.025780 -0.022937
v 0.023928 0.066738 0.026971
v 0.023928 0.071654 0.022937
v 0.023928 0.080531 0.006328
v 0.023928 0.078685 -0.012413
v 0.023928 0.080531 -0.006328
v 0.023928 0.030696 -0.026971
v 0.023928 0.036304 -0.029968
v 0.023928 0.018749 -0.012413
v 0.023928 0.016280 0.000000
v 0.023928 0.016903 -0.006328
v 0.023928 0.000000 0.039274
v 0.023928 0.021746 0.018021
v 0.023928 0.018749 0.012413
v 0.023928 0.036304 0.029968
v 0.023928 0.030696 0.026971
v 0.023928 0.016903 0.006328
v 0.023928 0.025780 0.022937
v 0.023928 0.042389 0.031814
v 0.028610 0.254000 0.039274
v 0.028610 0.000000 0.039274
v 0.028610 0.048717 0.032437
v 0.028610 0.055045 0.031814
v 0.028610 0.030696 0.026971
v 0.028610 0.036304 0.029968
v 0.028610 0.254000 -0.034852
v 0.028610 0.055045 -0.031814
v 0.028610 0.048717 -0.032437
v 0.028610 0.042389 0.031814
v 0.028610 0.025780 0.022937
v 0.028610 0.061130 -0.029968
v 0.028610 0.071654 0.022937
v 0.028610 0.075688 0.018021
v 0.028610 0.016903 0.006328
v 0.028610 0.018749 0.012413
v 0.028610 0.000000 -0.034852
v 0.028610 0.030696 -0.026971
v 0.028610 0.025780 -0.022937
v 0.028610 0.066738 -0.026971
v 0.028610 0.080531 0.006328
v 0.028610 0.081154 0.000000
v 0.028610 0.066738 0.026971
v 0.028610 0.061130 0.029968
v 0.028610 0.021746 0.018021
v 0.028610 0.016280 0.000000
v 0.028610 0.018749 -0.012413
v 0.028610 0.016903 -0.006328
v 0.028610 0.021746 -0.018021
v 0.028610 0.042389 -0.031814
v 0.028610 0.036304 -0.029968
v 0.028610 0.071654 -0.022937
v 0.028610 0.078685 -0.012413
v 0.028610 0.075688 -0.018021
v 0.028610 0.080531 -0.006328
v 0.028610 0.078685 0.012413
v 0.023928 0.254000 0.039274
v 0.023928 0.000000 0.039274
v 0.028610 0.000000 0.039274
v 0.028610 0.254000 0.039274
v 0.028610 0.254000 -0.034852
v 0.028610 0.000000 -0.034852
v 0.023928 0.000000 -0.034852
v 0.023928 0.254000 -0.034852
v 0.028610 0.254000 -0.034852
v 0.023928 0.254000 -0.034852
v 0.023928 0.254000 0.039274
v 0.028610 0.254000 0.039274
v 0.028610 0.000000 0.039274
v 0.023928 0.000000 0.039274
v 0.023928 0.000000 -0.034852
v 0.028610 0.000000 -0.034852
vn 0.000 0.195 -0.981
vn 0.000 0.000 -1.000
vn 0.000 0.000 -1.000
vn 0.000 0.383 -0.924
vn 0.000 0.195 -0.981
vn 0.000 0.556 -0.831
vn 0.000 0.383 -0.924
vn 0.000 0.707 -0.707
vn 0.000 0.556 -0.831
vn 0.000 0.831 -0.556
vn 0.000 0.707 -0.707
vn 0.000 0.924 -0.383
vn 0.000 0.831 -0.556
vn 0.000 0.981 -0.195
vn 0.000 0.924 -0.383
vn 0.000 1.000 0.000
vn 0.000 0.981 -0.195
vn 0.000 0.981 0.195
vn 0.000 1.000 0.000
vn 0.000 0.924 0.383
vn 0.000 0.981 0.195
vn 0.000 0.831 0.556
vn 0.000 0.924 0.383
vn 0.000 0.707 0.707
vn 0.000 0.831 0.556
vn 0.000 0.556 0.831
vn 0.000 0.707 0.707
vn 0.000 0.383 0.924
vn 0.000 0.556 0.831
vn 0.000 0.195 0.981
vn 0.000 0.383 0.924
vn 0.000 0.000 1.000
vn 0.000 0.195 0.981
vn 0.000 -0.195 0.981
vn 0.000 0.000 1.000
vn 0.000 -0.383 0.924
vn 0.000 -0.195 0.981
vn 0.000 -0.556 0.831
vn 0.000 -0.383 0.924
vn 0.000 -0.707 0.707
vn 0.000 -0.556 0.831
vn 0.000 -0.831 0.556
vn 0.000 -0.707 0.707
vn 0.000 -0.924 0.383
vn 0.000 -0.831 0.556
vn 0.000 -0.981 0.195
vn 0.000 -0.924 0.383
vn 0.000 -1.000 0.000
vn 0.000 -0.981 0.195
vn 0.000 -0.981 -0.195
vn 0.000 -1.000 0.000
vn 0.000 -0.924 -0.383
vn 0.000 -0.981 -0.195
vn 0.000 -0.831 -0.556
vn 0.000 -0.924 -0.383
vn 0.000 -0.707 -0.707
vn 0.000 -0.831 -0.556
vn 0.000 -0.556 -0.831
vn 0.000 -0.707 -0.707
vn 0.000 -0.383 -0.924
vn 0.000 -0.556 -0.831
vn 0.000 -0.195 -0.981
vn 0.000 -0.383 -0.924
vn 0.000 -0.195 -0.981
vn -1.000 0.000 0.000
vn -1.000 0.000 0.000
vn -1.000 0.000 0.000
vn -1.000 0.000 0.000
vn -1.000 0.000 0.000
vn -1.000 0.000 0.000
vn -1.000 0.000 0.000
vn -1.000 0.000 0.000
vn -1.000 0.000 0.000
vn -1.000 0.000 0.000
vn -1.000 0.000 0.000
vn -1.000 0.000 0.000
vn -1.000 0.000 0.000
vn -1.000 0.000 0.000
vn -1.000 0.000 0.000
vn -1.000 0.000 0.000
vn -1.000 0.000 0.000
vn -1.000 0.000 0.000
vn -1.000 0.000 0.000
vn -1.000 0.000 0.000
vn -1.000 0.000 0.000
vn -1.000 0.000 0.000
vn -1.000 0.000 0.000
vn -1.000 0.000 0.000
vn -1.000 0.000 0.000
vn -1.000 0.000 0.000
vn -1.000 0.000 0.000
vn -1.000 0.000 0.000
vn -1.000 0.000 0.000
vn -1.000 0.000 0.000
vn -1.000 0.000 0.000
vn -1.000 0.000 0.000
vn -1.000 0.000 0.000
vn -1.000 0.000 0.000
vn -1.000 0.000 0.000
vn -1.000 0.000 0.000
vn 1.000 0.000 0.000
vn 1.000 0.000 0.000
vn 1.000 0.000 0.000
vn 1.000 0.000 0.000
vn 1.000 0.000 0.000
vn 1.000 0.000 0.000
vn 1.000 0.000 0.000
vn 1.000 0.000 0.000
vn 1.000 0.000 0.000
vn 1.000 0.000 0.000
vn 1.000 0.000 0.000
vn 1.000 0.000 0.000
vn 1.000 0.000 0.000
vn 1.000 0.000 0.000
vn 1.000 0.000 0.000
vn 1.000 0.000 0.000
vn 1.000 0.000 0.000
vn 1.000 0.000 0.000
vn 1.000 0.000 0.000
vn 1.000 0.000 0.000
vn 1.000 0.000 0.000
vn 1.000 0.000 0.000
vn 1.000 0.000 0.000
vn 1.000 0.000 0.000
vn 1.000 0.000 0.000
vn 1.000 0.000 0.000
vn 1.000 0.000 0.000
vn 1.000 0.000 0.000
vn 1.000 0.000 0.000
vn 1.000 0.000 0.000
vn 1.000 0.000 0.000
vn 1.000 0.000 0.000
vn 1.000 0.000 0.000
vn 1.000 0.000 0.000
vn 1.000 0.000 0.000
vn 1.000 0.000 0.000
vn 0.000 0.000 1.000
vn 0.000 0.000 1.000
vn 0.000 0.000 1.000
vn 0.000 0.000 1.000
vn 0.000 0.000 -1.000
vn 0.000 0.000 -1.000
vn 0.000 0.000 -1.000
vn 0.000 0.000 -1.000
vn 0.000 1.000 0.000
vn 0.000 1.000 0.000
vn 0.000 1.000 0.000
vn 0.000 1.000 0.000
vn 0.000 -1.000 0.000
vn 0.000 -1.000 0.000
vn 0.000 -1.000 0.000
vn 0.000 -1.000 0.000
vt -0.1963 0.2540 0
vt 0.0000 0.2540 0
vt 0.0000 0.2493 0
vt 5.8905 0.2540 0
vt -0.1963 0.2493 0
vt 5.6941 0.2540 0
vt 5.8905 0.2493 0
vt 5.4978 0.2540 0
vt 5.6941 0.2493 0
vt 5.3014 0.2540 0
vt 5.4978 0.2493 0
vt 5.1051 0.2540 0
vt 5.3014 0.2493 0
vt 4.9087 0.2540 0
vt 5.1051 0.2493 0
vt 4.7124 0.2540 0
vt 4.9087 0.2493 0
vt 4.5160 0.2540 0
vt 4.7124 0.2493 0
vt 4.3197 0.2540 0
vt 4.5160 0.2493 0
vt 4.1233 0.2540 0
vt 4.3197 0.2493 0
vt 3.9270 0.2540 0
vt 4.1233 0.2493 0
vt 3.7306 0.2540 0
vt 3.9270 0.2493 0
vt 3.5343 0.2540 0
vt 3.7306 0.2493 0
vt 3.3379 0.2540 0
vt 3.5343 0.2493 0
vt 3.1416 0.2540 0
vt 3.3379 0.2493 0
vt 2.9452 0.2540 0
vt 3.1416 0.2493 0
vt 2.7489 0.2540 0
vt 2.9452 0.2493 0
vt 2.5525 0.2540 0
vt 2.7489 0.2493 0
vt 2.3562 0.2540 0
vt 2.5525 0.2493 0
vt 2.1598 0.2540 0
vt 2.3562 0.2493 0
vt 1.9635 0.2540 0
vt 2.1598 0.2493 0
vt 1.7671 0.2540 0
vt 1.9635 0.2493 0
vt 1.5708 0.2540 0
vt 1.7671 0.2493 0
vt 1.3744 0.2540 0
vt 1.5708 0.2493 0
vt 1.1781 0.2540 0
vt 1.3744 0.2493 0
vt 0.9817 0.2540 0
vt 1.1781 0.2493 0
vt 0.7854 0.2540 0
vt 0.9817 0.2493 0
vt 0.5890 0.2540 0
vt 0.7854 0.2493 0
vt 0.3927 0.2540 0
vt 0.5890 0.2493 0
vt 0.1963 0.2540 0
vt 0.3927 0.2493 0
vt 0.1963 0.2493 0
vt 0.0000 0.0000 0
vt 0.0000 -0.2540 0
vt -0.0024 -0.2053 0
vt -0.0030 -0.1990 0
vt -0.0741 0.0000 0
vt -0.0667 -0.1990 0
vt -0.0673 -0.2053 0
vt -0.0049 -0.1929 0
vt -0.0079 -0.1873 0
vt -0.0030 -0.2116 0
vt -0.0648 -0.1929 0
vt -0.0473 -0.1753 0
vt -0.0529 -0.1783 0
vt -0.0349 -0.1728 0
vt -0.0119 -0.1823 0
vt -0.0168 -0.1783 0
vt -0.0168 -0.2323 0
vt -0.0119 -0.2282 0
vt -0.0618 -0.1873 0
vt -0.0578 -0.1823 0
vt -0.0412 -0.1735 0
vt -0.0224 -0.1753 0
vt -0.0285 -0.1735 0
vt -0.0079 -0.2233 0
vt -0.0049 -0.2177 0
vt -0.0224 -0.2353 0
vt -0.0349 -0.2377 0
vt -0.0285 -0.2371 0
vt -0.0741 -0.2540 0
vt -0.0529 -0.2323 0
vt -0.0473 -0.2353 0
vt -0.0648 -0.2177 0
vt -0.0618 -0.2233 0
vt -0.0412 -0.2371 0
vt -0.0578 -0.2282 0
vt -0.0667 -0.2116 0
vt 0.0741 0.0000 0
vt 0.0741 -0.2540 0
vt 0.0673 -0.2053 0
vt 0.0667 -0.1990 0
vt 0.0618 -0.2233 0
vt 0.0648 -0.2177 0
vt 0.0000 0.0000 0
vt 0.0030 -0.1990 0
vt 0.0024 -0.2053 0
vt 0.0667 -0.2116 0
vt 0.0578 -0.2282 0
vt 0.0049 -0.1929 0
vt 0.0578 -0.1823 0
vt 0.0529 -0.1783 0
vt 0.0412 -0.2371 0
vt 0.0473 -0.2353 0
vt 0.0000 -0.2540 0
vt 0.0079 -0.2233 0
vt 0.0119 -0.2282 0
vt 0.0079 -0.1873 0
vt 0.0412 -0.1735 0
vt 0.0349 -0.1728 0
vt 0.0618 -0.1873 0
vt 0.0648 -0.1929 0
vt 0.0529 -0.2323 0
vt 0.0349 -0.2377 0
vt 0.0224 -0.2353 0
vt 0.0285 -0.2371 0
vt 0.0168 -0.2323 0
vt 0.0030 -0.2116 0
vt 0.0049 -0.2177 0
vt 0.0119 -0.1823 0
vt 0.0224 -0.1753 0
vt 0.0168 -0.1783 0
vt 0.0285 -0.1735 0
vt 0.0473 -0.1753 0
vt 0.0000 0.0000 0
vt 0.0000 -0.2540 0
vt -0.0047 -0.2540 0
vt -0.0047 0.0000 0
vt 0.0047 0.0000 0
vt 0.0047 -0.2540 0
vt 0.0000 -0.2540 0
vt 0.0000 0.0000 0
vt -0.0349 0.0286 0
vt -0.0349 0.0239 0
vt 0.0393 0.0239 0
vt 0.0393 0.0286 0
vt 0.0393 0.0286 0
vt 0.0393 0.0239 0
vt -0.0349 0.0239 0
vt -0.0349 0.0286 0
f 71/71/71 69/69/69 70/70/70
f 73/73/73 65/65/65 72/72/72
f 67/67/67 66/66/66 74/74/74
f 70/70/70 69/69/69 75/75/75
f 77/77/77 69/69/69 76/76/76
f 78/78/78 69/69/69 65/65/65
f 65/65/65 67/67/67 68/68/68
f 65/65/65 68/68/68 72/72/72
f 82/82/82 66/66/66 81/81/81
f 75/75/75 69/69/69 83/83/83
f 69/69/69 77/77/77 84/84/84
f 69/69/69 78/78/78 85/85/85
f 87/87/87 65/65/65 86/86/86
f 65/65/65 73/73/73 79/79/79
f 89/89/89 66/66/66 88/88/88
f 81/81/81 66/66/66 90/90/90
f 92/92/92 66/66/66 91/91/91
f 95/95/95 93/93/93 94/94/94
f 97/97/97 93/93/93 96/96/96
f 69/69/69 84/84/84 83/83/83
f 65/65/65 87/87/87 78/78/78
f 66/66/66 89/89/89 74/74/74
f 66/66/66 92/92/92 90/90/90
f 91/91/91 93/93/93 98/98/98
f 94/94/94 93/93/93 99/99/99
f 96/96/96 93/93/93 100/100/100
f 69/69/69 85/85/85 76/76/76
f 66/66/66 82/82/82 88/88/88
f 93/93/93 95/95/95 98/98/98
f 100/100/100 93/93/93 71/71/71
f 65/65/65 80/80/80 86/86/86
f 93/93/93 97/97/97 99/99/99
f 93/93/93 91/91/91 66/66/66
f 69/69/69 71/71/71 93/93/93
f 67/67/67 65/65/65 66/66/66
f 80/80/80 65/65/65 79/79/79
f 137/137/137 139/139/139 140/140/140
f 139/139/139 137/137/137 138/138/138
f 103/103/103 102/102/102 110/110/110
f 101/101/101 103/103/103 104/104/104
f 108/108/108 107/107/107 112/112/112
f 114/114/114 101/101/101 113/113/113
f 102/102/102 106/106/106 110/110/110
f 116/116/116 102/102/102 115/115/115
f 119/119/119 117/117/117 118/118/118
f 112/112/112 107/107/107 120/120/120
f 122/122/122 101/101/101 121/121/121
f 113/113/113 101/101/101 123/123/123
f 101/101/101 104/104/104 124/124/124
f 102/102/102 116/116/116 125/125/125
f 126/126/126 102/102/102 117/117/117
f 128/128/128 117/117/117 127/127/127
f 117/117/117 119/119/119 129/129/129
f 109/109/109 107/107/107 108/108/108
f 120/120/120 107/107/107 132/132/132
f 134/134/134 107/107/107 133/133/133
f 135/135/135 107/107/107 122/122/122
f 121/121/121 101/101/101 136/136/136
f 101/101/101 124/124/124 123/123/123
f 102/102/102 126/126/126 115/115/115
f 117/117/117 129/129/129 127/127/127
f 130/130/130 117/117/117 109/109/109
f 107/107/107 134/134/134 132/132/132
f 101/101/101 122/122/122 107/107/107
f 102/102/102 125/125/125 111/111/111
f 117/117/117 131/131/131 118/118/118
f 107/107/107 135/135/135 133/133/133
f 117/117/117 128/128/128 126/126/126
f 101/101/101 114/114/114 136/136/136
f 107/107/107 109/109/109 117/117/117
f 131/131/131 117/117/117 130/130/130
f 106/106/106 102/102/102 105/105/105
f 103/103/103 101/101/101 102/102/102
f 105/105/105 102/102/102 111/111/111
f 143/143/143 141/141/141 142/142/142
f 141/141/141 143/143/143 144/144/144
f 145/145/145 147/147/147 148/148/148
f 147/147/147 145/145/145 146/146/146
f 151/151/151 149/149/149 150/150/150
f 149/149/149 151/151/151 152/152/152
f 3/3/3 1/1/1 2/2/2
f 5/5/5 4/4/4 1/1/1
f 7/7/7 6/6/6 4/4/4
f 9/9/9 8/8/8 6/6/6
f 11/11/11 10/10/10 8/8/8
f 13/13/13 12/12/12 10/10/10
f 15/15/15 14/14/14 12/12/12
f 17/17/17 16/16/16 14/14/14
f 19/19/19 18/18/18 16/16/16
f 21/21/21 20/20/20 18/18/18
f 23/23/23 22/22/22 20/20/20
f 25/25/25 24/24/24 22/22/22
f 27/27/27 26/26/26 24/24/24
f 29/29/29 28/28/28 26/26/26
f 31/31/31 30/30/30 28/28/28
f 33/33/33 32/32/32 30/30/30
f 35/35/35 34/34/34 32/32/32
f 37/37/37 36/36/36 34/34/34
f 39/39/39 38/38/38 36/36/36
f 41/41/41 40/40/40 38/38/38
f 43/43/43 42/42/42 40/40/40
f 45/45/45 44/44/44 42/42/42
f 47/47/47 46/46/46 44/44/44
f 49/49/49 48/48/48 46/46/46
f 51/51/51 50/50/50 48/48/48
f 53/53/53 52/52/52 50/50/50
f 55/55/55 54/54/54 52/52/52
f 57/57/57 56/56/56 54/54/54
f 59/59/59 58/58/58 56/56/56
f 61/61/61 60/60/60 58/58/58
f 63/63/63 62/62/62 60/60/60
f 64/64/64 2/2/2 62/62/62
f 2/2/2 64/64/64 3/3/3
f 62/62/62 63/63/63 64/64/64
f 60/60/60 61/61/61 63/63/63
f 58/58/58 59/59/59 61/61/61
f 56/56/56 57/57/57 59/59/59
f 54/54/54 55/55/55 57/57/57
f 52/52/52 53/53/53 55/55/55
f 50/50/50 51/51/51 53/53/53
f 48/48/48 49/49/49 51/51/51
f 46/46/46 47/47/47 49/49/49
f 44/44/44 45/45/45 47/47/47
f 42/42/42 43/43/43 45/45/45
f 40/40/40 41/41/41 43/43/43
f 38/38/38 39/39/39 41/41/41
f 36/36/36 37/37/37 39/39/39
f 34/34/34 35/35/35 37/37/37
f 32/32/32 33/33/33 35/35/35
f 30/30/30 31/31/31 33/33/33
f 28/28/28 29/29/29 31/31/31
f 26/26/26 27/27/27 29/29/29
f 24/24/24 25/25/25 27/27/27
f 22/22/22 23/23/23 25/25/25
f 20/20/20 21/21/21 23/23/23
f 18/18/18 19/19/19 21/21/21
f 16/16/16 17/17/17 19/19/19
f 14/14/14 15/15/15 17/17/17
f 12/12/12 13/13/13 15/15/15
f 10/10/10 11/11/11 13/13/13
f 8/8/8 9/9/9 11/11/11
f 6/6/6 7/7/7 9/9/9
f 4/4/4 5/5/5 7/7/7
f 1/1/1 3/3/3 5/5/5
g body_2
v -0.030783 0.254000 0.030886
v -0.030783 0.000000 0.030886
v -0.026616 0.000000 0.030886
v -0.026616 0.254000 0.030886
v -0.026616 0.254000 -0.021205
v -0.030783 0.254000 -0.021205
v -0.030783 0.254000 0.030886
v -0.026616 0.254000 0.030886
v -0.026616 0.254000 -0.021205
v -0.026616 0.000000 -0.021205
v -0.030783 0.000000 -0.021205
v -0.030783 0.254000 -0.021205
v -0.026616 0.000000 0.030886
v -0.030783 0.000000 0.030886
v -0.030783 0.000000 -0.021205
v -0.026616 0.000000 -0.021205
v -0.030783 0.254000 0.030886
v -0.030783 0.254000 -0.021205
v -0.030783 0.075245 -0.013545
v -0.030783 0.000000 -0.021205
v -0.030783 0.009420 -0.013545
v -0.030783 0.000000 0.030886
v -0.030783 0.009420 0.025319
v -0.030783 0.075245 0.025319
v -0.026616 0.254000 0.030886
v -0.026616 0.075245 0.025319
v -0.026616 0.075245 -0.013545
v -0.026616 0.000000 0.030886
v -0.026616 0.009420 0.025319
v -0.026616 0.000000 -0.021205
v -0.026616 0.009420 -0.013545
v -0.026616 0.254000 -0.021205
v -0.026616 0.075245 -0.013545
v -0.030783 0.075245 -0.013545
v -0.030783 0.009420 -0.013545
v -0.026616 0.009420 -0.013545
v -0.026616 0.075245 -0.013545
v -0.026616 0.075245 0.025319
v -0.030783 0.075245 0.025319
v -0.030783 0.075245 -0.013545
v -0.030783 0.075245 0.025319
v -0.026616 0.075245 0.025319
v -0.026616 0.009420 0.025319
v -0.030783 0.009420 0.025319
v -0.026616 0.009420 0.025319
v -0.026616 0.009420 -0.013545
v -0.030783 0.009420 -0.013545
v -0.030783 0.009420 0.025319
vn 0.000 0.000 1.000
vn 0.000 0.000 1.000
vn 0.000 0.000 1.000
vn 0.000 0.000 1.000
vn 0.000 1.000 0.000
vn 0.000 1.000 0.000
vn 0.000 1.000 0.000
vn 0.000 1.000 0.000
vn 0.000 0.000 -1.000
vn 0.000 0.000 -1.000
vn 0.000 0.000 -1.000
vn 0.000 0.000 -1.000
vn 0.000 -1.000 0.000
vn 0.000 -1.000 0.000
vn 0.000 -1.000 0.000
vn 0.000 -1.000 0.000
vn -1.000 0.000 0.000
vn -1.000 0.000 0.000
vn -1.000 0.000 0.000
vn -1.000 0.000 0.000
vn -1.000 0.000 0.000
vn -1.000 0.000 0.000
vn -1.000 0.000 0.000
vn -1.000 0.000 0.000
vn 1.000 0.000 0.000
vn 1.000 0.000 0.000
vn 1.000 0.000 0.000
vn 1.000 0.000 0.000
vn 1.000 0.000 0.000
vn 1.000 0.000 0.000
vn 1.000 0.000 0.000
vn 1.000 0.000 0.000
vn 0.000 0.000 1.000
vn 0.000 0.000 1.000
vn 0.000 0.000 1.000
vn 0.000 0.000 1.000
vn 0.000 -1.000 0.000
vn 0.000 -1.000 0.000
vn 0.000 -1.000 0.000
vn 0.000 -1.000 0.000
vn 0.000 0.000 -1.000
vn 0.000 0.000 -1.000
vn 0.000 0.000 -1.000
vn 0.000 0.000 -1.000
vn 0.000 1.000 0.000
vn 0.000 1.000 0.000
vn 0.000 1.000 0.000
vn 0.000 1.000 0.000
vt 0.0000 0.0000 0
vt 0.0000 -0.2540 0
vt -0.0042 -0.2540 0
vt -0.0042 0.0000 0
vt -0.0212 -0.0266 0
vt -0.0212 -0.0308 0
vt 0.0309 -0.0308 0
vt 0.0309 -0.0266 0
vt 0.0042 0.0000 0
vt 0.0042 -0.2540 0
vt 0.0000 -0.2540 0
vt 0.0000 0.0000 0
vt 0.0309 -0.0266 0
vt 0.0309 -0.0308 0
vt -0.0212 -0.0308 0
vt -0.0212 -0.0266 0
vt -0.0521 0.0000 0
vt 0.0000 0.0000 0
vt -0.0077 -0.1788 0
vt 0.0000 -0.2540 0
vt -0.0077 -0.2446 0
vt -0.0521 -0.2540 0
vt -0.0465 -0.2446 0
vt -0.0465 -0.1788 0
vt 0.0521 0.0000 0
vt 0.0465 -0.1788 0
vt 0.0077 -0.1788 0
vt 0.0521 -0.2540 0
vt 0.0465 -0.2446 0
vt 0.0000 -0.2540 0
vt 0.0077 -0.2446 0
vt 0.0000 0.0000 0
vt 0.0035 0.0000 0
vt 0.0076 0.0000 0
vt 0.0076 -0.0658 0
vt 0.0035 -0.0658 0
vt 0.0000 -0.0035 0
vt 0.0389 -0.0035 0
vt 0.0389 -0.0076 0
vt 0.0000 -0.0076 0
vt -0.0076 0.0000 0
vt -0.0035 0.0000 0
vt -0.0035 -0.0658 0
vt -0.0076 -0.0658 0
vt -0.0389 -0.0035 0
vt 0.0000 -0.0035 0
vt 0.0000 -0.0076 0
vt -0.0389 -0.0076 0
f 174/174/174 173/173/173 172/172/172
f 171/171/171 169/169/169 170/170/170
f 169/169/169 171/171/171 176/176/176
f 171/171/171 172/172/172 173/173/173
f 173/173/173 174/174/174 175/175/175
f 176/176/176 174/174/174 169/169/169
f 172/172/172 171/171/171 170/170/170
f 174/174/174 176/176/176 175/175/175
f 155/155/155 153/153/153 154/154/154
f 153/153/153 155/155/155 156/156/156
f 179/179/179 177/177/177 178/178/178
f 178/178/178 180/180/180 181/181/181
f 180/180/180 178/178/178 177/177/177
f 183/183/183 180/180/180 182/182/182
f 180/180/180 183/183/183 181/181/181
f 179/179/179 182/182/182 184/184/184
f 182/182/182 179/179/179 183/183/183
f 177/177/177 179/179/179 184/184/184
f 163/163/163 161/161/161 162/162/162
f 161/161/161 163/163/163 164/164/164
f 159/159/159 157/157/157 158/158/158
f 157/157/157 159/159/159 160/160/160
f 167/167/167 165/165/165 166/166/166
f 165/165/165 167/167/167 168/168/168
f 185/185/185 187/187/187 188/188/188
f 187/187/187 185/185/185 186/186/186
f 191/191/191 189/189/189 190/190/190
f 189/189/189 191/191/191 192/192/192
f 193/193/193 195/195/195 196/196/196
f 195/195/195 193/193/193 194/194/194
f 197/197/197 199/199/199 200/200/200
f 199/199/199 197/197/197 198/198/198
