# Wavefront .OBJ file for tesselated shape: PART6copy-1 path: C:\Users\Melen\Desktop\SOLIDWORKS\PART6copy.SLDPRT

g body_1
v -1.926639 1.857980 0.263397
v -1.926639 1.932659 0.270118
v -1.740652 1.932659 0.270118
v -1.926639 1.785701 0.243449
v -1.740652 1.857980 0.263397
v -1.926639 1.718145 0.210916
v -1.740652 1.785701 0.243449
v -1.926639 1.657484 0.166843
v -1.740652 1.718145 0.210916
v -1.926639 1.605667 0.112647
v -1.740652 1.657484 0.166843
v -1.926639 1.564360 0.050070
v -1.740652 1.605667 0.112647
v -1.926639 1.534891 -0.018877
v -1.740652 1.564360 0.050070
v -1.926639 1.518206 -0.091979
v -1.740652 1.534891 -0.018877
v -1.926639 1.514842 -0.166884
v -1.740652 1.518206 -0.091979
v -1.926639 1.524907 -0.241187
v -1.740652 1.514842 -0.166884
v -1.926639 1.548078 -0.312498
v -1.740652 1.524907 -0.241187
v -1.926639 1.583609 -0.378526
v -1.740652 1.548078 -0.312498
v -1.926639 1.630359 -0.437149
v -1.740652 1.583609 -0.378526
v -1.926639 1.686825 -0.486482
v -1.740652 1.630359 -0.437149
v -1.926639 1.751192 -0.524939
v -1.740652 1.686825 -0.486482
v -1.926639 1.821392 -0.551286
v -1.740652 1.751192 -0.524939
v -1.926639 1.895168 -0.564674
v -1.740652 1.821392 -0.551286
v -1.926639 1.970149 -0.564674
v -1.740652 1.895168 -0.564674
v -1.926639 2.043926 -0.551286
v -1.740652 1.970149 -0.564674
v -1.926639 2.114126 -0.524939
v -1.740652 2.043926 -0.551286
v -1.926639 2.178493 -0.486482
v -1.740652 2.114126 -0.524939
v -1.926639 2.234959 -0.437149
v -1.740652 2.178493 -0.486482
v -1.926639 2.281709 -0.378526
v -1.740652 2.234959 -0.437149
v -1.926639 2.317240 -0.312498
v -1.740652 2.281709 -0.378526
v -1.926639 2.340411 -0.241187
v -1.740652 2.317240 -0.312498
v -1.926639 2.350476 -0.166884
v -1.740652 2.340411 -0.241187
v -1.926639 2.347112 -0.091979
v -1.740652 2.350476 -0.166884
v -1.926639 2.330427 -0.018877
v -1.740652 2.347112 -0.091979
v -1.926639 2.300957 0.050070
v -1.740652 2.330427 -0.018877
v -1.926639 2.259650 0.112647
v -1.740652 2.300957 0.050070
v -1.926639 2.207834 0.166843
v -1.740652 2.259650 0.112647
v -1.926639 2.147173 0.210916
v -1.740652 2.207834 0.166843
v -1.926639 2.079617 0.243449
v -1.740652 2.147173 0.210916
v -1.926639 2.007338 0.263397
v -1.740652 2.079617 0.243449
v -1.740652 2.007338 0.263397
v -1.926639 2.540000 -0.624845
v -1.926639 0.000000 -0.624845
v -1.926639 1.895168 -0.564674
v -1.926639 2.114126 -0.524939
v -1.926639 2.178493 -0.486482
v -1.926639 1.821392 -0.551286
v -1.926639 2.043926 -0.551286
v -1.926639 1.970149 -0.564674
v -1.926639 1.630359 -0.437149
v -1.926639 1.686825 -0.486482
v -1.926639 2.540000 0.376205
v -1.926639 2.350476 -0.166884
v -1.926639 1.751192 -0.524939
v -1.926639 1.583609 -0.378526
v -1.926639 0.000000 0.376205
v -1.926639 1.518206 -0.091979
v -1.926639 1.514842 -0.166884
v -1.926639 2.300957 0.050070
v -1.926639 2.259650 0.112647
v -1.926639 2.347112 -0.091979
v -1.926639 2.317240 -0.312498
v -1.926639 2.340411 -0.241187
v -1.926639 2.234959 -0.437149
v -1.926639 2.281709 -0.378526
v -1.926639 1.785701 0.243449
v -1.926639 1.718145 0.210916
v -1.926639 2.147173 0.210916
v -1.926639 2.079617 0.243449
v -1.926639 2.207834 0.166843
v -1.926639 2.330427 -0.018877
v -1.926639 1.548078 -0.312498
v -1.926639 1.524907 -0.241187
v -1.926639 1.657484 0.166843
v -1.926639 1.605667 0.112647
v -1.926639 1.857980 0.263397
v -1.926639 1.564360 0.050070
v -1.926639 1.534891 -0.018877
v -1.926639 1.932659 0.270118
v -1.926639 2.007338 0.263397
v -1.740652 2.540000 0.376205
v -1.740652 2.347112 -0.091979
v -1.740652 2.350476 -0.166884
v -1.740652 0.000000 -0.624845
v -1.740652 1.686825 -0.486482
v -1.740652 1.630359 -0.437149
v -1.740652 2.540000 -0.624845
v -1.740652 1.970149 -0.564674
v -1.740652 1.895168 -0.564674
v -1.740652 2.317240 -0.312498
v -1.740652 2.281709 -0.378526
v -1.740652 2.340411 -0.241187
v -1.740652 2.330427 -0.018877
v -1.740652 2.207834 0.166843
v -1.740652 2.259650 0.112647
v -1.740652 0.000000 0.376205
v -1.740652 1.657484 0.166843
v -1.740652 1.718145 0.210916
v -1.740652 1.514842 -0.166884
v -1.740652 1.751192 -0.524939
v -1.740652 2.300957 0.050070
v -1.740652 2.147173 0.210916
v -1.740652 2.007338 0.263397
v -1.740652 2.079617 0.243449
v -1.740652 1.857980 0.263397
v -1.740652 1.932659 0.270118
v -1.740652 1.785701 0.243449
v -1.740652 1.564360 0.050070
v -1.740652 1.605667 0.112647
v -1.740652 1.524907 -0.241187
v -1.740652 1.583609 -0.378526
v -1.740652 1.821392 -0.551286
v -1.740652 1.548078 -0.312498
v -1.740652 2.234959 -0.437149
v -1.740652 2.178493 -0.486482
v -1.740652 1.518206 -0.091979
v -1.740652 1.534891 -0.018877
v -1.740652 2.114126 -0.524939
v -1.740652 2.043926 -0.551286
v -1.926639 2.540000 0.376205
v -1.926639 0.000000 0.376205
v -1.740652 0.000000 0.376205
v -1.740652 2.540000 0.376205
v -1.740652 2.540000 -0.624845
v -1.740652 0.000000 -0.624845
v -1.926639 0.000000 -0.624845
v -1.926639 2.540000 -0.624845
v -1.740652 2.540000 -0.624845
v -1.926639 2.540000 -0.624845
v -1.926639 2.540000 0.376205
v -1.740652 2.540000 0.376205
v -1.740652 0.000000 0.376205
v -1.926639 0.000000 0.376205
v -1.926639 0.000000 -0.624845
v -1.740652 0.000000 -0.624845
vn 0.000 0.179 -0.984
vn 0.000 0.000 -1.000
vn 0.000 0.000 -1.000
vn 0.000 0.351 -0.936
vn 0.000 0.179 -0.984
vn 0.000 0.513 -0.858
vn 0.000 0.351 -0.936
vn 0.000 0.658 -0.753
vn 0.000 0.513 -0.858
vn 0.000 0.782 -0.623
vn 0.000 0.658 -0.753
vn 0.000 0.881 -0.474
vn 0.000 0.782 -0.623
vn 0.000 0.951 -0.309
vn 0.000 0.881 -0.474
vn 0.000 0.991 -0.134
vn 0.000 0.951 -0.309
vn 0.000 0.999 0.045
vn 0.000 0.991 -0.134
vn 0.000 0.975 0.223
vn 0.000 0.999 0.045
vn 0.000 0.920 0.393
vn 0.000 0.975 0.223
vn 0.000 0.835 0.551
vn 0.000 0.920 0.393
vn 0.000 0.723 0.691
vn 0.000 0.835 0.551
vn 0.000 0.588 0.809
vn 0.000 0.723 0.691
vn 0.000 0.434 0.901
vn 0.000 0.588 0.809
vn 0.000 0.266 0.964
vn 0.000 0.434 0.901
vn 0.000 0.090 0.996
vn 0.000 0.266 0.964
vn 0.000 -0.090 0.996
vn 0.000 0.090 0.996
vn 0.000 -0.266 0.964
vn 0.000 -0.090 0.996
vn 0.000 -0.434 0.901
vn 0.000 -0.266 0.964
vn 0.000 -0.588 0.809
vn 0.000 -0.434 0.901
vn 0.000 -0.723 0.691
vn 0.000 -0.588 0.809
vn 0.000 -0.835 0.551
vn 0.000 -0.723 0.691
vn 0.000 -0.920 0.393
vn 0.000 -0.835 0.551
vn 0.000 -0.975 0.223
vn 0.000 -0.920 0.393
vn 0.000 -0.999 0.045
vn 0.000 -0.975 0.223
vn 0.000 -0.991 -0.134
vn 0.000 -0.999 0.045
vn 0.000 -0.951 -0.309
vn 0.000 -0.991 -0.134
vn 0.000 -0.881 -0.474
vn 0.000 -0.951 -0.309
vn 0.000 -0.782 -0.623
vn 0.000 -0.881 -0.474
vn 0.000 -0.658 -0.753
vn 0.000 -0.782 -0.623
vn 0.000 -0.513 -0.858
vn 0.000 -0.658 -0.753
vn 0.000 -0.351 -0.936
vn 0.000 -0.513 -0.858
vn 0.000 -0.179 -0.984
vn 0.000 -0.351 -0.936
vn 0.000 -0.179 -0.984
vn -1.000 0.000 0.000
vn -1.000 0.000 0.000
vn -1.000 0.000 0.000
vn -1.000 0.000 0.000
vn -1.000 0.000 0.000
vn -1.000 0.000 0.000
vn -1.000 0.000 0.000
vn -1.000 0.000 0.000
vn -1.000 0.000 0.000
vn -1.000 0.000 0.000
vn -1.000 0.000 0.000
vn -1.000 0.000 0.000
vn -1.000 0.000 0.000
vn -1.000 0.000 0.000
vn -1.000 0.000 0.000
vn -1.000 0.000 0.000
vn -1.000 0.000 0.000
vn -1.000 0.000 0.000
vn -1.000 0.000 0.000
vn -1.000 0.000 0.000
vn -1.000 0.000 0.000
vn -1.000 0.000 0.000
vn -1.000 0.000 0.000
vn -1.000 0.000 0.000
vn -1.000 0.000 0.000
vn -1.000 0.000 0.000
vn -1.000 0.000 0.000
vn -1.000 0.000 0.000
vn -1.000 0.000 0.000
vn -1.000 0.000 0.000
vn -1.000 0.000 0.000
vn -1.000 0.000 0.000
vn -1.000 0.000 0.000
vn -1.000 0.000 0.000
vn -1.000 0.000 0.000
vn -1.000 0.000 0.000
vn -1.000 0.000 0.000
vn -1.000 0.000 0.000
vn -1.000 0.000 0.000
vn 1.000 0.000 0.000
vn 1.000 0.000 0.000
vn 1.000 0.000 0.000
vn 1.000 0.000 0.000
vn 1.000 0.000 0.000
vn 1.000 0.000 0.000
vn 1.000 0.000 0.000
vn 1.000 0.000 0.000
vn 1.000 0.000 0.000
vn 1.000 0.000 0.000
vn 1.000 0.000 0.000
vn 1.000 0.000 0.000
vn 1.000 0.000 0.000
vn 1.000 0.000 0.000
vn 1.000 0.000 0.000
vn 1.000 0.000 0.000
vn 1.000 0.000 0.000
vn 1.000 0.000 0.000
vn 1.000 0.000 0.000
vn 1.000 0.000 0.000
vn 1.000 0.000 0.000
vn 1.000 0.000 0.000
vn 1.000 0.000 0.000
vn 1.000 0.000 0.000
vn 1.000 0.000 0.000
vn 1.000 0.000 0.000
vn 1.000 0.000 0.000
vn 1.000 0.000 0.000
vn 1.000 0.000 0.000
vn 1.000 0.000 0.000
vn 1.000 0.000 0.000
vn 1.000 0.000 0.000
vn 1.000 0.000 0.000
vn 1.000 0.000 0.000
vn 1.000 0.000 0.000
vn 1.000 0.000 0.000
vn 1.000 0.000 0.000
vn 1.000 0.000 0.000
vn 1.000 0.000 0.000
vn 0.000 0.000 1.000
vn 0.000 0.000 1.000
vn 0.000 0.000 1.000
vn 0.000 0.000 1.000
vn 0.000 0.000 -1.000
vn 0.000 0.000 -1.000
vn 0.000 0.000 -1.000
vn 0.000 0.000 -1.000
vn 0.000 1.000 0.000
vn 0.000 1.000 0.000
vn 0.000 1.000 0.000
vn 0.000 1.000 0.000
vn 0.000 -1.000 0.000
vn 0.000 -1.000 0.000
vn 0.000 -1.000 0.000
vn 0.000 -1.000 0.000
vt -0.1795 0.2540 0
vt 0.0000 0.2540 0
vt 0.0000 0.0680 0
vt 5.9241 0.2540 0
vt -0.1795 0.0680 0
vt 5.7446 0.2540 0
vt 5.9241 0.0680 0
vt 5.5651 0.2540 0
vt 5.7446 0.0680 0
vt 5.3856 0.2540 0
vt 5.5651 0.0680 0
vt 5.2061 0.2540 0
vt 5.3856 0.0680 0
vt 5.0265 0.2540 0
vt 5.2061 0.0680 0
vt 4.8470 0.2540 0
vt 5.0265 0.0680 0
vt 4.6675 0.2540 0
vt 4.8470 0.0680 0
vt 4.4880 0.2540 0
vt 4.6675 0.0680 0
vt 4.3085 0.2540 0
vt 4.4880 0.0680 0
vt 4.1290 0.2540 0
vt 4.3085 0.0680 0
vt 3.9494 0.2540 0
vt 4.1290 0.0680 0
vt 3.7699 0.2540 0
vt 3.9494 0.0680 0
vt 3.5904 0.2540 0
vt 3.7699 0.0680 0
vt 3.4109 0.2540 0
vt 3.5904 0.0680 0
vt 3.2314 0.2540 0
vt 3.4109 0.0680 0
vt 3.0518 0.2540 0
vt 3.2314 0.0680 0
vt 2.8723 0.2540 0
vt 3.0518 0.0680 0
vt 2.6928 0.2540 0
vt 2.8723 0.0680 0
vt 2.5133 0.2540 0
vt 2.6928 0.0680 0
vt 2.3338 0.2540 0
vt 2.5133 0.0680 0
vt 2.1542 0.2540 0
vt 2.3338 0.0680 0
vt 1.9747 0.2540 0
vt 2.1542 0.0680 0
vt 1.7952 0.2540 0
vt 1.9747 0.0680 0
vt 1.6157 0.2540 0
vt 1.7952 0.0680 0
vt 1.4362 0.2540 0
vt 1.6157 0.0680 0
vt 1.2566 0.2540 0
vt 1.4362 0.0680 0
vt 1.0771 0.2540 0
vt 1.2566 0.0680 0
vt 0.8976 0.2540 0
vt 1.0771 0.0680 0
vt 0.7181 0.2540 0
vt 0.8976 0.0680 0
vt 0.5386 0.2540 0
vt 0.7181 0.0680 0
vt 0.3590 0.2540 0
vt 0.5386 0.0680 0
vt 0.1795 0.2540 0
vt 0.3590 0.0680 0
vt 0.1795 0.0680 0
vt 0.0000 0.0000 0
vt 0.0000 -2.5400 0
vt -0.0602 -0.6448 0
vt -0.0999 -0.4259 0
vt -0.1384 -0.3615 0
vt -0.0736 -0.7186 0
vt -0.0736 -0.4961 0
vt -0.0602 -0.5699 0
vt -0.1877 -0.9096 0
vt -0.1384 -0.8532 0
vt -1.0010 0.0000 0
vt -0.4580 -0.1895 0
vt -0.0999 -0.7888 0
vt -0.2463 -0.9564 0
vt -1.0010 -2.5400 0
vt -0.5329 -1.0218 0
vt -0.4580 -1.0252 0
vt -0.6749 -0.2390 0
vt -0.7375 -0.2803 0
vt -0.5329 -0.1929 0
vt -0.3123 -0.2228 0
vt -0.3837 -0.1996 0
vt -0.1877 -0.3050 0
vt -0.2463 -0.2583 0
vt -0.8683 -0.7543 0
vt -0.8358 -0.8219 0
vt -0.8358 -0.3928 0
vt -0.8683 -0.4604 0
vt -0.7917 -0.3322 0
vt -0.6060 -0.2096 0
vt -0.3123 -0.9919 0
vt -0.3837 -1.0151 0
vt -0.7917 -0.8825 0
vt -0.7375 -0.9343 0
vt -0.8882 -0.6820 0
vt -0.6749 -0.9756 0
vt -0.6060 -1.0051 0
vt -0.8950 -0.6073 0
vt -0.8882 -0.5327 0
vt 1.0010 0.0000 0
vt 0.5329 -0.1929 0
vt 0.4580 -0.1895 0
vt 0.0000 -2.5400 0
vt 0.1384 -0.8532 0
vt 0.1877 -0.9096 0
vt 0.0000 0.0000 0
vt 0.0602 -0.5699 0
vt 0.0602 -0.6448 0
vt 0.3123 -0.2228 0
vt 0.2463 -0.2583 0
vt 0.3837 -0.1996 0
vt 0.6060 -0.2096 0
vt 0.7917 -0.3322 0
vt 0.7375 -0.2803 0
vt 1.0010 -2.5400 0
vt 0.7917 -0.8825 0
vt 0.8358 -0.8219 0
vt 0.4580 -1.0252 0
vt 0.0999 -0.7888 0
vt 0.6749 -0.2390 0
vt 0.8358 -0.3928 0
vt 0.8882 -0.5327 0
vt 0.8683 -0.4604 0
vt 0.8882 -0.6820 0
vt 0.8950 -0.6073 0
vt 0.8683 -0.7543 0
vt 0.6749 -0.9756 0
vt 0.7375 -0.9343 0
vt 0.3837 -1.0151 0
vt 0.2463 -0.9564 0
vt 0.0736 -0.7186 0
vt 0.3123 -0.9919 0
vt 0.1877 -0.3050 0
vt 0.1384 -0.3615 0
vt 0.5329 -1.0218 0
vt 0.6060 -1.0051 0
vt 0.0999 -0.4259 0
vt 0.0736 -0.4961 0
vt 0.0000 0.0000 0
vt 0.0000 -2.5400 0
vt -0.1860 -2.5400 0
vt -0.1860 0.0000 0
vt 0.1860 0.0000 0
vt 0.1860 -2.5400 0
vt 0.0000 -2.5400 0
vt 0.0000 0.0000 0
vt -0.6248 -1.7407 0
vt -0.6248 -1.9266 0
vt 0.3762 -1.9266 0
vt 0.3762 -1.7407 0
vt 0.3762 -1.7407 0
vt 0.3762 -1.9266 0
vt -0.6248 -1.9266 0
vt -0.6248 -1.7407 0
f 73/73/73 72/72/72 76/76/76
f 74/74/74 71/71/71 77/77/77
f 71/71/71 73/73/73 78/78/78
f 71/71/71 78/78/78 77/77/77
f 80/80/80 72/72/72 79/79/79
f 82/82/82 81/81/81 71/71/71
f 75/75/75 71/71/71 74/74/74
f 79/79/79 72/72/72 84/84/84
f 87/87/87 85/85/85 86/86/86
f 89/89/89 81/81/81 88/88/88
f 81/81/81 82/82/82 90/90/90
f 92/92/92 71/71/71 91/91/91
f 94/94/94 71/71/71 93/93/93
f 72/72/72 80/80/80 83/83/83
f 85/85/85 87/87/87 72/72/72
f 96/96/96 85/85/85 95/95/95
f 98/98/98 81/81/81 97/97/97
f 81/81/81 89/89/89 99/99/99
f 81/81/81 90/90/90 100/100/100
f 71/71/71 94/94/94 91/91/91
f 84/84/84 72/72/72 101/101/101
f 72/72/72 87/87/87 102/102/102
f 104/104/104 85/85/85 103/103/103
f 95/95/95 85/85/85 105/105/105
f 81/81/81 99/99/99 97/97/97
f 71/71/71 92/92/92 82/82/82
f 72/72/72 102/102/102 101/101/101
f 107/107/107 85/85/85 106/106/106
f 85/85/85 96/96/96 103/103/103
f 108/108/108 85/85/85 81/81/81
f 81/81/81 100/100/100 88/88/88
f 85/85/85 107/107/107 86/86/86
f 85/85/85 108/108/108 105/105/105
f 81/81/81 98/98/98 109/109/109
f 85/85/85 104/104/104 106/106/106
f 71/71/71 75/75/75 93/93/93
f 81/81/81 109/109/109 108/108/108
f 73/73/73 71/71/71 72/72/72
f 76/76/76 72/72/72 83/83/83
f 149/149/149 151/151/151 152/152/152
f 151/151/151 149/149/149 150/150/150
f 121/121/121 116/116/116 112/112/112
f 115/115/115 113/113/113 114/114/114
f 124/124/124 110/110/110 123/123/123
f 127/127/127 125/125/125 126/126/126
f 128/128/128 125/125/125 113/113/113
f 114/114/114 113/113/113 129/129/129
f 116/116/116 118/118/118 113/113/113
f 116/116/116 121/121/121 119/119/119
f 122/122/122 110/110/110 130/130/130
f 123/123/123 110/110/110 131/131/131
f 133/133/133 110/110/110 132/132/132
f 135/135/135 125/125/125 134/134/134
f 125/125/125 127/127/127 136/136/136
f 138/138/138 125/125/125 137/137/137
f 128/128/128 113/113/113 139/139/139
f 113/113/113 115/115/115 140/140/140
f 113/113/113 118/118/118 141/141/141
f 120/120/120 116/116/116 119/119/119
f 110/110/110 133/133/133 131/131/131
f 125/125/125 135/135/135 110/110/110
f 125/125/125 138/138/138 126/126/126
f 139/139/139 113/113/113 142/142/142
f 113/113/113 141/141/141 129/129/129
f 144/144/144 116/116/116 143/143/143
f 110/110/110 124/124/124 130/130/130
f 125/125/125 136/136/136 134/134/134
f 146/146/146 125/125/125 145/145/145
f 113/113/113 140/140/140 142/142/142
f 116/116/116 144/144/144 147/147/147
f 110/110/110 135/135/135 132/132/132
f 125/125/125 128/128/128 145/145/145
f 116/116/116 147/147/147 148/148/148
f 125/125/125 146/146/146 137/137/137
f 116/116/116 120/120/120 143/143/143
f 116/116/116 148/148/148 117/117/117
f 110/110/110 112/112/112 116/116/116
f 118/118/118 116/116/116 117/117/117
f 112/112/112 110/110/110 111/111/111
f 111/111/111 110/110/110 122/122/122
f 155/155/155 153/153/153 154/154/154
f 153/153/153 155/155/155 156/156/156
f 157/157/157 159/159/159 160/160/160
f 159/159/159 157/157/157 158/158/158
f 163/163/163 161/161/161 162/162/162
f 161/161/161 163/163/163 164/164/164
f 3/3/3 1/1/1 2/2/2
f 5/5/5 4/4/4 1/1/1
f 7/7/7 6/6/6 4/4/4
f 9/9/9 8/8/8 6/6/6
f 11/11/11 10/10/10 8/8/8
f 13/13/13 12/12/12 10/10/10
f 15/15/15 14/14/14 12/12/12
f 17/17/17 16/16/16 14/14/14
f 19/19/19 18/18/18 16/16/16
f 21/21/21 20/20/20 18/18/18
f 23/23/23 22/22/22 20/20/20
f 25/25/25 24/24/24 22/22/22
f 27/27/27 26/26/26 24/24/24
f 29/29/29 28/28/28 26/26/26
f 31/31/31 30/30/30 28/28/28
f 33/33/33 32/32/32 30/30/30
f 35/35/35 34/34/34 32/32/32
f 37/37/37 36/36/36 34/34/34
f 39/39/39 38/38/38 36/36/36
f 41/41/41 40/40/40 38/38/38
f 43/43/43 42/42/42 40/40/40
f 45/45/45 44/44/44 42/42/42
f 47/47/47 46/46/46 44/44/44
f 49/49/49 48/48/48 46/46/46
f 51/51/51 50/50/50 48/48/48
f 53/53/53 52/52/52 50/50/50
f 55/55/55 54/54/54 52/52/52
f 57/57/57 56/56/56 54/54/54
f 59/59/59 58/58/58 56/56/56
f 61/61/61 60/60/60 58/58/58
f 63/63/63 62/62/62 60/60/60
f 65/65/65 64/64/64 62/62/62
f 67/67/67 66/66/66 64/64/64
f 69/69/69 68/68/68 66/66/66
f 70/70/70 2/2/2 68/68/68
f 2/2/2 70/70/70 3/3/3
f 68/68/68 69/69/69 70/70/70
f 66/66/66 67/67/67 69/69/69
f 64/64/64 65/65/65 67/67/67
f 62/62/62 63/63/63 65/65/65
f 60/60/60 61/61/61 63/63/63
f 58/58/58 59/59/59 61/61/61
f 56/56/56 57/57/57 59/59/59
f 54/54/54 55/55/55 57/57/57
f 52/52/52 53/53/53 55/55/55
f 50/50/50 51/51/51 53/53/53
f 48/48/48 49/49/49 51/51/51
f 46/46/46 47/47/47 49/49/49
f 44/44/44 45/45/45 47/47/47
f 42/42/42 43/43/43 45/45/45
f 40/40/40 41/41/41 43/43/43
f 38/38/38 39/39/39 41/41/41
f 36/36/36 37/37/37 39/39/39
f 34/34/34 35/35/35 37/37/37
f 32/32/32 33/33/33 35/35/35
f 30/30/30 31/31/31 33/33/33
f 28/28/28 29/29/29 31/31/31
f 26/26/26 27/27/27 29/29/29
f 24/24/24 25/25/25 27/27/27
f 22/22/22 23/23/23 25/25/25
f 20/20/20 21/21/21 23/23/23
f 18/18/18 19/19/19 21/21/21
f 16/16/16 17/17/17 19/19/19
f 14/14/14 15/15/15 17/17/17
f 12/12/12 13/13/13 15/15/15
f 10/10/10 11/11/11 13/13/13
f 8/8/8 9/9/9 11/11/11
f 6/6/6 7/7/7 9/9/9
f 4/4/4 5/5/5 7/7/7
f 1/1/1 3/3/3 5/5/5
g body_2
v 0.820564 2.540000 0.081790
v 0.820564 0.000000 0.081790
v 0.953898 0.000000 0.081790
v 0.953898 2.540000 0.081790
v 0.953898 2.540000 -0.605392
v 0.820564 2.540000 -0.605392
v 0.820564 2.540000 0.081790
v 0.953898 2.540000 0.081790
v 0.953898 2.540000 -0.605392
v 0.953898 0.000000 -0.605392
v 0.820564 0.000000 -0.605392
v 0.820564 2.540000 -0.605392
v 0.953898 0.000000 0.081790
v 0.820564 0.000000 0.081790
v 0.820564 0.000000 -0.605392
v 0.953898 0.000000 -0.605392
v 0.820564 2.540000 0.081790
v 0.820564 2.540000 -0.605392
v 0.820564 1.896022 -0.516698
v 0.820564 0.000000 -0.605392
v 0.820564 1.235497 -0.516698
v 0.820564 0.000000 0.081790
v 0.820564 1.235497 0.032751
v 0.820564 1.896022 0.032751
v 0.953898 2.540000 0.081790
v 0.953898 1.896022 0.032751
v 0.953898 1.896022 -0.516698
v 0.953898 0.000000 0.081790
v 0.953898 1.235497 0.032751
v 0.953898 0.000000 -0.605392
v 0.953898 1.235497 -0.516698
v 0.953898 2.540000 -0.605392
v 0.953898 1.235497 -0.516698
v 0.953898 1.896022 -0.516698
v 0.820564 1.896022 -0.516698
v 0.820564 1.235497 -0.516698
v 0.953898 1.896022 -0.516698
v 0.953898 1.896022 0.032751
v 0.820564 1.896022 0.032751
v 0.820564 1.896022 -0.516698
v 0.953898 1.896022 0.032751
v 0.953898 1.235497 0.032751
v 0.820564 1.235497 0.032751
v 0.820564 1.896022 0.032751
v 0.953898 1.235497 0.032751
v 0.953898 1.235497 -0.516698
v 0.820564 1.235497 -0.516698
v 0.820564 1.235497 0.032751
vn 0.000 0.000 1.000
vn 0.000 0.000 1.000
vn 0.000 0.000 1.000
vn 0.000 0.000 1.000
vn 0.000 1.000 0.000
vn 0.000 1.000 0.000
vn 0.000 1.000 0.000
vn 0.000 1.000 0.000
vn 0.000 0.000 -1.000
vn 0.000 0.000 -1.000
vn 0.000 0.000 -1.000
vn 0.000 0.000 -1.000
vn 0.000 -1.000 0.000
vn 0.000 -1.000 0.000
vn 0.000 -1.000 0.000
vn 0.000 -1.000 0.000
vn -1.000 0.000 0.000
vn -1.000 0.000 0.000
vn -1.000 0.000 0.000
vn -1.000 0.000 0.000
vn -1.000 0.000 0.000
vn -1.000 0.000 0.000
vn -1.000 0.000 0.000
vn -1.000 0.000 0.000
vn 1.000 0.000 0.000
vn 1.000 0.000 0.000
vn 1.000 0.000 0.000
vn 1.000 0.000 0.000
vn 1.000 0.000 0.000
vn 1.000 0.000 0.000
vn 1.000 0.000 0.000
vn 1.000 0.000 0.000
vn 0.000 0.000 1.000
vn 0.000 0.000 1.000
vn 0.000 0.000 1.000
vn 0.000 0.000 1.000
vn 0.000 -1.000 0.000
vn 0.000 -1.000 0.000
vn 0.000 -1.000 0.000
vn 0.000 -1.000 0.000
vn 0.000 0.000 -1.000
vn 0.000 0.000 -1.000
vn 0.000 0.000 -1.000
vn 0.000 0.000 -1.000
vn 0.000 1.000 0.000
vn 0.000 1.000 0.000
vn 0.000 1.000 0.000
vn 0.000 1.000 0.000
vt 0.0000 0.0000 0
vt 0.0000 -2.5400 0
vt -0.1333 -2.5400 0
vt -0.1333 0.0000 0
vt -0.6054 0.9539 0
vt -0.6054 0.8206 0
vt 0.0818 0.8206 0
vt 0.0818 0.9539 0
vt 0.1333 0.0000 0
vt 0.1333 -2.5400 0
vt 0.0000 -2.5400 0
vt 0.0000 0.0000 0
vt 0.0818 0.9539 0
vt 0.0818 0.8206 0
vt -0.6054 0.8206 0
vt -0.6054 0.9539 0
vt -0.6872 0.0000 0
vt 0.0000 0.0000 0
vt -0.0887 -0.6440 0
vt 0.0000 -2.5400 0
vt -0.0887 -1.3045 0
vt -0.6872 -2.5400 0
vt -0.6381 -1.3045 0
vt -0.6381 -0.6440 0
vt 0.6872 0.0000 0
vt 0.6381 -0.6440 0
vt 0.0887 -0.6440 0
vt 0.6872 -2.5400 0
vt 0.6381 -1.3045 0
vt 0.0000 -2.5400 0
vt 0.0887 -1.3045 0
vt 0.0000 0.0000 0
vt 0.1207 -0.6605 0
vt 0.1207 0.0000 0
vt 0.2540 0.0000 0
vt 0.2540 -0.6605 0
vt 0.0000 -0.1207 0
vt 0.5494 -0.1207 0
vt 0.5494 -0.2540 0
vt 0.0000 -0.2540 0
vt 0.0000 -0.1207 0
vt 0.6605 -0.1207 0
vt 0.6605 -0.2540 0
vt 0.0000 -0.2540 0
vt -0.5494 -0.1207 0
vt 0.0000 -0.1207 0
vt 0.0000 -0.2540 0
vt -0.5494 -0.2540 0
f 186/186/186 185/185/185 184/184/184
f 183/183/183 181/181/181 182/182/182
f 181/181/181 183/183/183 188/188/188
f 185/185/185 182/182/182 184/184/184
f 185/185/185 186/186/186 187/187/187
f 187/187/187 181/181/181 188/188/188
f 182/182/182 185/185/185 183/183/183
f 181/181/181 187/187/187 186/186/186
f 167/167/167 165/165/165 166/166/166
f 165/165/165 167/167/167 168/168/168
f 191/191/191 189/189/189 190/190/190
f 193/193/193 189/189/189 192/192/192
f 189/189/189 193/193/193 190/190/190
f 195/195/195 192/192/192 194/194/194
f 192/192/192 195/195/195 193/193/193
f 195/195/195 196/196/196 191/191/191
f 196/196/196 195/195/195 194/194/194
f 189/189/189 191/191/191 196/196/196
f 175/175/175 173/173/173 174/174/174
f 173/173/173 175/175/175 176/176/176
f 171/171/171 169/169/169 170/170/170
f 169/169/169 171/171/171 172/172/172
f 179/179/179 177/177/177 178/178/178
f 177/177/177 179/179/179 180/180/180
f 197/197/197 199/199/199 200/200/200
f 199/199/199 197/197/197 198/198/198
f 203/203/203 201/201/201 202/202/202
f 201/201/201 203/203/203 204/204/204
f 205/205/205 207/207/207 208/208/208
f 207/207/207 205/205/205 206/206/206
f 209/209/209 211/211/211 212/212/212
f 211/211/211 209/209/209 210/210/210
