# Wavefront .OBJ file for tesselated shape: PART6copy-1 path: C:\Users\Melen\Desktop\SOLIDWORKS\PART6copy.SLDPRT

g body_1
v 0.446120 2.540000 0.346670
v 0.446120 0.000000 0.346670
v 0.518418 0.000000 0.346670
v 0.518418 2.540000 0.346670
v 0.518418 2.540000 -0.129838
v 0.446120 2.540000 -0.129838
v 0.446120 2.540000 0.346670
v 0.518418 2.540000 0.346670
v 0.518418 2.540000 -0.129838
v 0.518418 0.000000 -0.129838
v 0.446120 0.000000 -0.129838
v 0.446120 2.540000 -0.129838
v 0.518418 0.000000 0.346670
v 0.446120 0.000000 0.346670
v 0.446120 0.000000 -0.129838
v 0.518418 0.000000 -0.129838
v 0.446120 2.540000 0.346670
v 0.446120 2.540000 -0.129838
v 0.446120 0.736216 0.037018
v 0.446120 0.000000 -0.129838
v 0.446120 0.260231 0.037018
v 0.446120 0.000000 0.346670
v 0.446120 0.260231 0.295410
v 0.446120 0.736216 0.295410
v 0.518418 2.540000 0.346670
v 0.518418 0.736216 0.295410
v 0.518418 0.736216 0.037018
v 0.518418 0.000000 0.346670
v 0.518418 0.260231 0.295410
v 0.518418 0.000000 -0.129838
v 0.518418 0.260231 0.037018
v 0.518418 2.540000 -0.129838
v 0.518418 0.736216 0.037018
v 0.446120 0.736216 0.037018
v 0.446120 0.260231 0.037018
v 0.518418 0.260231 0.037018
v 0.518418 0.736216 0.037018
v 0.518418 0.736216 0.295410
v 0.446120 0.736216 0.295410
v 0.446120 0.736216 0.037018
v 0.446120 0.736216 0.295410
v 0.518418 0.736216 0.295410
v 0.518418 0.260231 0.295410
v 0.446120 0.260231 0.295410
v 0.518418 0.260231 0.295410
v 0.518418 0.260231 0.037018
v 0.446120 0.260231 0.037018
v 0.446120 0.260231 0.295410
vn 0.000 0.000 1.000
vn 0.000 0.000 1.000
vn 0.000 0.000 1.000
vn 0.000 0.000 1.000
vn 0.000 1.000 0.000
vn 0.000 1.000 0.000
vn 0.000 1.000 0.000
vn 0.000 1.000 0.000
vn 0.000 0.000 -1.000
vn 0.000 0.000 -1.000
vn 0.000 0.000 -1.000
vn 0.000 0.000 -1.000
vn 0.000 -1.000 0.000
vn 0.000 -1.000 0.000
vn 0.000 -1.000 0.000
vn 0.000 -1.000 0.000
vn -1.000 0.000 0.000
vn -1.000 0.000 0.000
vn -1.000 0.000 0.000
vn -1.000 0.000 0.000
vn -1.000 0.000 0.000
vn -1.000 0.000 0.000
vn -1.000 0.000 0.000
vn -1.000 0.000 0.000
vn 1.000 0.000 0.000
vn 1.000 0.000 0.000
vn 1.000 0.000 0.000
vn 1.000 0.000 0.000
vn 1.000 0.000 0.000
vn 1.000 0.000 0.000
vn 1.000 0.000 0.000
vn 1.000 0.000 0.000
vn 0.000 0.000 1.000
vn 0.000 0.000 1.000
vn 0.000 0.000 1.000
vn 0.000 0.000 1.000
vn 0.000 -1.000 0.000
vn 0.000 -1.000 0.000
vn 0.000 -1.000 0.000
vn 0.000 -1.000 0.000
vn 0.000 0.000 -1.000
vn 0.000 0.000 -1.000
vn 0.000 0.000 -1.000
vn 0.000 0.000 -1.000
vn 0.000 1.000 0.000
vn 0.000 1.000 0.000
vn 0.000 1.000 0.000
vn 0.000 1.000 0.000
vt 0.0000 0.0000 0
vt 0.0000 -2.5400 0
vt -0.0723 -2.5400 0
vt -0.0723 0.0000 0
vt -0.1298 0.5184 0
vt -0.1298 0.4461 0
vt 0.3467 0.4461 0
vt 0.3467 0.5184 0
vt 0.0723 0.0000 0
vt 0.0723 -2.5400 0
vt 0.0000 -2.5400 0
vt 0.0000 0.0000 0
vt 0.3467 0.5184 0
vt 0.3467 0.4461 0
vt -0.1298 0.4461 0
vt -0.1298 0.5184 0
vt -0.4765 0.0000 0
vt 0.0000 0.0000 0
vt -0.1669 -1.8038 0
vt 0.0000 -2.5400 0
vt -0.1669 -2.2798 0
vt -0.4765 -2.5400 0
vt -0.4252 -2.2798 0
vt -0.4252 -1.8038 0
vt 0.4765 0.0000 0
vt 0.4252 -1.8038 0
vt 0.1669 -1.8038 0
vt 0.4765 -2.5400 0
vt 0.4252 -2.2798 0
vt 0.0000 -2.5400 0
vt 0.1669 -2.2798 0
vt 0.0000 0.0000 0
vt 0.1817 0.0000 0
vt 0.2540 0.0000 0
vt 0.2540 -0.4760 0
vt 0.1817 -0.4760 0
vt 0.0000 -0.1817 0
vt 0.2584 -0.1817 0
vt 0.2584 -0.2540 0
vt 0.0000 -0.2540 0
vt -0.2540 0.0000 0
vt -0.1817 0.0000 0
vt -0.1817 -0.4760 0
vt -0.2540 -0.4760 0
vt -0.2584 -0.1817 0
vt 0.0000 -0.1817 0
vt 0.0000 -0.2540 0
vt -0.2584 -0.2540 0
f 22/22/22 21/21/21 20/20/20
f 22/22/22 24/24/24 23/23/23
f 20/20/20 19/19/19 18/18/18
f 24/24/24 22/22/22 17/17/17
f 21/21/21 22/22/22 23/23/23
f 19/19/19 20/20/20 21/21/21
f 19/19/19 17/17/17 18/18/18
f 17/17/17 19/19/19 24/24/24
f 1/1/1 3/3/3 4/4/4
f 3/3/3 1/1/1 2/2/2
f 28/28/28 26/26/26 25/25/25
f 27/27/27 25/25/25 26/26/26
f 25/25/25 27/27/27 32/32/32
f 30/30/30 27/27/27 31/31/31
f 27/27/27 30/30/30 32/32/32
f 28/28/28 31/31/31 29/29/29
f 31/31/31 28/28/28 30/30/30
f 26/26/26 28/28/28 29/29/29
f 9/9/9 11/11/11 12/12/12
f 11/11/11 9/9/9 10/10/10
f 7/7/7 5/5/5 6/6/6
f 5/5/5 7/7/7 8/8/8
f 15/15/15 13/13/13 14/14/14
f 13/13/13 15/15/15 16/16/16
f 35/35/35 33/33/33 34/34/34
f 33/33/33 35/35/35 36/36/36
f 37/37/37 39/39/39 40/40/40
f 39/39/39 37/37/37 38/38/38
f 43/43/43 41/41/41 42/42/42
f 41/41/41 43/43/43 44/44/44
f 45/45/45 47/47/47 48/48/48
f 47/47/47 45/45/45 46/46/46
g body_2
v -1.926639 1.857980 0.263397
v -1.926639 1.932659 0.270118
v -1.740652 1.932659 0.270118
v -1.926639 1.785701 0.243449
v -1.740652 1.857980 0.263397
v -1.926639 1.718145 0.210916
v -1.740652 1.785701 0.243449
v -1.926639 1.657484 0.166843
v -1.740652 1.718145 0.210916
v -1.926639 1.605667 0.112647
v -1.740652 1.657484 0.166843
v -1.926639 1.564360 0.050070
v -1.740652 1.605667 0.112647
v -1.926639 1.534891 -0.018877
v -1.740652 1.564360 0.050070
v -1.926639 1.518206 -0.091979
v -1.740652 1.534891 -0.018877
v -1.926639 1.514842 -0.166884
v -1.740652 1.518206 -0.091979
v -1.926639 1.524907 -0.241187
v -1.740652 1.514842 -0.166884
v -1.926639 1.548078 -0.312498
v -1.740652 1.524907 -0.241187
v -1.926639 1.583609 -0.378526
v -1.740652 1.548078 -0.312498
v -1.926639 1.630359 -0.437149
v -1.740652 1.583609 -0.378526
v -1.926639 1.686825 -0.486482
v -1.740652 1.630359 -0.437149
v -1.926639 1.751192 -0.524939
v -1.740652 1.686825 -0.486482
v -1.926639 1.821392 -0.551286
v -1.740652 1.751192 -0.524939
v -1.926639 1.895168 -0.564674
v -1.740652 1.821392 -0.551286
v -1.926639 1.970149 -0.564674
v -1.740652 1.895168 -0.564674
v -1.926639 2.043926 -0.551286
v -1.740652 1.970149 -0.564674
v -1.926639 2.114126 -0.524939
v -1.740652 2.043926 -0.551286
v -1.926639 2.178493 -0.486482
v -1.740652 2.114126 -0.524939
v -1.926639 2.234959 -0.437149
v -1.740652 2.178493 -0.486482
v -1.926639 2.281709 -0.378526
v -1.740652 2.234959 -0.437149
v -1.926639 2.317240 -0.312498
v -1.740652 2.281709 -0.378526
v -1.926639 2.340411 -0.241187
v -1.740652 2.317240 -0.312498
v -1.926639 2.350476 -0.166884
v -1.740652 2.340411 -0.241187
v -1.926639 2.347112 -0.091979
v -1.740652 2.350476 -0.166884
v -1.926639 2.330427 -0.018877
v -1.740652 2.347112 -0.091979
v -1.926639 2.300957 0.050070
v -1.740652 2.330427 -0.018877
v -1.926639 2.259650 0.112647
v -1.740652 2.300957 0.050070
v -1.926639 2.207834 0.166843
v -1.740652 2.259650 0.112647
v -1.926639 2.147173 0.210916
v -1.740652 2.207834 0.166843
v -1.926639 2.079617 0.243449
v -1.740652 2.147173 0.210916
v -1.926639 2.007338 0.263397
v -1.740652 2.079617 0.243449
v -1.740652 2.007338 0.263397
v -1.926639 2.540000 -0.624845
v -1.926639 0.000000 -0.624845
v -1.926639 1.895168 -0.564674
v -1.926639 2.114126 -0.524939
v -1.926639 2.178493 -0.486482
v -1.926639 1.821392 -0.551286
v -1.926639 2.043926 -0.551286
v -1.926639 1.970149 -0.564674
v -1.926639 1.630359 -0.437149
v -1.926639 1.686825 -0.486482
v -1.926639 2.540000 0.376205
v -1.926639 2.350476 -0.166884
v -1.926639 1.751192 -0.524939
v -1.926639 1.583609 -0.378526
v -1.926639 0.000000 0.376205
v -1.926639 1.518206 -0.091979
v -1.926639 1.514842 -0.166884
v -1.926639 2.300957 0.050070
v -1.926639 2.259650 0.112647
v -1.926639 2.347112 -0.091979
v -1.926639 2.317240 -0.312498
v -1.926639 2.340411 -0.241187
v -1.926639 2.234959 -0.437149
v -1.926639 2.281709 -0.378526
v -1.926639 1.785701 0.243449
v -1.926639 1.718145 0.210916
v -1.926639 2.147173 0.210916
v -1.926639 2.079617 0.243449
v -1.926639 2.207834 0.166843
v -1.926639 2.330427 -0.018877
v -1.926639 1.548078 -0.312498
v -1.926639 1.524907 -0.241187
v -1.926639 1.657484 0.166843
v -1.926639 1.605667 0.112647
v -1.926639 1.857980 0.263397
v -1.926639 1.564360 0.050070
v -1.926639 1.534891 -0.018877
v -1.926639 1.932659 0.270118
v -1.926639 2.007338 0.263397
v -1.740652 2.540000 0.376205
v -1.740652 2.347112 -0.091979
v -1.740652 2.350476 -0.166884
v -1.740652 0.000000 -0.624845
v -1.740652 1.686825 -0.486482
v -1.740652 1.630359 -0.437149
v -1.740652 2.540000 -0.624845
v -1.740652 1.970149 -0.564674
v -1.740652 1.895168 -0.564674
v -1.740652 2.317240 -0.312498
v -1.740652 2.281709 -0.378526
v -1.740652 2.340411 -0.241187
v -1.740652 2.330427 -0.018877
v -1.740652 2.207834 0.166843
v -1.740652 2.259650 0.112647
v -1.740652 0.000000 0.376205
v -1.740652 1.657484 0.166843
v -1.740652 1.718145 0.210916
v -1.740652 1.514842 -0.166884
v -1.740652 1.751192 -0.524939
v -1.740652 2.300957 0.050070
v -1.740652 2.147173 0.210916
v -1.740652 2.007338 0.263397
v -1.740652 2.079617 0.243449
v -1.740652 1.857980 0.263397
v -1.740652 1.932659 0.270118
v -1.740652 1.785701 0.243449
v -1.740652 1.564360 0.050070
v -1.740652 1.605667 0.112647
v -1.740652 1.524907 -0.241187
v -1.740652 1.583609 -0.378526
v -1.740652 1.821392 -0.551286
v -1.740652 1.548078 -0.312498
v -1.740652 2.234959 -0.437149
v -1.740652 2.178493 -0.486482
v -1.740652 1.518206 -0.091979
v -1.740652 1.534891 -0.018877
v -1.740652 2.114126 -0.524939
v -1.740652 2.043926 -0.551286
v -1.926639 2.540000 0.376205
v -1.926639 0.000000 0.376205
v -1.740652 0.000000 0.376205
v -1.740652 2.540000 0.376205
v -1.740652 2.540000 -0.624845
v -1.740652 0.000000 -0.624845
v -1.926639 0.000000 -0.624845
v -1.926639 2.540000 -0.624845
v -1.740652 2.540000 -0.624845
v -1.926639 2.540000 -0.624845
v -1.926639 2.540000 0.376205
v -1.740652 2.540000 0.376205
v -1.740652 0.000000 0.376205
v -1.926639 0.000000 0.376205
v -1.926639 0.000000 -0.624845
v -1.740652 0.000000 -0.624845
vn 0.000 0.179 -0.984
vn 0.000 0.000 -1.000
vn 0.000 0.000 -1.000
vn 0.000 0.351 -0.936
vn 0.000 0.179 -0.984
vn 0.000 0.513 -0.858
vn 0.000 0.351 -0.936
vn 0.000 0.658 -0.753
vn 0.000 0.513 -0.858
vn 0.000 0.782 -0.623
vn 0.000 0.658 -0.753
vn 0.000 0.881 -0.474
vn 0.000 0.782 -0.623
vn 0.000 0.951 -0.309
vn 0.000 0.881 -0.474
vn 0.000 0.991 -0.134
vn 0.000 0.951 -0.309
vn 0.000 0.999 0.045
vn 0.000 0.991 -0.134
vn 0.000 0.975 0.223
vn 0.000 0.999 0.045
vn 0.000 0.920 0.393
vn 0.000 0.975 0.223
vn 0.000 0.835 0.551
vn 0.000 0.920 0.393
vn 0.000 0.723 0.691
vn 0.000 0.835 0.551
vn 0.000 0.588 0.809
vn 0.000 0.723 0.691
vn 0.000 0.434 0.901
vn 0.000 0.588 0.809
vn 0.000 0.266 0.964
vn 0.000 0.434 0.901
vn 0.000 0.090 0.996
vn 0.000 0.266 0.964
vn 0.000 -0.090 0.996
vn 0.000 0.090 0.996
vn 0.000 -0.266 0.964
vn 0.000 -0.090 0.996
vn 0.000 -0.434 0.901
vn 0.000 -0.266 0.964
vn 0.000 -0.588 0.809
vn 0.000 -0.434 0.901
vn 0.000 -0.723 0.691
vn 0.000 -0.588 0.809
vn 0.000 -0.835 0.551
vn 0.000 -0.723 0.691
vn 0.000 -0.920 0.393
vn 0.000 -0.835 0.551
vn 0.000 -0.975 0.223
vn 0.000 -0.920 0.393
vn 0.000 -0.999 0.045
vn 0.000 -0.975 0.223
vn 0.000 -0.991 -0.134
vn 0.000 -0.999 0.045
vn 0.000 -0.951 -0.309
vn 0.000 -0.991 -0.134
vn 0.000 -0.881 -0.474
vn 0.000 -0.951 -0.309
vn 0.000 -0.782 -0.623
vn 0.000 -0.881 -0.474
vn 0.000 -0.658 -0.753
vn 0.000 -0.782 -0.623
vn 0.000 -0.513 -0.858
vn 0.000 -0.658 -0.753
vn 0.000 -0.351 -0.936
vn 0.000 -0.513 -0.858
vn 0.000 -0.179 -0.984
vn 0.000 -0.351 -0.936
vn 0.000 -0.179 -0.984
vn -1.000 0.000 0.000
vn -1.000 0.000 0.000
vn -1.000 0.000 0.000
vn -1.000 0.000 0.000
vn -1.000 0.000 0.000
vn -1.000 0.000 0.000
vn -1.000 0.000 0.000
vn -1.000 0.000 0.000
vn -1.000 0.000 0.000
vn -1.000 0.000 0.000
vn -1.000 0.000 0.000
vn -1.000 0.000 0.000
vn -1.000 0.000 0.000
vn -1.000 0.000 0.000
vn -1.000 0.000 0.000
vn -1.000 0.000 0.000
vn -1.000 0.000 0.000
vn -1.000 0.000 0.000
vn -1.000 0.000 0.000
vn -1.000 0.000 0.000
vn -1.000 0.000 0.000
vn -1.000 0.000 0.000
vn -1.000 0.000 0.000
vn -1.000 0.000 0.000
vn -1.000 0.000 0.000
vn -1.000 0.000 0.000
vn -1.000 0.000 0.000
vn -1.000 0.000 0.000
vn -1.000 0.000 0.000
vn -1.000 0.000 0.000
vn -1.000 0.000 0.000
vn -1.000 0.000 0.000
vn -1.000 0.000 0.000
vn -1.000 0.000 0.000
vn -1.000 0.000 0.000
vn -1.000 0.000 0.000
vn -1.000 0.000 0.000
vn -1.000 0.000 0.000
vn -1.000 0.000 0.000
vn 1.000 0.000 0.000
vn 1.000 0.000 0.000
vn 1.000 0.000 0.000
vn 1.000 0.000 0.000
vn 1.000 0.000 0.000
vn 1.000 0.000 0.000
vn 1.000 0.000 0.000
vn 1.000 0.000 0.000
vn 1.000 0.000 0.000
vn 1.000 0.000 0.000
vn 1.000 0.000 0.000
vn 1.000 0.000 0.000
vn 1.000 0.000 0.000
vn 1.000 0.000 0.000
vn 1.000 0.000 0.000
vn 1.000 0.000 0.000
vn 1.000 0.000 0.000
vn 1.000 0.000 0.000
vn 1.000 0.000 0.000
vn 1.000 0.000 0.000
vn 1.000 0.000 0.000
vn 1.000 0.000 0.000
vn 1.000 0.000 0.000
vn 1.000 0.000 0.000
vn 1.000 0.000 0.000
vn 1.000 0.000 0.000
vn 1.000 0.000 0.000
vn 1.000 0.000 0.000
vn 1.000 0.000 0.000
vn 1.000 0.000 0.000
vn 1.000 0.000 0.000
vn 1.000 0.000 0.000
vn 1.000 0.000 0.000
vn 1.000 0.000 0.000
vn 1.000 0.000 0.000
vn 1.000 0.000 0.000
vn 1.000 0.000 0.000
vn 1.000 0.000 0.000
vn 1.000 0.000 0.000
vn 0.000 0.000 1.000
vn 0.000 0.000 1.000
vn 0.000 0.000 1.000
vn 0.000 0.000 1.000
vn 0.000 0.000 -1.000
vn 0.000 0.000 -1.000
vn 0.000 0.000 -1.000
vn 0.000 0.000 -1.000
vn 0.000 1.000 0.000
vn 0.000 1.000 0.000
vn 0.000 1.000 0.000
vn 0.000 1.000 0.000
vn 0.000 -1.000 0.000
vn 0.000 -1.000 0.000
vn 0.000 -1.000 0.000
vn 0.000 -1.000 0.000
vt -0.1795 0.2540 0
vt 0.0000 0.2540 0
vt 0.0000 0.0680 0
vt 5.9241 0.2540 0
vt -0.1795 0.0680 0
vt 5.7446 0.2540 0
vt 5.9241 0.0680 0
vt 5.5651 0.2540 0
vt 5.7446 0.0680 0
vt 5.3856 0.2540 0
vt 5.5651 0.0680 0
vt 5.2061 0.2540 0
vt 5.3856 0.0680 0
vt 5.0265 0.2540 0
vt 5.2061 0.0680 0
vt 4.8470 0.2540 0
vt 5.0265 0.0680 0
vt 4.6675 0.2540 0
vt 4.8470 0.0680 0
vt 4.4880 0.2540 0
vt 4.6675 0.0680 0
vt 4.3085 0.2540 0
vt 4.4880 0.0680 0
vt 4.1290 0.2540 0
vt 4.3085 0.0680 0
vt 3.9494 0.2540 0
vt 4.1290 0.0680 0
vt 3.7699 0.2540 0
vt 3.9494 0.0680 0
vt 3.5904 0.2540 0
vt 3.7699 0.0680 0
vt 3.4109 0.2540 0
vt 3.5904 0.0680 0
vt 3.2314 0.2540 0
vt 3.4109 0.0680 0
vt 3.0518 0.2540 0
vt 3.2314 0.0680 0
vt 2.8723 0.2540 0
vt 3.0518 0.0680 0
vt 2.6928 0.2540 0
vt 2.8723 0.0680 0
vt 2.5133 0.2540 0
vt 2.6928 0.0680 0
vt 2.3338 0.2540 0
vt 2.5133 0.0680 0
vt 2.1542 0.2540 0
vt 2.3338 0.0680 0
vt 1.9747 0.2540 0
vt 2.1542 0.0680 0
vt 1.7952 0.2540 0
vt 1.9747 0.0680 0
vt 1.6157 0.2540 0
vt 1.7952 0.0680 0
vt 1.4362 0.2540 0
vt 1.6157 0.0680 0
vt 1.2566 0.2540 0
vt 1.4362 0.0680 0
vt 1.0771 0.2540 0
vt 1.2566 0.0680 0
vt 0.8976 0.2540 0
vt 1.0771 0.0680 0
vt 0.7181 0.2540 0
vt 0.8976 0.0680 0
vt 0.5386 0.2540 0
vt 0.7181 0.0680 0
vt 0.3590 0.2540 0
vt 0.5386 0.0680 0
vt 0.1795 0.2540 0
vt 0.3590 0.0680 0
vt 0.1795 0.0680 0
vt 0.0000 0.0000 0
vt 0.0000 -2.5400 0
vt -0.0602 -0.6448 0
vt -0.0999 -0.4259 0
vt -0.1384 -0.3615 0
vt -0.0736 -0.7186 0
vt -0.0736 -0.4961 0
vt -0.0602 -0.5699 0
vt -0.1877 -0.9096 0
vt -0.1384 -0.8532 0
vt -1.0010 0.0000 0
vt -0.4580 -0.1895 0
vt -0.0999 -0.7888 0
vt -0.2463 -0.9564 0
vt -1.0010 -2.5400 0
vt -0.5329 -1.0218 0
vt -0.4580 -1.0252 0
vt -0.6749 -0.2390 0
vt -0.7375 -0.2803 0
vt -0.5329 -0.1929 0
vt -0.3123 -0.2228 0
vt -0.3837 -0.1996 0
vt -0.1877 -0.3050 0
vt -0.2463 -0.2583 0
vt -0.8683 -0.7543 0
vt -0.8358 -0.8219 0
vt -0.8358 -0.3928 0
vt -0.8683 -0.4604 0
vt -0.7917 -0.3322 0
vt -0.6060 -0.2096 0
vt -0.3123 -0.9919 0
vt -0.3837 -1.0151 0
vt -0.7917 -0.8825 0
vt -0.7375 -0.9343 0
vt -0.8882 -0.6820 0
vt -0.6749 -0.9756 0
vt -0.6060 -1.0051 0
vt -0.8950 -0.6073 0
vt -0.8882 -0.5327 0
vt 1.0010 0.0000 0
vt 0.5329 -0.1929 0
vt 0.4580 -0.1895 0
vt 0.0000 -2.5400 0
vt 0.1384 -0.8532 0
vt 0.1877 -0.9096 0
vt 0.0000 0.0000 0
vt 0.0602 -0.5699 0
vt 0.0602 -0.6448 0
vt 0.3123 -0.2228 0
vt 0.2463 -0.2583 0
vt 0.3837 -0.1996 0
vt 0.6060 -0.2096 0
vt 0.7917 -0.3322 0
vt 0.7375 -0.2803 0
vt 1.0010 -2.5400 0
vt 0.7917 -0.8825 0
vt 0.8358 -0.8219 0
vt 0.4580 -1.0252 0
vt 0.0999 -0.7888 0
vt 0.6749 -0.2390 0
vt 0.8358 -0.3928 0
vt 0.8882 -0.5327 0
vt 0.8683 -0.4604 0
vt 0.8882 -0.6820 0
vt 0.8950 -0.6073 0
vt 0.8683 -0.7543 0
vt 0.6749 -0.9756 0
vt 0.7375 -0.9343 0
vt 0.3837 -1.0151 0
vt 0.2463 -0.9564 0
vt 0.0736 -0.7186 0
vt 0.3123 -0.9919 0
vt 0.1877 -0.3050 0
vt 0.1384 -0.3615 0
vt 0.5329 -1.0218 0
vt 0.6060 -1.0051 0
vt 0.0999 -0.4259 0
vt 0.0736 -0.4961 0
vt 0.0000 0.0000 0
vt 0.0000 -2.5400 0
vt -0.1860 -2.5400 0
vt -0.1860 0.0000 0
vt 0.1860 0.0000 0
vt 0.1860 -2.5400 0
vt 0.0000 -2.5400 0
vt 0.0000 0.0000 0
vt -0.6248 -1.7407 0
vt -0.6248 -1.9266 0
vt 0.3762 -1.9266 0
vt 0.3762 -1.7407 0
vt 0.3762 -1.7407 0
vt 0.3762 -1.9266 0
vt -0.6248 -1.9266 0
vt -0.6248 -1.7407 0
f 121/121/121 120/120/120 124/124/124
f 122/122/122 119/119/119 125/125/125
f 119/119/119 121/121/121 126/126/126
f 119/119/119 126/126/126 125/125/125
f 128/128/128 120/120/120 127/127/127
f 130/130/130 129/129/129 119/119/119
f 123/123/123 119/119/119 122/122/122
f 127/127/127 120/120/120 132/132/132
f 135/135/135 133/133/133 134/134/134
f 137/137/137 129/129/129 136/136/136
f 129/129/129 130/130/130 138/138/138
f 140/140/140 119/119/119 139/139/139
f 142/142/142 119/119/119 141/141/141
f 120/120/120 128/128/128 131/131/131
f 133/133/133 135/135/135 120/120/120
f 144/144/144 133/133/133 143/143/143
f 146/146/146 129/129/129 145/145/145
f 129/129/129 137/137/137 147/147/147
f 129/129/129 138/138/138 148/148/148
f 119/119/119 142/142/142 139/139/139
f 132/132/132 120/120/120 149/149/149
f 120/120/120 135/135/135 150/150/150
f 152/152/152 133/133/133 151/151/151
f 143/143/143 133/133/133 153/153/153
f 129/129/129 147/147/147 145/145/145
f 119/119/119 140/140/140 130/130/130
f 120/120/120 150/150/150 149/149/149
f 155/155/155 133/133/133 154/154/154
f 133/133/133 144/144/144 151/151/151
f 156/156/156 133/133/133 129/129/129
f 129/129/129 148/148/148 136/136/136
f 133/133/133 155/155/155 134/134/134
f 133/133/133 156/156/156 153/153/153
f 129/129/129 146/146/146 157/157/157
f 133/133/133 152/152/152 154/154/154
f 119/119/119 123/123/123 141/141/141
f 129/129/129 157/157/157 156/156/156
f 121/121/121 119/119/119 120/120/120
f 124/124/124 120/120/120 131/131/131
f 197/197/197 199/199/199 200/200/200
f 199/199/199 197/197/197 198/198/198
f 169/169/169 164/164/164 160/160/160
f 163/163/163 161/161/161 162/162/162
f 172/172/172 158/158/158 171/171/171
f 175/175/175 173/173/173 174/174/174
f 176/176/176 173/173/173 161/161/161
f 162/162/162 161/161/161 177/177/177
f 164/164/164 166/166/166 161/161/161
f 164/164/164 169/169/169 167/167/167
f 170/170/170 158/158/158 178/178/178
f 171/171/171 158/158/158 179/179/179
f 181/181/181 158/158/158 180/180/180
f 183/183/183 173/173/173 182/182/182
f 173/173/173 175/175/175 184/184/184
f 186/186/186 173/173/173 185/185/185
f 176/176/176 161/161/161 187/187/187
f 161/161/161 163/163/163 188/188/188
f 161/161/161 166/166/166 189/189/189
f 168/168/168 164/164/164 167/167/167
f 158/158/158 181/181/181 179/179/179
f 173/173/173 183/183/183 158/158/158
f 173/173/173 186/186/186 174/174/174
f 187/187/187 161/161/161 190/190/190
f 161/161/161 189/189/189 177/177/177
f 192/192/192 164/164/164 191/191/191
f 158/158/158 172/172/172 178/178/178
f 173/173/173 184/184/184 182/182/182
f 194/194/194 173/173/173 193/193/193
f 161/161/161 188/188/188 190/190/190
f 164/164/164 192/192/192 195/195/195
f 158/158/158 183/183/183 180/180/180
f 173/173/173 176/176/176 193/193/193
f 164/164/164 195/195/195 196/196/196
f 173/173/173 194/194/194 185/185/185
f 164/164/164 168/168/168 191/191/191
f 164/164/164 196/196/196 165/165/165
f 158/158/158 160/160/160 164/164/164
f 166/166/166 164/164/164 165/165/165
f 160/160/160 158/158/158 159/159/159
f 159/159/159 158/158/158 170/170/170
f 203/203/203 201/201/201 202/202/202
f 201/201/201 203/203/203 204/204/204
f 205/205/205 207/207/207 208/208/208
f 207/207/207 205/205/205 206/206/206
f 211/211/211 209/209/209 210/210/210
f 209/209/209 211/211/211 212/212/212
f 51/51/51 49/49/49 50/50/50
f 53/53/53 52/52/52 49/49/49
f 55/55/55 54/54/54 52/52/52
f 57/57/57 56/56/56 54/54/54
f 59/59/59 58/58/58 56/56/56
f 61/61/61 60/60/60 58/58/58
f 63/63/63 62/62/62 60/60/60
f 65/65/65 64/64/64 62/62/62
f 67/67/67 66/66/66 64/64/64
f 69/69/69 68/68/68 66/66/66
f 71/71/71 70/70/70 68/68/68
f 73/73/73 72/72/72 70/70/70
f 75/75/75 74/74/74 72/72/72
f 77/77/77 76/76/76 74/74/74
f 79/79/79 78/78/78 76/76/76
f 81/81/81 80/80/80 78/78/78
f 83/83/83 82/82/82 80/80/80
f 85/85/85 84/84/84 82/82/82
f 87/87/87 86/86/86 84/84/84
f 89/89/89 88/88/88 86/86/86
f 91/91/91 90/90/90 88/88/88
f 93/93/93 92/92/92 90/90/90
f 95/95/95 94/94/94 92/92/92
f 97/97/97 96/96/96 94/94/94
f 99/99/99 98/98/98 96/96/96
f 101/101/101 100/100/100 98/98/98
f 103/103/103 102/102/102 100/100/100
f 105/105/105 104/104/104 102/102/102
f 107/107/107 106/106/106 104/104/104
f 109/109/109 108/108/108 106/106/106
f 111/111/111 110/110/110 108/108/108
f 113/113/113 112/112/112 110/110/110
f 115/115/115 114/114/114 112/112/112
f 117/117/117 116/116/116 114/114/114
f 118/118/118 50/50/50 116/116/116
f 50/50/50 118/118/118 51/51/51
f 116/116/116 117/117/117 118/118/118
f 114/114/114 115/115/115 117/117/117
f 112/112/112 113/113/113 115/115/115
f 110/110/110 111/111/111 113/113/113
f 108/108/108 109/109/109 111/111/111
f 106/106/106 107/107/107 109/109/109
f 104/104/104 105/105/105 107/107/107
f 102/102/102 103/103/103 105/105/105
f 100/100/100 101/101/101 103/103/103
f 98/98/98 99/99/99 101/101/101
f 96/96/96 97/97/97 99/99/99
f 94/94/94 95/95/95 97/97/97
f 92/92/92 93/93/93 95/95/95
f 90/90/90 91/91/91 93/93/93
f 88/88/88 89/89/89 91/91/91
f 86/86/86 87/87/87 89/89/89
f 84/84/84 85/85/85 87/87/87
f 82/82/82 83/83/83 85/85/85
f 80/80/80 81/81/81 83/83/83
f 78/78/78 79/79/79 81/81/81
f 76/76/76 77/77/77 79/79/79
f 74/74/74 75/75/75 77/77/77
f 72/72/72 73/73/73 75/75/75
f 70/70/70 71/71/71 73/73/73
f 68/68/68 69/69/69 71/71/71
f 66/66/66 67/67/67 69/69/69
f 64/64/64 65/65/65 67/67/67
f 62/62/62 63/63/63 65/65/65
f 60/60/60 61/61/61 63/63/63
f 58/58/58 59/59/59 61/61/61
f 56/56/56 57/57/57 59/59/59
f 54/54/54 55/55/55 57/57/57
f 52/52/52 53/53/53 55/55/55
f 49/49/49 51/51/51 53/53/53
g body_3
v -0.747056 0.549222 -0.024119
v -0.775381 0.549222 -0.024119
v -0.775381 0.654619 -0.024119
v -0.747056 0.654619 -0.024119
v -0.747056 0.654619 0.107832
v -0.747056 0.654619 -0.024119
v -0.775381 0.654619 -0.024119
v -0.775381 0.654619 0.107832
v -0.747056 1.191802 0.107832
v -0.747056 0.654619 0.107832
v -0.775381 0.654619 0.107832
v -0.775381 1.191802 0.107832
v -0.747056 1.191802 -0.024119
v -0.747056 1.191802 0.107832
v -0.775381 1.191802 0.107832
v -0.775381 1.191802 -0.024119
v -0.747056 1.191802 -0.024119
v -0.775381 1.191802 -0.024119
v -0.775381 1.307399 -0.024119
v -0.747056 1.307399 -0.024119
v -0.747056 1.307399 0.107832
v -0.747056 1.307399 -0.024119
v -0.775381 1.307399 -0.024119
v -0.775381 1.307399 0.107832
v -0.747056 1.827583 0.107832
v -0.747056 1.307399 0.107832
v -0.775381 1.307399 0.107832
v -0.775381 1.827583 0.107832
v -0.747056 1.827583 -0.024119
v -0.747056 1.827583 0.107832
v -0.775381 1.827583 0.107832
v -0.775381 1.827583 -0.024119
v -0.775381 2.540000 -0.024119
v -0.747056 2.540000 -0.024119
v -0.747056 1.827583 -0.024119
v -0.775381 1.827583 -0.024119
v -0.747056 2.540000 -0.024119
v -0.775381 2.540000 -0.024119
v -0.775381 2.540000 0.324629
v -0.747056 2.540000 0.324629
v -0.775381 2.540000 0.324629
v -0.775381 0.000000 0.324629
v -0.747056 0.000000 0.324629
v -0.747056 2.540000 0.324629
v -0.747056 0.000000 0.324629
v -0.775381 0.000000 0.324629
v -0.775381 0.000000 -0.024119
v -0.747056 0.000000 -0.024119
v -0.747056 0.000000 -0.024119
v -0.775381 0.000000 -0.024119
v -0.775381 0.124235 -0.024119
v -0.747056 0.124235 -0.024119
v -0.775381 2.540000 0.324629
v -0.775381 1.191802 0.107832
v -0.775381 0.654619 0.107832
v -0.775381 1.307399 0.107832
v -0.775381 0.549222 -0.024119
v -0.775381 0.549222 0.107832
v -0.775381 1.827583 0.107832
v -0.775381 1.191802 -0.024119
v -0.775381 0.000000 -0.024119
v -0.775381 0.000000 0.324629
v -0.775381 0.124235 0.107832
v -0.775381 0.654619 -0.024119
v -0.775381 2.540000 -0.024119
v -0.775381 1.827583 -0.024119
v -0.775381 1.307399 -0.024119
v -0.775381 0.124235 -0.024119
v -0.747056 2.540000 -0.024119
v -0.747056 2.540000 0.324629
v -0.747056 1.827583 0.107832
v -0.747056 0.000000 0.324629
v -0.747056 1.307399 0.107832
v -0.747056 1.191802 -0.024119
v -0.747056 1.307399 -0.024119
v -0.747056 0.654619 0.107832
v -0.747056 1.191802 0.107832
v -0.747056 0.549222 -0.024119
v -0.747056 0.654619 -0.024119
v -0.747056 0.124235 0.107832
v -0.747056 0.549222 0.107832
v -0.747056 0.000000 -0.024119
v -0.747056 0.124235 -0.024119
v -0.747056 1.827583 -0.024119
v -0.747056 0.549222 0.107832
v -0.747056 0.124235 0.107832
v -0.775381 0.124235 0.107832
v -0.775381 0.549222 0.107832
v -0.747056 0.549222 -0.024119
v -0.747056 0.549222 0.107832
v -0.775381 0.549222 0.107832
v -0.775381 0.549222 -0.024119
v -0.747056 0.124235 0.107832
v -0.747056 0.124235 -0.024119
v -0.775381 0.124235 -0.024119
v -0.775381 0.124235 0.107832
vn 0.000 0.000 -1.000
vn 0.000 0.000 -1.000
vn 0.000 0.000 -1.000
vn 0.000 0.000 -1.000
vn 0.000 1.000 0.000
vn 0.000 1.000 0.000
vn 0.000 1.000 0.000
vn 0.000 1.000 0.000
vn 0.000 0.000 -1.000
vn 0.000 0.000 -1.000
vn 0.000 0.000 -1.000
vn 0.000 0.000 -1.000
vn 0.000 -1.000 0.000
vn 0.000 -1.000 0.000
vn 0.000 -1.000 0.000
vn 0.000 -1.000 0.000
vn 0.000 0.000 -1.000
vn 0.000 0.000 -1.000
vn 0.000 0.000 -1.000
vn 0.000 0.000 -1.000
vn 0.000 1.000 0.000
vn 0.000 1.000 0.000
vn 0.000 1.000 0.000
vn 0.000 1.000 0.000
vn 0.000 0.000 -1.000
vn 0.000 0.000 -1.000
vn 0.000 0.000 -1.000
vn 0.000 0.000 -1.000
vn 0.000 -1.000 0.000
vn 0.000 -1.000 0.000
vn 0.000 -1.000 0.000
vn 0.000 -1.000 0.000
vn 0.000 0.000 -1.000
vn 0.000 0.000 -1.000
vn 0.000 0.000 -1.000
vn 0.000 0.000 -1.000
vn 0.000 1.000 0.000
vn 0.000 1.000 0.000
vn 0.000 1.000 0.000
vn 0.000 1.000 0.000
vn 0.000 0.000 1.000
vn 0.000 0.000 1.000
vn 0.000 0.000 1.000
vn 0.000 0.000 1.000
vn 0.000 -1.000 0.000
vn 0.000 -1.000 0.000
vn 0.000 -1.000 0.000
vn 0.000 -1.000 0.000
vn 0.000 0.000 -1.000
vn 0.000 0.000 -1.000
vn 0.000 0.000 -1.000
vn 0.000 0.000 -1.000
vn -1.000 0.000 0.000
vn -1.000 0.000 0.000
vn -1.000 0.000 0.000
vn -1.000 0.000 0.000
vn -1.000 0.000 0.000
vn -1.000 0.000 0.000
vn -1.000 0.000 0.000
vn -1.000 0.000 0.000
vn -1.000 0.000 0.000
vn -1.000 0.000 0.000
vn -1.000 0.000 0.000
vn -1.000 0.000 0.000
vn -1.000 0.000 0.000
vn -1.000 0.000 0.000
vn -1.000 0.000 0.000
vn -1.000 0.000 0.000
vn 1.000 0.000 0.000
vn 1.000 0.000 0.000
vn 1.000 0.000 0.000
vn 1.000 0.000 0.000
vn 1.000 0.000 0.000
vn 1.000 0.000 0.000
vn 1.000 0.000 0.000
vn 1.000 0.000 0.000
vn 1.000 0.000 0.000
vn 1.000 0.000 0.000
vn 1.000 0.000 0.000
vn 1.000 0.000 0.000
vn 1.000 0.000 0.000
vn 1.000 0.000 0.000
vn 1.000 0.000 0.000
vn 1.000 0.000 0.000
vn 0.000 0.000 -1.000
vn 0.000 0.000 -1.000
vn 0.000 0.000 -1.000
vn 0.000 0.000 -1.000
vn 0.000 -1.000 0.000
vn 0.000 -1.000 0.000
vn 0.000 -1.000 0.000
vn 0.000 -1.000 0.000
vn 0.000 1.000 0.000
vn 0.000 1.000 0.000
vn 0.000 1.000 0.000
vn 0.000 1.000 0.000
vt 0.0283 -1.9908 0
vt 0.0000 -1.9908 0
vt 0.0000 -1.8854 0
vt 0.0283 -1.8854 0
vt -0.1320 -0.2257 0
vt 0.0000 -0.2257 0
vt 0.0000 -0.2540 0
vt -0.1320 -0.2540 0
vt -0.2257 0.0000 0
vt -0.2257 -0.5372 0
vt -0.2540 -0.5372 0
vt -0.2540 0.0000 0
vt 0.0000 -0.2257 0
vt 0.1320 -0.2257 0
vt 0.1320 -0.2540 0
vt 0.0000 -0.2540 0
vt 0.0283 -1.3482 0
vt 0.0000 -1.3482 0
vt 0.0000 -1.2326 0
vt 0.0283 -1.2326 0
vt -0.1320 -0.2257 0
vt 0.0000 -0.2257 0
vt 0.0000 -0.2540 0
vt -0.1320 -0.2540 0
vt -0.2257 0.0000 0
vt -0.2257 -0.5202 0
vt -0.2540 -0.5202 0
vt -0.2540 0.0000 0
vt 0.0000 -0.2257 0
vt 0.1320 -0.2257 0
vt 0.1320 -0.2540 0
vt 0.0000 -0.2540 0
vt 0.0000 0.0000 0
vt 0.0283 0.0000 0
vt 0.0283 -0.7124 0
vt 0.0000 -0.7124 0
vt 0.0241 -0.7471 0
vt 0.0241 -0.7754 0
vt -0.3246 -0.7754 0
vt -0.3246 -0.7471 0
vt 0.0000 0.0000 0
vt 0.0000 -2.5400 0
vt -0.0283 -2.5400 0
vt -0.0283 0.0000 0
vt -0.3246 -0.7471 0
vt -0.3246 -0.7754 0
vt 0.0241 -0.7754 0
vt 0.0241 -0.7471 0
vt 0.0283 -2.5400 0
vt 0.0000 -2.5400 0
vt 0.0000 -2.4158 0
vt 0.0283 -2.4158 0
vt 0.0000 0.0000 0
vt 0.2168 -1.3482 0
vt 0.2168 -1.8854 0
vt 0.2168 -1.2326 0
vt 0.3487 -1.9908 0
vt 0.2168 -1.9908 0
vt 0.2168 -0.7124 0
vt 0.3487 -1.3482 0
vt 0.3487 -2.5400 0
vt 0.0000 -2.5400 0
vt 0.2168 -2.4158 0
vt 0.3487 -1.8854 0
vt 0.3487 0.0000 0
vt 0.3487 -0.7124 0
vt 0.3487 -1.2326 0
vt 0.3487 -2.4158 0
vt -0.3487 0.0000 0
vt 0.0000 0.0000 0
vt -0.2168 -0.7124 0
vt 0.0000 -2.5400 0
vt -0.2168 -1.2326 0
vt -0.3487 -1.3482 0
vt -0.3487 -1.2326 0
vt -0.2168 -1.8854 0
vt -0.2168 -1.3482 0
vt -0.3487 -1.9908 0
vt -0.3487 -1.8854 0
vt -0.2168 -2.4158 0
vt -0.2168 -1.9908 0
vt -0.3487 -2.5400 0
vt -0.3487 -2.4158 0
vt -0.3487 -0.7124 0
vt -0.2257 0.0000 0
vt -0.2257 -0.4250 0
vt -0.2540 -0.4250 0
vt -0.2540 0.0000 0
vt 0.0000 -0.2257 0
vt 0.1320 -0.2257 0
vt 0.1320 -0.2540 0
vt 0.0000 -0.2540 0
vt -0.1320 -0.2257 0
vt 0.0000 -0.2257 0
vt 0.0000 -0.2540 0
vt -0.1320 -0.2540 0
f 213/213/213 215/215/215 216/216/216
f 215/215/215 213/213/213 214/214/214
f 229/229/229 231/231/231 232/232/232
f 231/231/231 229/229/229 230/230/230
f 247/247/247 245/245/245 246/246/246
f 245/245/245 247/247/247 248/248/248
f 275/275/275 273/273/273 274/274/274
f 273/273/273 275/275/275 280/280/280
f 272/272/272 268/268/268 279/279/279
f 277/277/277 271/271/271 265/265/265
f 267/267/267 265/265/265 266/266/266
f 266/266/266 265/265/265 268/268/268
f 267/267/267 269/269/269 270/270/270
f 268/268/268 265/265/265 271/271/271
f 274/274/274 270/270/270 275/275/275
f 265/265/265 267/267/267 270/270/270
f 268/268/268 272/272/272 266/266/266
f 270/270/270 274/274/274 265/265/265
f 269/269/269 267/267/267 276/276/276
f 271/271/271 277/277/277 278/278/278
f 255/255/255 253/253/253 254/254/254
f 253/253/253 255/255/255 256/256/256
f 284/284/284 293/293/293 288/288/288
f 286/286/286 285/285/285 289/289/289
f 290/290/290 288/288/288 293/293/293
f 283/283/283 281/281/281 282/282/282
f 292/292/292 294/294/294 295/295/295
f 288/288/288 290/290/290 291/291/291
f 284/284/284 289/289/289 285/285/285
f 282/282/282 285/285/285 283/283/283
f 289/289/289 284/284/284 288/288/288
f 285/285/285 286/286/286 287/287/287
f 294/294/294 292/292/292 284/284/284
f 293/293/293 284/284/284 292/292/292
f 281/281/281 283/283/283 296/296/296
f 285/285/285 282/282/282 284/284/284
f 263/263/263 261/261/261 262/262/262
f 261/261/261 263/263/263 264/264/264
f 249/249/249 251/251/251 252/252/252
f 251/251/251 249/249/249 250/250/250
f 257/257/257 259/259/259 260/260/260
f 259/259/259 257/257/257 258/258/258
f 237/237/237 239/239/239 240/240/240
f 239/239/239 237/237/237 238/238/238
f 243/243/243 241/241/241 242/242/242
f 241/241/241 243/243/243 244/244/244
f 235/235/235 233/233/233 234/234/234
f 233/233/233 235/235/235 236/236/236
f 223/223/223 221/221/221 222/222/222
f 221/221/221 223/223/223 224/224/224
f 227/227/227 225/225/225 226/226/226
f 225/225/225 227/227/227 228/228/228
f 217/217/217 219/219/219 220/220/220
f 219/219/219 217/217/217 218/218/218
f 297/297/297 299/299/299 300/300/300
f 299/299/299 297/297/297 298/298/298
f 303/303/303 301/301/301 302/302/302
f 301/301/301 303/303/303 304/304/304
f 307/307/307 305/305/305 306/306/306
f 305/305/305 307/307/307 308/308/308
g body_4
v -0.907866 2.540000 -0.341798
v -0.907866 0.000000 -0.341798
v -0.907866 0.000000 -0.085097
v -0.907866 2.540000 -0.085097
v -0.907866 2.540000 -0.085097
v -0.907866 0.000000 -0.085097
v -0.599825 0.000000 -0.085097
v -0.599825 2.540000 -0.085097
v -0.599825 2.540000 -0.085097
v -0.599825 0.000000 -0.085097
v -0.599825 0.000000 -0.341798
v -0.599825 2.540000 -0.341798
v -0.599825 2.540000 -0.341798
v -0.599825 0.000000 -0.341798
v -0.907866 0.000000 -0.341798
v -0.907866 2.540000 -0.341798
v -0.599825 2.540000 -0.341798
v -0.907866 2.540000 -0.341798
v -0.907866 2.540000 -0.085097
v -0.599825 2.540000 -0.085097
v -0.599825 0.000000 -0.085097
v -0.907866 0.000000 -0.085097
v -0.907866 0.000000 -0.341798
v -0.599825 0.000000 -0.341798
vn -1.000 0.000 0.000
vn -1.000 0.000 0.000
vn -1.000 0.000 0.000
vn -1.000 0.000 0.000
vn 0.000 0.000 1.000
vn 0.000 0.000 1.000
vn 0.000 0.000 1.000
vn 0.000 0.000 1.000
vn 1.000 0.000 0.000
vn 1.000 0.000 0.000
vn 1.000 0.000 0.000
vn 1.000 0.000 0.000
vn 0.000 0.000 -1.000
vn 0.000 0.000 -1.000
vn 0.000 0.000 -1.000
vn 0.000 0.000 -1.000
vn 0.000 1.000 0.000
vn 0.000 1.000 0.000
vn 0.000 1.000 0.000
vn 0.000 1.000 0.000
vn 0.000 -1.000 0.000
vn 0.000 -1.000 0.000
vn 0.000 -1.000 0.000
vn 0.000 -1.000 0.000
vt 0.0000 0.0000 0
vt 0.0000 -2.5400 0
vt -0.2567 -2.5400 0
vt -0.2567 0.0000 0
vt 0.0000 0.0000 0
vt 0.0000 -2.5400 0
vt -0.3080 -2.5400 0
vt -0.3080 0.0000 0
vt 0.2567 0.0000 0
vt 0.2567 -2.5400 0
vt 0.0000 -2.5400 0
vt 0.0000 0.0000 0
vt 0.3080 0.0000 0
vt 0.3080 -2.5400 0
vt 0.0000 -2.5400 0
vt 0.0000 0.0000 0
vt -0.3418 -0.5998 0
vt -0.3418 -0.9079 0
vt -0.0851 -0.9079 0
vt -0.0851 -0.5998 0
vt -0.0851 -0.5998 0
vt -0.0851 -0.9079 0
vt -0.3418 -0.9079 0
vt -0.3418 -0.5998 0
f 309/309/309 311/311/311 312/312/312
f 311/311/311 309/309/309 310/310/310
f 313/313/313 315/315/315 316/316/316
f 315/315/315 313/313/313 314/314/314
f 317/317/317 319/319/319 320/320/320
f 319/319/319 317/317/317 318/318/318
f 323/323/323 321/321/321 322/322/322
f 321/321/321 323/323/323 324/324/324
f 325/325/325 327/327/327 328/328/328
f 327/327/327 325/325/325 326/326/326
f 331/331/331 329/329/329 330/330/330
f 329/329/329 331/331/331 332/332/332
g body_5
v 0.820564 2.540000 0.081790
v 0.820564 0.000000 0.081790
v 0.953898 0.000000 0.081790
v 0.953898 2.540000 0.081790
v 0.953898 2.540000 -0.605392
v 0.820564 2.540000 -0.605392
v 0.820564 2.540000 0.081790
v 0.953898 2.540000 0.081790
v 0.953898 2.540000 -0.605392
v 0.953898 0.000000 -0.605392
v 0.820564 0.000000 -0.605392
v 0.820564 2.540000 -0.605392
v 0.953898 0.000000 0.081790
v 0.820564 0.000000 0.081790
v 0.820564 0.000000 -0.605392
v 0.953898 0.000000 -0.605392
v 0.820564 2.540000 0.081790
v 0.820564 2.540000 -0.605392
v 0.820564 1.896022 -0.516698
v 0.820564 0.000000 -0.605392
v 0.820564 1.235497 -0.516698
v 0.820564 0.000000 0.081790
v 0.820564 1.235497 0.032751
v 0.820564 1.896022 0.032751
v 0.953898 2.540000 0.081790
v 0.953898 1.896022 0.032751
v 0.953898 1.896022 -0.516698
v 0.953898 0.000000 0.081790
v 0.953898 1.235497 0.032751
v 0.953898 0.000000 -0.605392
v 0.953898 1.235497 -0.516698
v 0.953898 2.540000 -0.605392
v 0.953898 1.235497 -0.516698
v 0.953898 1.896022 -0.516698
v 0.820564 1.896022 -0.516698
v 0.820564 1.235497 -0.516698
v 0.953898 1.896022 -0.516698
v 0.953898 1.896022 0.032751
v 0.820564 1.896022 0.032751
v 0.820564 1.896022 -0.516698
v 0.953898 1.896022 0.032751
v 0.953898 1.235497 0.032751
v 0.820564 1.235497 0.032751
v 0.820564 1.896022 0.032751
v 0.953898 1.235497 0.032751
v 0.953898 1.235497 -0.516698
v 0.820564 1.235497 -0.516698
v 0.820564 1.235497 0.032751
vn 0.000 0.000 1.000
vn 0.000 0.000 1.000
vn 0.000 0.000 1.000
vn 0.000 0.000 1.000
vn 0.000 1.000 0.000
vn 0.000 1.000 0.000
vn 0.000 1.000 0.000
vn 0.000 1.000 0.000
vn 0.000 0.000 -1.000
vn 0.000 0.000 -1.000
vn 0.000 0.000 -1.000
vn 0.000 0.000 -1.000
vn 0.000 -1.000 0.000
vn 0.000 -1.000 0.000
vn 0.000 -1.000 0.000
vn 0.000 -1.000 0.000
vn -1.000 0.000 0.000
vn -1.000 0.000 0.000
vn -1.000 0.000 0.000
vn -1.000 0.000 0.000
vn -1.000 0.000 0.000
vn -1.000 0.000 0.000
vn -1.000 0.000 0.000
vn -1.000 0.000 0.000
vn 1.000 0.000 0.000
vn 1.000 0.000 0.000
vn 1.000 0.000 0.000
vn 1.000 0.000 0.000
vn 1.000 0.000 0.000
vn 1.000 0.000 0.000
vn 1.000 0.000 0.000
vn 1.000 0.000 0.000
vn 0.000 0.000 1.000
vn 0.000 0.000 1.000
vn 0.000 0.000 1.000
vn 0.000 0.000 1.000
vn 0.000 -1.000 0.000
vn 0.000 -1.000 0.000
vn 0.000 -1.000 0.000
vn 0.000 -1.000 0.000
vn 0.000 0.000 -1.000
vn 0.000 0.000 -1.000
vn 0.000 0.000 -1.000
vn 0.000 0.000 -1.000
vn 0.000 1.000 0.000
vn 0.000 1.000 0.000
vn 0.000 1.000 0.000
vn 0.000 1.000 0.000
vt 0.0000 0.0000 0
vt 0.0000 -2.5400 0
vt -0.1333 -2.5400 0
vt -0.1333 0.0000 0
vt -0.6054 0.9539 0
vt -0.6054 0.8206 0
vt 0.0818 0.8206 0
vt 0.0818 0.9539 0
vt 0.1333 0.0000 0
vt 0.1333 -2.5400 0
vt 0.0000 -2.5400 0
vt 0.0000 0.0000 0
vt 0.0818 0.9539 0
vt 0.0818 0.8206 0
vt -0.6054 0.8206 0
vt -0.6054 0.9539 0
vt -0.6872 0.0000 0
vt 0.0000 0.0000 0
vt -0.0887 -0.6440 0
vt 0.0000 -2.5400 0
vt -0.0887 -1.3045 0
vt -0.6872 -2.5400 0
vt -0.6381 -1.3045 0
vt -0.6381 -0.6440 0
vt 0.6872 0.0000 0
vt 0.6381 -0.6440 0
vt 0.0887 -0.6440 0
vt 0.6872 -2.5400 0
vt 0.6381 -1.3045 0
vt 0.0000 -2.5400 0
vt 0.0887 -1.3045 0
vt 0.0000 0.0000 0
vt 0.1207 -0.6605 0
vt 0.1207 0.0000 0
vt 0.2540 0.0000 0
vt 0.2540 -0.6605 0
vt 0.0000 -0.1207 0
vt 0.5494 -0.1207 0
vt 0.5494 -0.2540 0
vt 0.0000 -0.2540 0
vt 0.0000 -0.1207 0
vt 0.6605 -0.1207 0
vt 0.6605 -0.2540 0
vt 0.0000 -0.2540 0
vt -0.5494 -0.1207 0
vt 0.0000 -0.1207 0
vt 0.0000 -0.2540 0
vt -0.5494 -0.2540 0
f 354/354/354 353/353/353 352/352/352
f 351/351/351 349/349/349 350/350/350
f 349/349/349 351/351/351 356/356/356
f 353/353/353 350/350/350 352/352/352
f 353/353/353 354/354/354 355/355/355
f 355/355/355 349/349/349 356/356/356
f 350/350/350 353/353/353 351/351/351
f 349/349/349 355/355/355 354/354/354
f 335/335/335 333/333/333 334/334/334
f 333/333/333 335/335/335 336/336/336
f 359/359/359 357/357/357 358/358/358
f 361/361/361 357/357/357 360/360/360
f 357/357/357 361/361/361 358/358/358
f 363/363/363 360/360/360 362/362/362
f 360/360/360 363/363/363 361/361/361
f 363/363/363 364/364/364 359/359/359
f 364/364/364 363/363/363 362/362/362
f 357/357/357 359/359/359 364/364/364
f 343/343/343 341/341/341 342/342/342
f 341/341/341 343/343/343 344/344/344
f 339/339/339 337/337/337 338/338/338
f 337/337/337 339/339/339 340/340/340
f 347/347/347 345/345/345 346/346/346
f 345/345/345 347/347/347 348/348/348
f 365/365/365 367/367/367 368/368/368
f 367/367/367 365/365/365 366/366/366
f 371/371/371 369/369/369 370/370/370
f 369/369/369 371/371/371 372/372/372
f 373/373/373 375/375/375 376/376/376
f 375/375/375 373/373/373 374/374/374
f 377/377/377 379/379/379 380/380/380
f 379/379/379 377/377/377 378/378/378
g body_6
v 0.446120 2.540000 0.346670
v 0.446120 0.000000 0.346670
v 0.518418 0.000000 0.346670
v 0.518418 2.540000 0.346670
v 0.518418 2.540000 -0.129838
v 0.446120 2.540000 -0.129838
v 0.446120 2.540000 0.346670
v 0.518418 2.540000 0.346670
v 0.518418 2.540000 -0.129838
v 0.518418 0.000000 -0.129838
v 0.446120 0.000000 -0.129838
v 0.446120 2.540000 -0.129838
v 0.518418 0.000000 0.346670
v 0.446120 0.000000 0.346670
v 0.446120 0.000000 -0.129838
v 0.518418 0.000000 -0.129838
v 0.446120 2.540000 0.346670
v 0.446120 2.540000 -0.129838
v 0.446120 0.736216 0.037018
v 0.446120 0.000000 -0.129838
v 0.446120 0.260231 0.037018
v 0.446120 0.000000 0.346670
v 0.446120 0.260231 0.295410
v 0.446120 0.736216 0.295410
v 0.518418 2.540000 0.346670
v 0.518418 0.736216 0.295410
v 0.518418 0.736216 0.037018
v 0.518418 0.000000 0.346670
v 0.518418 0.260231 0.295410
v 0.518418 0.000000 -0.129838
v 0.518418 0.260231 0.037018
v 0.518418 2.540000 -0.129838
v 0.518418 0.736216 0.037018
v 0.446120 0.736216 0.037018
v 0.446120 0.260231 0.037018
v 0.518418 0.260231 0.037018
v 0.518418 0.736216 0.037018
v 0.518418 0.736216 0.295410
v 0.446120 0.736216 0.295410
v 0.446120 0.736216 0.037018
v 0.446120 0.736216 0.295410
v 0.518418 0.736216 0.295410
v 0.518418 0.260231 0.295410
v 0.446120 0.260231 0.295410
v 0.518418 0.260231 0.295410
v 0.518418 0.260231 0.037018
v 0.446120 0.260231 0.037018
v 0.446120 0.260231 0.295410
vn 0.000 0.000 1.000
vn 0.000 0.000 1.000
vn 0.000 0.000 1.000
vn 0.000 0.000 1.000
vn 0.000 1.000 0.000
vn 0.000 1.000 0.000
vn 0.000 1.000 0.000
vn 0.000 1.000 0.000
vn 0.000 0.000 -1.000
vn 0.000 0.000 -1.000
vn 0.000 0.000 -1.000
vn 0.000 0.000 -1.000
vn 0.000 -1.000 0.000
vn 0.000 -1.000 0.000
vn 0.000 -1.000 0.000
vn 0.000 -1.000 0.000
vn -1.000 0.000 0.000
vn -1.000 0.000 0.000
vn -1.000 0.000 0.000
vn -1.000 0.000 0.000
vn -1.000 0.000 0.000
vn -1.000 0.000 0.000
vn -1.000 0.000 0.000
vn -1.000 0.000 0.000
vn 1.000 0.000 0.000
vn 1.000 0.000 0.000
vn 1.000 0.000 0.000
vn 1.000 0.000 0.000
vn 1.000 0.000 0.000
vn 1.000 0.000 0.000
vn 1.000 0.000 0.000
vn 1.000 0.000 0.000
vn 0.000 0.000 1.000
vn 0.000 0.000 1.000
vn 0.000 0.000 1.000
vn 0.000 0.000 1.000
vn 0.000 -1.000 0.000
vn 0.000 -1.000 0.000
vn 0.000 -1.000 0.000
vn 0.000 -1.000 0.000
vn 0.000 0.000 -1.000
vn 0.000 0.000 -1.000
vn 0.000 0.000 -1.000
vn 0.000 0.000 -1.000
vn 0.000 1.000 0.000
vn 0.000 1.000 0.000
vn 0.000 1.000 0.000
vn 0.000 1.000 0.000
vt 0.0000 0.0000 0
vt 0.0000 -2.5400 0
vt -0.0723 -2.5400 0
vt -0.0723 0.0000 0
vt -0.1298 0.5184 0
vt -0.1298 0.4461 0
vt 0.3467 0.4461 0
vt 0.3467 0.5184 0
vt 0.0723 0.0000 0
vt 0.0723 -2.5400 0
vt 0.0000 -2.5400 0
vt 0.0000 0.0000 0
vt 0.3467 0.5184 0
vt 0.3467 0.4461 0
vt -0.1298 0.4461 0
vt -0.1298 0.5184 0
vt -0.4765 0.0000 0
vt 0.0000 0.0000 0
vt -0.1669 -1.8038 0
vt 0.0000 -2.5400 0
vt -0.1669 -2.2798 0
vt -0.4765 -2.5400 0
vt -0.4252 -2.2798 0
vt -0.4252 -1.8038 0
vt 0.4765 0.0000 0
vt 0.4252 -1.8038 0
vt 0.1669 -1.8038 0
vt 0.4765 -2.5400 0
vt 0.4252 -2.2798 0
vt 0.0000 -2.5400 0
vt 0.1669 -2.2798 0
vt 0.0000 0.0000 0
vt 0.1817 0.0000 0
vt 0.2540 0.0000 0
vt 0.2540 -0.4760 0
vt 0.1817 -0.4760 0
vt 0.0000 -0.1817 0
vt 0.2584 -0.1817 0
vt 0.2584 -0.2540 0
vt 0.0000 -0.2540 0
vt -0.2540 0.0000 0
vt -0.1817 0.0000 0
vt -0.1817 -0.4760 0
vt -0.2540 -0.4760 0
vt -0.2584 -0.1817 0
vt 0.0000 -0.1817 0
vt 0.0000 -0.2540 0
vt -0.2584 -0.2540 0
f 402/402/402 401/401/401 400/400/400
f 399/399/399 397/397/397 398/398/398
f 397/397/397 399/399/399 404/404/404
f 399/399/399 400/400/400 401/401/401
f 401/401/401 402/402/402 403/403/403
f 404/404/404 402/402/402 397/397/397
f 400/400/400 399/399/399 398/398/398
f 402/402/402 404/404/404 403/403/403
f 383/383/383 381/381/381 382/382/382
f 381/381/381 383/383/383 384/384/384
f 407/407/407 405/405/405 406/406/406
f 406/406/406 408/408/408 409/409/409
f 408/408/408 406/406/406 405/405/405
f 411/411/411 408/408/408 410/410/410
f 408/408/408 411/411/411 409/409/409
f 407/407/407 410/410/410 412/412/412
f 410/410/410 407/407/407 411/411/411
f 405/405/405 407/407/407 412/412/412
f 391/391/391 389/389/389 390/390/390
f 389/389/389 391/391/391 392/392/392
f 387/387/387 385/385/385 386/386/386
f 385/385/385 387/387/387 388/388/388
f 395/395/395 393/393/393 394/394/394
f 393/393/393 395/395/395 396/396/396
f 413/413/413 415/415/415 416/416/416
f 415/415/415 413/413/413 414/414/414
f 419/419/419 417/417/417 418/418/418
f 417/417/417 419/419/419 420/420/420
f 421/421/421 423/423/423 424/424/424
f 423/423/423 421/421/421 422/422/422
f 425/425/425 427/427/427 428/428/428
f 427/427/427 425/425/425 426/426/426
g body_7
v 0.820564 2.540000 0.081790
v 0.820564 0.000000 0.081790
v 0.953898 0.000000 0.081790
v 0.953898 2.540000 0.081790
v 0.953898 2.540000 -0.605392
v 0.820564 2.540000 -0.605392
v 0.820564 2.540000 0.081790
v 0.953898 2.540000 0.081790
v 0.953898 2.540000 -0.605392
v 0.953898 0.000000 -0.605392
v 0.820564 0.000000 -0.605392
v 0.820564 2.540000 -0.605392
v 0.953898 0.000000 0.081790
v 0.820564 0.000000 0.081790
v 0.820564 0.000000 -0.605392
v 0.953898 0.000000 -0.605392
v 0.820564 2.540000 0.081790
v 0.820564 2.540000 -0.605392
v 0.820564 1.896022 -0.516698
v 0.820564 0.000000 -0.605392
v 0.820564 1.235497 -0.516698
v 0.820564 0.000000 0.081790
v 0.820564 1.235497 0.032751
v 0.820564 1.896022 0.032751
v 0.953898 2.540000 0.081790
v 0.953898 1.896022 0.032751
v 0.953898 1.896022 -0.516698
v 0.953898 0.000000 0.081790
v 0.953898 1.235497 0.032751
v 0.953898 0.000000 -0.605392
v 0.953898 1.235497 -0.516698
v 0.953898 2.540000 -0.605392
v 0.953898 1.235497 -0.516698
v 0.953898 1.896022 -0.516698
v 0.820564 1.896022 -0.516698
v 0.820564 1.235497 -0.516698
v 0.953898 1.896022 -0.516698
v 0.953898 1.896022 0.032751
v 0.820564 1.896022 0.032751
v 0.820564 1.896022 -0.516698
v 0.953898 1.896022 0.032751
v 0.953898 1.235497 0.032751
v 0.820564 1.235497 0.032751
v 0.820564 1.896022 0.032751
v 0.953898 1.235497 0.032751
v 0.953898 1.235497 -0.516698
v 0.820564 1.235497 -0.516698
v 0.820564 1.235497 0.032751
vn 0.000 0.000 1.000
vn 0.000 0.000 1.000
vn 0.000 0.000 1.000
vn 0.000 0.000 1.000
vn 0.000 1.000 0.000
vn 0.000 1.000 0.000
vn 0.000 1.000 0.000
vn 0.000 1.000 0.000
vn 0.000 0.000 -1.000
vn 0.000 0.000 -1.000
vn 0.000 0.000 -1.000
vn 0.000 0.000 -1.000
vn 0.000 -1.000 0.000
vn 0.000 -1.000 0.000
vn 0.000 -1.000 0.000
vn 0.000 -1.000 0.000
vn -1.000 0.000 0.000
vn -1.000 0.000 0.000
vn -1.000 0.000 0.000
vn -1.000 0.000 0.000
vn -1.000 0.000 0.000
vn -1.000 0.000 0.000
vn -1.000 0.000 0.000
vn -1.000 0.000 0.000
vn 1.000 0.000 0.000
vn 1.000 0.000 0.000
vn 1.000 0.000 0.000
vn 1.000 0.000 0.000
vn 1.000 0.000 0.000
vn 1.000 0.000 0.000
vn 1.000 0.000 0.000
vn 1.000 0.000 0.000
vn 0.000 0.000 1.000
vn 0.000 0.000 1.000
vn 0.000 0.000 1.000
vn 0.000 0.000 1.000
vn 0.000 -1.000 0.000
vn 0.000 -1.000 0.000
vn 0.000 -1.000 0.000
vn 0.000 -1.000 0.000
vn 0.000 0.000 -1.000
vn 0.000 0.000 -1.000
vn 0.000 0.000 -1.000
vn 0.000 0.000 -1.000
vn 0.000 1.000 0.000
vn 0.000 1.000 0.000
vn 0.000 1.000 0.000
vn 0.000 1.000 0.000
vt 0.0000 0.0000 0
vt 0.0000 -2.5400 0
vt -0.1333 -2.5400 0
vt -0.1333 0.0000 0
vt -0.6054 0.9539 0
vt -0.6054 0.8206 0
vt 0.0818 0.8206 0
vt 0.0818 0.9539 0
vt 0.1333 0.0000 0
vt 0.1333 -2.5400 0
vt 0.0000 -2.5400 0
vt 0.0000 0.0000 0
vt 0.0818 0.9539 0
vt 0.0818 0.8206 0
vt -0.6054 0.8206 0
vt -0.6054 0.9539 0
vt -0.6872 0.0000 0
vt 0.0000 0.0000 0
vt -0.0887 -0.6440 0
vt 0.0000 -2.5400 0
vt -0.0887 -1.3045 0
vt -0.6872 -2.5400 0
vt -0.6381 -1.3045 0
vt -0.6381 -0.6440 0
vt 0.6872 0.0000 0
vt 0.6381 -0.6440 0
vt 0.0887 -0.6440 0
vt 0.6872 -2.5400 0
vt 0.6381 -1.3045 0
vt 0.0000 -2.5400 0
vt 0.0887 -1.3045 0
vt 0.0000 0.0000 0
vt 0.1207 -0.6605 0
vt 0.1207 0.0000 0
vt 0.2540 0.0000 0
vt 0.2540 -0.6605 0
vt 0.0000 -0.1207 0
vt 0.5494 -0.1207 0
vt 0.5494 -0.2540 0
vt 0.0000 -0.2540 0
vt 0.0000 -0.1207 0
vt 0.6605 -0.1207 0
vt 0.6605 -0.2540 0
vt 0.0000 -0.2540 0
vt -0.5494 -0.1207 0
vt 0.0000 -0.1207 0
vt 0.0000 -0.2540 0
vt -0.5494 -0.2540 0
f 450/450/450 449/449/449 448/448/448
f 445/445/445 451/451/451 450/450/450
f 446/446/446 449/449/449 447/447/447
f 451/451/451 445/445/445 452/452/452
f 449/449/449 450/450/450 451/451/451
f 449/449/449 446/446/446 448/448/448
f 447/447/447 445/445/445 446/446/446
f 445/445/445 447/447/447 452/452/452
f 429/429/429 431/431/431 432/432/432
f 431/431/431 429/429/429 430/430/430
f 453/453/453 457/457/457 454/454/454
f 455/455/455 453/453/453 454/454/454
f 453/453/453 455/455/455 460/460/460
f 460/460/460 459/459/459 458/458/458
f 459/459/459 460/460/460 455/455/455
f 456/456/456 459/459/459 457/457/457
f 459/459/459 456/456/456 458/458/458
f 457/457/457 453/453/453 456/456/456
f 437/437/437 439/439/439 440/440/440
f 439/439/439 437/437/437 438/438/438
f 435/435/435 433/433/433 434/434/434
f 433/433/433 435/435/435 436/436/436
f 443/443/443 441/441/441 442/442/442
f 441/441/441 443/443/443 444/444/444
f 463/463/463 461/461/461 462/462/462
f 461/461/461 463/463/463 464/464/464
f 465/465/465 467/467/467 468/468/468
f 467/467/467 465/465/465 466/466/466
f 471/471/471 469/469/469 470/470/470
f 469/469/469 471/471/471 472/472/472
f 473/473/473 475/475/475 476/476/476
f 475/475/475 473/473/473 474/474/474
g body_8
v -1.926639 1.857980 0.263397
v -1.926639 1.932659 0.270118
v -1.740652 1.932659 0.270118
v -1.926639 1.785701 0.243449
v -1.740652 1.857980 0.263397
v -1.926639 1.718145 0.210916
v -1.740652 1.785701 0.243449
v -1.926639 1.657484 0.166843
v -1.740652 1.718145 0.210916
v -1.926639 1.605667 0.112647
v -1.740652 1.657484 0.166843
v -1.926639 1.564360 0.050070
v -1.740652 1.605667 0.112647
v -1.926639 1.534891 -0.018877
v -1.740652 1.564360 0.050070
v -1.926639 1.518206 -0.091979
v -1.740652 1.534891 -0.018877
v -1.926639 1.514842 -0.166884
v -1.740652 1.518206 -0.091979
v -1.926639 1.524907 -0.241187
v -1.740652 1.514842 -0.166884
v -1.926639 1.548078 -0.312498
v -1.740652 1.524907 -0.241187
v -1.926639 1.583609 -0.378526
v -1.740652 1.548078 -0.312498
v -1.926639 1.630359 -0.437149
v -1.740652 1.583609 -0.378526
v -1.926639 1.686825 -0.486482
v -1.740652 1.630359 -0.437149
v -1.926639 1.751192 -0.524939
v -1.740652 1.686825 -0.486482
v -1.926639 1.821392 -0.551286
v -1.740652 1.751192 -0.524939
v -1.926639 1.895168 -0.564674
v -1.740652 1.821392 -0.551286
v -1.926639 1.970149 -0.564674
v -1.740652 1.895168 -0.564674
v -1.926639 2.043926 -0.551286
v -1.740652 1.970149 -0.564674
v -1.926639 2.114126 -0.524939
v -1.740652 2.043926 -0.551286
v -1.926639 2.178493 -0.486482
v -1.740652 2.114126 -0.524939
v -1.926639 2.234959 -0.437149
v -1.740652 2.178493 -0.486482
v -1.926639 2.281709 -0.378526
v -1.740652 2.234959 -0.437149
v -1.926639 2.317240 -0.312498
v -1.740652 2.281709 -0.378526
v -1.926639 2.340411 -0.241187
v -1.740652 2.317240 -0.312498
v -1.926639 2.350476 -0.166884
v -1.740652 2.340411 -0.241187
v -1.926639 2.347112 -0.091979
v -1.740652 2.350476 -0.166884
v -1.926639 2.330427 -0.018877
v -1.740652 2.347112 -0.091979
v -1.926639 2.300957 0.050070
v -1.740652 2.330427 -0.018877
v -1.926639 2.259650 0.112647
v -1.740652 2.300957 0.050070
v -1.926639 2.207834 0.166843
v -1.740652 2.259650 0.112647
v -1.926639 2.147173 0.210916
v -1.740652 2.207834 0.166843
v -1.926639 2.079617 0.243449
v -1.740652 2.147173 0.210916
v -1.926639 2.007338 0.263397
v -1.740652 2.079617 0.243449
v -1.740652 2.007338 0.263397
v -1.926639 2.540000 -0.624845
v -1.926639 0.000000 -0.624845
v -1.926639 1.895168 -0.564674
v -1.926639 2.114126 -0.524939
v -1.926639 2.178493 -0.486482
v -1.926639 1.821392 -0.551286
v -1.926639 2.043926 -0.551286
v -1.926639 1.970149 -0.564674
v -1.926639 1.630359 -0.437149
v -1.926639 1.686825 -0.486482
v -1.926639 2.540000 0.376205
v -1.926639 2.350476 -0.166884
v -1.926639 1.751192 -0.524939
v -1.926639 1.583609 -0.378526
v -1.926639 0.000000 0.376205
v -1.926639 1.518206 -0.091979
v -1.926639 1.514842 -0.166884
v -1.926639 2.300957 0.050070
v -1.926639 2.259650 0.112647
v -1.926639 2.347112 -0.091979
v -1.926639 2.317240 -0.312498
v -1.926639 2.340411 -0.241187
v -1.926639 2.234959 -0.437149
v -1.926639 2.281709 -0.378526
v -1.926639 1.785701 0.243449
v -1.926639 1.718145 0.210916
v -1.926639 2.147173 0.210916
v -1.926639 2.079617 0.243449
v -1.926639 2.207834 0.166843
v -1.926639 2.330427 -0.018877
v -1.926639 1.548078 -0.312498
v -1.926639 1.524907 -0.241187
v -1.926639 1.657484 0.166843
v -1.926639 1.605667 0.112647
v -1.926639 1.857980 0.263397
v -1.926639 1.564360 0.050070
v -1.926639 1.534891 -0.018877
v -1.926639 1.932659 0.270118
v -1.926639 2.007338 0.263397
v -1.740652 2.540000 0.376205
v -1.740652 2.347112 -0.091979
v -1.740652 2.350476 -0.166884
v -1.740652 0.000000 -0.624845
v -1.740652 1.686825 -0.486482
v -1.740652 1.630359 -0.437149
v -1.740652 2.540000 -0.624845
v -1.740652 1.970149 -0.564674
v -1.740652 1.895168 -0.564674
v -1.740652 2.317240 -0.312498
v -1.740652 2.281709 -0.378526
v -1.740652 2.340411 -0.241187
v -1.740652 2.330427 -0.018877
v -1.740652 2.207834 0.166843
v -1.740652 2.259650 0.112647
v -1.740652 0.000000 0.376205
v -1.740652 1.657484 0.166843
v -1.740652 1.718145 0.210916
v -1.740652 1.514842 -0.166884
v -1.740652 1.751192 -0.524939
v -1.740652 2.300957 0.050070
v -1.740652 2.147173 0.210916
v -1.740652 2.007338 0.263397
v -1.740652 2.079617 0.243449
v -1.740652 1.857980 0.263397
v -1.740652 1.932659 0.270118
v -1.740652 1.785701 0.243449
v -1.740652 1.564360 0.050070
v -1.740652 1.605667 0.112647
v -1.740652 1.524907 -0.241187
v -1.740652 1.583609 -0.378526
v -1.740652 1.821392 -0.551286
v -1.740652 1.548078 -0.312498
v -1.740652 2.234959 -0.437149
v -1.740652 2.178493 -0.486482
v -1.740652 1.518206 -0.091979
v -1.740652 1.534891 -0.018877
v -1.740652 2.114126 -0.524939
v -1.740652 2.043926 -0.551286
v -1.926639 2.540000 0.376205
v -1.926639 0.000000 0.376205
v -1.740652 0.000000 0.376205
v -1.740652 2.540000 0.376205
v -1.740652 2.540000 -0.624845
v -1.740652 0.000000 -0.624845
v -1.926639 0.000000 -0.624845
v -1.926639 2.540000 -0.624845
v -1.740652 2.540000 -0.624845
v -1.926639 2.540000 -0.624845
v -1.926639 2.540000 0.376205
v -1.740652 2.540000 0.376205
v -1.740652 0.000000 0.376205
v -1.926639 0.000000 0.376205
v -1.926639 0.000000 -0.624845
v -1.740652 0.000000 -0.624845
vn 0.000 0.179 -0.984
vn 0.000 0.000 -1.000
vn 0.000 0.000 -1.000
vn 0.000 0.351 -0.936
vn 0.000 0.179 -0.984
vn 0.000 0.513 -0.858
vn 0.000 0.351 -0.936
vn 0.000 0.658 -0.753
vn 0.000 0.513 -0.858
vn 0.000 0.782 -0.623
vn 0.000 0.658 -0.753
vn 0.000 0.881 -0.474
vn 0.000 0.782 -0.623
vn 0.000 0.951 -0.309
vn 0.000 0.881 -0.474
vn 0.000 0.991 -0.134
vn 0.000 0.951 -0.309
vn 0.000 0.999 0.045
vn 0.000 0.991 -0.134
vn 0.000 0.975 0.223
vn 0.000 0.999 0.045
vn 0.000 0.920 0.393
vn 0.000 0.975 0.223
vn 0.000 0.835 0.551
vn 0.000 0.920 0.393
vn 0.000 0.723 0.691
vn 0.000 0.835 0.551
vn 0.000 0.588 0.809
vn 0.000 0.723 0.691
vn 0.000 0.434 0.901
vn 0.000 0.588 0.809
vn 0.000 0.266 0.964
vn 0.000 0.434 0.901
vn 0.000 0.090 0.996
vn 0.000 0.266 0.964
vn 0.000 -0.090 0.996
vn 0.000 0.090 0.996
vn 0.000 -0.266 0.964
vn 0.000 -0.090 0.996
vn 0.000 -0.434 0.901
vn 0.000 -0.266 0.964
vn 0.000 -0.588 0.809
vn 0.000 -0.434 0.901
vn 0.000 -0.723 0.691
vn 0.000 -0.588 0.809
vn 0.000 -0.835 0.551
vn 0.000 -0.723 0.691
vn 0.000 -0.920 0.393
vn 0.000 -0.835 0.551
vn 0.000 -0.975 0.223
vn 0.000 -0.920 0.393
vn 0.000 -0.999 0.045
vn 0.000 -0.975 0.223
vn 0.000 -0.991 -0.134
vn 0.000 -0.999 0.045
vn 0.000 -0.951 -0.309
vn 0.000 -0.991 -0.134
vn 0.000 -0.881 -0.474
vn 0.000 -0.951 -0.309
vn 0.000 -0.782 -0.623
vn 0.000 -0.881 -0.474
vn 0.000 -0.658 -0.753
vn 0.000 -0.782 -0.623
vn 0.000 -0.513 -0.858
vn 0.000 -0.658 -0.753
vn 0.000 -0.351 -0.936
vn 0.000 -0.513 -0.858
vn 0.000 -0.179 -0.984
vn 0.000 -0.351 -0.936
vn 0.000 -0.179 -0.984
vn -1.000 0.000 0.000
vn -1.000 0.000 0.000
vn -1.000 0.000 0.000
vn -1.000 0.000 0.000
vn -1.000 0.000 0.000
vn -1.000 0.000 0.000
vn -1.000 0.000 0.000
vn -1.000 0.000 0.000
vn -1.000 0.000 0.000
vn -1.000 0.000 0.000
vn -1.000 0.000 0.000
vn -1.000 0.000 0.000
vn -1.000 0.000 0.000
vn -1.000 0.000 0.000
vn -1.000 0.000 0.000
vn -1.000 0.000 0.000
vn -1.000 0.000 0.000
vn -1.000 0.000 0.000
vn -1.000 0.000 0.000
vn -1.000 0.000 0.000
vn -1.000 0.000 0.000
vn -1.000 0.000 0.000
vn -1.000 0.000 0.000
vn -1.000 0.000 0.000
vn -1.000 0.000 0.000
vn -1.000 0.000 0.000
vn -1.000 0.000 0.000
vn -1.000 0.000 0.000
vn -1.000 0.000 0.000
vn -1.000 0.000 0.000
vn -1.000 0.000 0.000
vn -1.000 0.000 0.000
vn -1.000 0.000 0.000
vn -1.000 0.000 0.000
vn -1.000 0.000 0.000
vn -1.000 0.000 0.000
vn -1.000 0.000 0.000
vn -1.000 0.000 0.000
vn -1.000 0.000 0.000
vn 1.000 0.000 0.000
vn 1.000 0.000 0.000
vn 1.000 0.000 0.000
vn 1.000 0.000 0.000
vn 1.000 0.000 0.000
vn 1.000 0.000 0.000
vn 1.000 0.000 0.000
vn 1.000 0.000 0.000
vn 1.000 0.000 0.000
vn 1.000 0.000 0.000
vn 1.000 0.000 0.000
vn 1.000 0.000 0.000
vn 1.000 0.000 0.000
vn 1.000 0.000 0.000
vn 1.000 0.000 0.000
vn 1.000 0.000 0.000
vn 1.000 0.000 0.000
vn 1.000 0.000 0.000
vn 1.000 0.000 0.000
vn 1.000 0.000 0.000
vn 1.000 0.000 0.000
vn 1.000 0.000 0.000
vn 1.000 0.000 0.000
vn 1.000 0.000 0.000
vn 1.000 0.000 0.000
vn 1.000 0.000 0.000
vn 1.000 0.000 0.000
vn 1.000 0.000 0.000
vn 1.000 0.000 0.000
vn 1.000 0.000 0.000
vn 1.000 0.000 0.000
vn 1.000 0.000 0.000
vn 1.000 0.000 0.000
vn 1.000 0.000 0.000
vn 1.000 0.000 0.000
vn 1.000 0.000 0.000
vn 1.000 0.000 0.000
vn 1.000 0.000 0.000
vn 1.000 0.000 0.000
vn 0.000 0.000 1.000
vn 0.000 0.000 1.000
vn 0.000 0.000 1.000
vn 0.000 0.000 1.000
vn 0.000 0.000 -1.000
vn 0.000 0.000 -1.000
vn 0.000 0.000 -1.000
vn 0.000 0.000 -1.000
vn 0.000 1.000 0.000
vn 0.000 1.000 0.000
vn 0.000 1.000 0.000
vn 0.000 1.000 0.000
vn 0.000 -1.000 0.000
vn 0.000 -1.000 0.000
vn 0.000 -1.000 0.000
vn 0.000 -1.000 0.000
vt -0.1795 0.2540 0
vt 0.0000 0.2540 0
vt 0.0000 0.0680 0
vt 5.9241 0.2540 0
vt -0.1795 0.0680 0
vt 5.7446 0.2540 0
vt 5.9241 0.0680 0
vt 5.5651 0.2540 0
vt 5.7446 0.0680 0
vt 5.3856 0.2540 0
vt 5.5651 0.0680 0
vt 5.2061 0.2540 0
vt 5.3856 0.0680 0
vt 5.0265 0.2540 0
vt 5.2061 0.0680 0
vt 4.8470 0.2540 0
vt 5.0265 0.0680 0
vt 4.6675 0.2540 0
vt 4.8470 0.0680 0
vt 4.4880 0.2540 0
vt 4.6675 0.0680 0
vt 4.3085 0.2540 0
vt 4.4880 0.0680 0
vt 4.1290 0.2540 0
vt 4.3085 0.0680 0
vt 3.9494 0.2540 0
vt 4.1290 0.0680 0
vt 3.7699 0.2540 0
vt 3.9494 0.0680 0
vt 3.5904 0.2540 0
vt 3.7699 0.0680 0
vt 3.4109 0.2540 0
vt 3.5904 0.0680 0
vt 3.2314 0.2540 0
vt 3.4109 0.0680 0
vt 3.0518 0.2540 0
vt 3.2314 0.0680 0
vt 2.8723 0.2540 0
vt 3.0518 0.0680 0
vt 2.6928 0.2540 0
vt 2.8723 0.0680 0
vt 2.5133 0.2540 0
vt 2.6928 0.0680 0
vt 2.3338 0.2540 0
vt 2.5133 0.0680 0
vt 2.1542 0.2540 0
vt 2.3338 0.0680 0
vt 1.9747 0.2540 0
vt 2.1542 0.0680 0
vt 1.7952 0.2540 0
vt 1.9747 0.0680 0
vt 1.6157 0.2540 0
vt 1.7952 0.0680 0
vt 1.4362 0.2540 0
vt 1.6157 0.0680 0
vt 1.2566 0.2540 0
vt 1.4362 0.0680 0
vt 1.0771 0.2540 0
vt 1.2566 0.0680 0
vt 0.8976 0.2540 0
vt 1.0771 0.0680 0
vt 0.7181 0.2540 0
vt 0.8976 0.0680 0
vt 0.5386 0.2540 0
vt 0.7181 0.0680 0
vt 0.3590 0.2540 0
vt 0.5386 0.0680 0
vt 0.1795 0.2540 0
vt 0.3590 0.0680 0
vt 0.1795 0.0680 0
vt 0.0000 0.0000 0
vt 0.0000 -2.5400 0
vt -0.0602 -0.6448 0
vt -0.0999 -0.4259 0
vt -0.1384 -0.3615 0
vt -0.0736 -0.7186 0
vt -0.0736 -0.4961 0
vt -0.0602 -0.5699 0
vt -0.1877 -0.9096 0
vt -0.1384 -0.8532 0
vt -1.0010 0.0000 0
vt -0.4580 -0.1895 0
vt -0.0999 -0.7888 0
vt -0.2463 -0.9564 0
vt -1.0010 -2.5400 0
vt -0.5329 -1.0218 0
vt -0.4580 -1.0252 0
vt -0.6749 -0.2390 0
vt -0.7375 -0.2803 0
vt -0.5329 -0.1929 0
vt -0.3123 -0.2228 0
vt -0.3837 -0.1996 0
vt -0.1877 -0.3050 0
vt -0.2463 -0.2583 0
vt -0.8683 -0.7543 0
vt -0.8358 -0.8219 0
vt -0.8358 -0.3928 0
vt -0.8683 -0.4604 0
vt -0.7917 -0.3322 0
vt -0.6060 -0.2096 0
vt -0.3123 -0.9919 0
vt -0.3837 -1.0151 0
vt -0.7917 -0.8825 0
vt -0.7375 -0.9343 0
vt -0.8882 -0.6820 0
vt -0.6749 -0.9756 0
vt -0.6060 -1.0051 0
vt -0.8950 -0.6073 0
vt -0.8882 -0.5327 0
vt 1.0010 0.0000 0
vt 0.5329 -0.1929 0
vt 0.4580 -0.1895 0
vt 0.0000 -2.5400 0
vt 0.1384 -0.8532 0
vt 0.1877 -0.9096 0
vt 0.0000 0.0000 0
vt 0.0602 -0.5699 0
vt 0.0602 -0.6448 0
vt 0.3123 -0.2228 0
vt 0.2463 -0.2583 0
vt 0.3837 -0.1996 0
vt 0.6060 -0.2096 0
vt 0.7917 -0.3322 0
vt 0.7375 -0.2803 0
vt 1.0010 -2.5400 0
vt 0.7917 -0.8825 0
vt 0.8358 -0.8219 0
vt 0.4580 -1.0252 0
vt 0.0999 -0.7888 0
vt 0.6749 -0.2390 0
vt 0.8358 -0.3928 0
vt 0.8882 -0.5327 0
vt 0.8683 -0.4604 0
vt 0.8882 -0.6820 0
vt 0.8950 -0.6073 0
vt 0.8683 -0.7543 0
vt 0.6749 -0.9756 0
vt 0.7375 -0.9343 0
vt 0.3837 -1.0151 0
vt 0.2463 -0.9564 0
vt 0.0736 -0.7186 0
vt 0.3123 -0.9919 0
vt 0.1877 -0.3050 0
vt 0.1384 -0.3615 0
vt 0.5329 -1.0218 0
vt 0.6060 -1.0051 0
vt 0.0999 -0.4259 0
vt 0.0736 -0.4961 0
vt 0.0000 0.0000 0
vt 0.0000 -2.5400 0
vt -0.1860 -2.5400 0
vt -0.1860 0.0000 0
vt 0.1860 0.0000 0
vt 0.1860 -2.5400 0
vt 0.0000 -2.5400 0
vt 0.0000 0.0000 0
vt -0.6248 -1.7407 0
vt -0.6248 -1.9266 0
vt 0.3762 -1.9266 0
vt 0.3762 -1.7407 0
vt 0.3762 -1.7407 0
vt 0.3762 -1.9266 0
vt -0.6248 -1.9266 0
vt -0.6248 -1.7407 0
f 557/557/557 585/585/585 584/584/584
f 547/547/547 551/551/551 569/569/569
f 561/561/561 580/580/580 582/582/582
f 557/557/557 574/574/574 585/585/585
f 561/561/561 584/584/584 581/581/581
f 561/561/561 583/583/583 562/562/562
f 557/557/557 576/576/576 564/564/564
f 584/584/584 561/561/561 557/557/557
f 561/561/561 572/572/572 579/579/579
f 583/583/583 561/561/561 582/582/582
f 548/548/548 578/578/578 577/577/577
f 547/547/547 568/568/568 558/558/558
f 557/557/557 575/575/575 573/573/573
f 571/571/571 561/561/561 581/581/581
f 580/580/580 561/561/561 579/579/579
f 548/548/548 563/563/563 578/578/578
f 560/560/560 548/548/548 577/577/577
f 547/547/547 570/570/570 567/567/567
f 557/557/557 566/566/566 576/576/576
f 557/557/557 565/565/565 575/575/575
f 574/574/574 557/557/557 573/573/573
f 572/572/572 561/561/561 571/571/571
f 561/561/561 563/563/563 548/548/548
f 549/549/549 547/547/547 548/548/548
f 551/551/551 547/547/547 550/550/550
f 549/549/549 548/548/548 552/552/552
f 550/550/550 547/547/547 553/553/553
f 547/547/547 549/549/549 554/554/554
f 547/547/547 554/554/554 553/553/553
f 556/556/556 548/548/548 555/555/555
f 558/558/558 557/557/557 547/547/547
f 552/552/552 548/548/548 559/559/559
f 555/555/555 548/548/548 560/560/560
f 563/563/563 561/561/561 562/562/562
f 565/565/565 557/557/557 564/564/564
f 557/557/557 558/558/558 566/566/566
f 568/568/568 547/547/547 567/567/567
f 570/570/570 547/547/547 569/569/569
f 548/548/548 556/556/556 559/559/559
f 625/625/625 627/627/627 628/628/628
f 627/627/627 625/625/625 626/626/626
f 591/591/591 589/589/589 590/590/590
f 594/594/594 592/592/592 593/593/593
f 592/592/592 624/624/624 593/593/593
f 592/592/592 596/596/596 619/619/619
f 601/601/601 622/622/622 613/613/613
f 592/592/592 623/623/623 624/624/624
f 601/601/601 604/604/604 621/621/621
f 586/586/586 611/611/611 608/608/608
f 592/592/592 620/620/620 623/623/623
f 589/589/589 616/616/616 618/618/618
f 622/622/622 601/601/601 621/621/621
f 601/601/601 612/612/612 610/610/610
f 586/586/586 600/600/600 606/606/606
f 620/620/620 592/592/592 619/619/619
f 589/589/589 617/617/617 605/605/605
f 615/615/615 589/589/589 618/618/618
f 601/601/601 614/614/614 602/602/602
f 601/601/601 611/611/611 586/586/586
f 586/586/586 609/609/609 607/607/607
f 586/586/586 588/588/588 592/592/592
f 589/589/589 594/594/594 617/617/617
f 589/589/589 591/591/591 616/616/616
f 604/604/604 589/589/589 615/615/615
f 614/614/614 601/601/601 613/613/613
f 601/601/601 603/603/603 612/612/612
f 611/611/611 601/601/601 610/610/610
f 609/609/609 586/586/586 608/608/608
f 599/599/599 586/586/586 607/607/607
f 598/598/598 586/586/586 606/606/606
f 592/592/592 597/597/597 595/595/595
f 592/592/592 594/594/594 589/589/589
f 590/590/590 589/589/589 605/605/605
f 604/604/604 601/601/601 589/589/589
f 603/603/603 601/601/601 602/602/602
f 600/600/600 586/586/586 599/599/599
f 587/587/587 586/586/586 598/598/598
f 597/597/597 592/592/592 588/588/588
f 596/596/596 592/592/592 595/595/595
f 588/588/588 586/586/586 587/587/587
f 631/631/631 629/629/629 630/630/630
f 629/629/629 631/631/631 632/632/632
f 633/633/633 635/635/635 636/636/636
f 635/635/635 633/633/633 634/634/634
f 639/639/639 637/637/637 638/638/638
f 637/637/637 639/639/639 640/640/640
f 477/477/477 479/479/479 481/481/481
f 480/480/480 481/481/481 483/483/483
f 482/482/482 483/483/483 485/485/485
f 484/484/484 485/485/485 487/487/487
f 486/486/486 487/487/487 489/489/489
f 488/488/488 489/489/489 491/491/491
f 490/490/490 491/491/491 493/493/493
f 492/492/492 493/493/493 495/495/495
f 494/494/494 495/495/495 497/497/497
f 496/496/496 497/497/497 499/499/499
f 498/498/498 499/499/499 501/501/501
f 500/500/500 501/501/501 503/503/503
f 502/502/502 503/503/503 505/505/505
f 504/504/504 505/505/505 507/507/507
f 506/506/506 507/507/507 509/509/509
f 508/508/508 509/509/509 511/511/511
f 510/510/510 511/511/511 513/513/513
f 512/512/512 513/513/513 515/515/515
f 514/514/514 515/515/515 517/517/517
f 516/516/516 517/517/517 519/519/519
f 518/518/518 519/519/519 521/521/521
f 520/520/520 521/521/521 523/523/523
f 522/522/522 523/523/523 525/525/525
f 524/524/524 525/525/525 527/527/527
f 526/526/526 527/527/527 529/529/529
f 528/528/528 529/529/529 531/531/531
f 530/530/530 531/531/531 533/533/533
f 532/532/532 533/533/533 535/535/535
f 534/534/534 535/535/535 537/537/537
f 536/536/536 537/537/537 539/539/539
f 538/538/538 539/539/539 541/541/541
f 540/540/540 541/541/541 543/543/543
f 542/542/542 543/543/543 545/545/545
f 544/544/544 545/545/545 546/546/546
f 478/478/478 546/546/546 479/479/479
f 546/546/546 478/478/478 544/544/544
f 545/545/545 544/544/544 542/542/542
f 543/543/543 542/542/542 540/540/540
f 541/541/541 540/540/540 538/538/538
f 539/539/539 538/538/538 536/536/536
f 537/537/537 536/536/536 534/534/534
f 535/535/535 534/534/534 532/532/532
f 533/533/533 532/532/532 530/530/530
f 531/531/531 530/530/530 528/528/528
f 529/529/529 528/528/528 526/526/526
f 527/527/527 526/526/526 524/524/524
f 525/525/525 524/524/524 522/522/522
f 523/523/523 522/522/522 520/520/520
f 521/521/521 520/520/520 518/518/518
f 519/519/519 518/518/518 516/516/516
f 517/517/517 516/516/516 514/514/514
f 515/515/515 514/514/514 512/512/512
f 513/513/513 512/512/512 510/510/510
f 511/511/511 510/510/510 508/508/508
f 509/509/509 508/508/508 506/506/506
f 507/507/507 506/506/506 504/504/504
f 505/505/505 504/504/504 502/502/502
f 503/503/503 502/502/502 500/500/500
f 501/501/501 500/500/500 498/498/498
f 499/499/499 498/498/498 496/496/496
f 497/497/497 496/496/496 494/494/494
f 495/495/495 494/494/494 492/492/492
f 493/493/493 492/492/492 490/490/490
f 491/491/491 490/490/490 488/488/488
f 489/489/489 488/488/488 486/486/486
f 487/487/487 486/486/486 484/484/484
f 485/485/485 484/484/484 482/482/482
f 483/483/483 482/482/482 480/480/480
f 481/481/481 480/480/480 477/477/477
f 479/479/479 477/477/477 478/478/478
