# Wavefront .OBJ file for tesselated shape: city_1-1 path: C:\Users\Melen\Desktop\SOLIDWORKS\city_1.SLDPRT

g body_1
v -0.055404 0.254000 0.016102
v -0.055404 0.000000 0.016102
v -0.055404 0.000000 0.058015
v -0.055404 0.254000 0.058015
v -0.055404 0.254000 0.058015
v -0.055404 0.000000 0.058015
v -0.036315 0.000000 0.058015
v -0.036315 0.254000 0.058015
v -0.036315 0.254000 0.058015
v -0.036315 0.000000 0.058015
v -0.036315 0.000000 0.016102
v -0.036315 0.254000 0.016102
v -0.036315 0.254000 0.016102
v -0.036315 0.000000 0.016102
v -0.055404 0.000000 0.016102
v -0.055404 0.254000 0.016102
v -0.036315 0.254000 0.016102
v -0.055404 0.254000 0.016102
v -0.055404 0.254000 0.058015
v -0.036315 0.254000 0.058015
v -0.036315 0.000000 0.058015
v -0.055404 0.000000 0.058015
v -0.055404 0.000000 0.016102
v -0.036315 0.000000 0.016102
vn -1.000 0.000 0.000
vn -1.000 0.000 0.000
vn -1.000 0.000 0.000
vn -1.000 0.000 0.000
vn 0.000 0.000 1.000
vn 0.000 0.000 1.000
vn 0.000 0.000 1.000
vn 0.000 0.000 1.000
vn 1.000 0.000 0.000
vn 1.000 0.000 0.000
vn 1.000 0.000 0.000
vn 1.000 0.000 0.000
vn 0.000 0.000 -1.000
vn 0.000 0.000 -1.000
vn 0.000 0.000 -1.000
vn 0.000 0.000 -1.000
vn 0.000 1.000 0.000
vn 0.000 1.000 0.000
vn 0.000 1.000 0.000
vn 0.000 1.000 0.000
vn 0.000 -1.000 0.000
vn 0.000 -1.000 0.000
vn 0.000 -1.000 0.000
vn 0.000 -1.000 0.000
vt 0.0000 0.0000 0
vt 0.0000 -0.2540 0
vt -0.0419 -0.2540 0
vt -0.0419 0.0000 0
vt 0.0000 0.0000 0
vt 0.0000 -0.2540 0
vt -0.0191 -0.2540 0
vt -0.0191 0.0000 0
vt 0.0419 0.0000 0
vt 0.0419 -0.2540 0
vt 0.0000 -0.2540 0
vt 0.0000 0.0000 0
vt 0.0191 0.0000 0
vt 0.0191 -0.2540 0
vt 0.0000 -0.2540 0
vt 0.0000 0.0000 0
vt 0.0161 -0.0363 0
vt 0.0161 -0.0554 0
vt 0.0580 -0.0554 0
vt 0.0580 -0.0363 0
vt 0.0580 -0.0363 0
vt 0.0580 -0.0554 0
vt 0.0161 -0.0554 0
vt 0.0161 -0.0363 0
f 3/3/3 1/1/1 2/2/2
f 1/1/1 3/3/3 4/4/4
f 7/7/7 5/5/5 6/6/6
f 5/5/5 7/7/7 8/8/8
f 11/11/11 9/9/9 10/10/10
f 9/9/9 11/11/11 12/12/12
f 13/13/13 15/15/15 16/16/16
f 15/15/15 13/13/13 14/14/14
f 17/17/17 19/19/19 20/20/20
f 19/19/19 17/17/17 18/18/18
f 23/23/23 21/21/21 22/22/22
f 21/21/21 23/23/23 24/24/24
g body_2
v 0.041615 0.254000 0.011704
v 0.041615 0.000000 0.011704
v 0.041615 0.000000 0.025229
v 0.041615 0.254000 0.025229
v 0.041615 0.254000 0.025229
v 0.041615 0.000000 0.025229
v 0.052279 0.000000 0.025229
v 0.052279 0.254000 0.025229
v 0.052279 0.254000 0.025229
v 0.052279 0.000000 0.025229
v 0.052279 0.000000 0.011704
v 0.052279 0.254000 0.011704
v 0.052279 0.254000 0.011704
v 0.052279 0.000000 0.011704
v 0.041615 0.000000 0.011704
v 0.041615 0.254000 0.011704
v 0.052279 0.254000 0.011704
v 0.041615 0.254000 0.011704
v 0.041615 0.254000 0.025229
v 0.052279 0.254000 0.025229
v 0.052279 0.000000 0.025229
v 0.041615 0.000000 0.025229
v 0.041615 0.000000 0.011704
v 0.052279 0.000000 0.011704
vn -1.000 0.000 0.000
vn -1.000 0.000 0.000
vn -1.000 0.000 0.000
vn -1.000 0.000 0.000
vn 0.000 0.000 1.000
vn 0.000 0.000 1.000
vn 0.000 0.000 1.000
vn 0.000 0.000 1.000
vn 1.000 0.000 0.000
vn 1.000 0.000 0.000
vn 1.000 0.000 0.000
vn 1.000 0.000 0.000
vn 0.000 0.000 -1.000
vn 0.000 0.000 -1.000
vn 0.000 0.000 -1.000
vn 0.000 0.000 -1.000
vn 0.000 1.000 0.000
vn 0.000 1.000 0.000
vn 0.000 1.000 0.000
vn 0.000 1.000 0.000
vn 0.000 -1.000 0.000
vn 0.000 -1.000 0.000
vn 0.000 -1.000 0.000
vn 0.000 -1.000 0.000
vt 0.0000 0.0000 0
vt 0.0000 -0.2540 0
vt -0.0135 -0.2540 0
vt -0.0135 0.0000 0
vt 0.0000 0.0000 0
vt 0.0000 -0.2540 0
vt -0.0107 -0.2540 0
vt -0.0107 0.0000 0
vt 0.0135 0.0000 0
vt 0.0135 -0.2540 0
vt 0.0000 -0.2540 0
vt 0.0000 0.0000 0
vt 0.0107 0.0000 0
vt 0.0107 -0.2540 0
vt 0.0000 -0.2540 0
vt 0.0000 0.0000 0
vt 0.0117 0.0523 0
vt 0.0117 0.0416 0
vt 0.0252 0.0416 0
vt 0.0252 0.0523 0
vt 0.0252 0.0523 0
vt 0.0252 0.0416 0
vt 0.0117 0.0416 0
vt 0.0117 0.0523 0
f 25/25/25 27/27/27 28/28/28
f 27/27/27 25/25/25 26/26/26
f 29/29/29 31/31/31 32/32/32
f 31/31/31 29/29/29 30/30/30
f 33/33/33 35/35/35 36/36/36
f 35/35/35 33/33/33 34/34/34
f 39/39/39 37/37/37 38/38/38
f 37/37/37 39/39/39 40/40/40
f 41/41/41 43/43/43 44/44/44
f 43/43/43 41/41/41 42/42/42
f 47/47/47 45/45/45 46/46/46
f 45/45/45 47/47/47 48/48/48
g body_3
v 0.010881 0.254000 -0.016263
v 0.010881 0.000000 -0.016263
v 0.010881 0.000000 -0.006502
v 0.010881 0.254000 -0.006502
v 0.010881 0.254000 -0.006502
v 0.010881 0.000000 -0.006502
v 0.021156 0.000000 -0.006502
v 0.021156 0.254000 -0.006502
v 0.021156 0.254000 -0.006502
v 0.021156 0.000000 -0.006502
v 0.021156 0.000000 -0.016263
v 0.021156 0.254000 -0.016263
v 0.021156 0.254000 -0.016263
v 0.021156 0.000000 -0.016263
v 0.010881 0.000000 -0.016263
v 0.010881 0.254000 -0.016263
v 0.021156 0.254000 -0.016263
v 0.010881 0.254000 -0.016263
v 0.010881 0.254000 -0.006502
v 0.021156 0.254000 -0.006502
v 0.021156 0.000000 -0.006502
v 0.010881 0.000000 -0.006502
v 0.010881 0.000000 -0.016263
v 0.021156 0.000000 -0.016263
vn -1.000 0.000 0.000
vn -1.000 0.000 0.000
vn -1.000 0.000 0.000
vn -1.000 0.000 0.000
vn 0.000 0.000 1.000
vn 0.000 0.000 1.000
vn 0.000 0.000 1.000
vn 0.000 0.000 1.000
vn 1.000 0.000 0.000
vn 1.000 0.000 0.000
vn 1.000 0.000 0.000
vn 1.000 0.000 0.000
vn 0.000 0.000 -1.000
vn 0.000 0.000 -1.000
vn 0.000 0.000 -1.000
vn 0.000 0.000 -1.000
vn 0.000 1.000 0.000
vn 0.000 1.000 0.000
vn 0.000 1.000 0.000
vn 0.000 1.000 0.000
vn 0.000 -1.000 0.000
vn 0.000 -1.000 0.000
vn 0.000 -1.000 0.000
vn 0.000 -1.000 0.000
vt 0.0000 0.0000 0
vt 0.0000 -0.2540 0
vt -0.0098 -0.2540 0
vt -0.0098 0.0000 0
vt 0.0000 0.0000 0
vt 0.0000 -0.2540 0
vt -0.0103 -0.2540 0
vt -0.0103 0.0000 0
vt 0.0098 0.0000 0
vt 0.0098 -0.2540 0
vt 0.0000 -0.2540 0
vt 0.0000 0.0000 0
vt 0.0103 0.0000 0
vt 0.0103 -0.2540 0
vt 0.0000 -0.2540 0
vt 0.0000 0.0000 0
vt -0.0163 0.0212 0
vt -0.0163 0.0109 0
vt -0.0065 0.0109 0
vt -0.0065 0.0212 0
vt -0.0065 0.0212 0
vt -0.0065 0.0109 0
vt -0.0163 0.0109 0
vt -0.0163 0.0212 0
f 49/49/49 51/51/51 52/52/52
f 51/51/51 49/49/49 50/50/50
f 53/53/53 55/55/55 56/56/56
f 55/55/55 53/53/53 54/54/54
f 57/57/57 59/59/59 60/60/60
f 59/59/59 57/57/57 58/58/58
f 63/63/63 61/61/61 62/62/62
f 61/61/61 63/63/63 64/64/64
f 65/65/65 67/67/67 68/68/68
f 67/67/67 65/65/65 66/66/66
f 71/71/71 69/69/69 70/70/70
f 69/69/69 71/71/71 72/72/72
g body_4
v -0.055404 0.254000 0.016102
v -0.055404 0.000000 0.016102
v -0.055404 0.000000 0.058015
v -0.055404 0.254000 0.058015
v -0.055404 0.254000 0.058015
v -0.055404 0.000000 0.058015
v -0.036315 0.000000 0.058015
v -0.036315 0.254000 0.058015
v -0.036315 0.254000 0.058015
v -0.036315 0.000000 0.058015
v -0.036315 0.000000 0.016102
v -0.036315 0.254000 0.016102
v -0.036315 0.254000 0.016102
v -0.036315 0.000000 0.016102
v -0.055404 0.000000 0.016102
v -0.055404 0.254000 0.016102
v -0.036315 0.254000 0.016102
v -0.055404 0.254000 0.016102
v -0.055404 0.254000 0.058015
v -0.036315 0.254000 0.058015
v -0.036315 0.000000 0.058015
v -0.055404 0.000000 0.058015
v -0.055404 0.000000 0.016102
v -0.036315 0.000000 0.016102
vn -1.000 0.000 0.000
vn -1.000 0.000 0.000
vn -1.000 0.000 0.000
vn -1.000 0.000 0.000
vn 0.000 0.000 1.000
vn 0.000 0.000 1.000
vn 0.000 0.000 1.000
vn 0.000 0.000 1.000
vn 1.000 0.000 0.000
vn 1.000 0.000 0.000
vn 1.000 0.000 0.000
vn 1.000 0.000 0.000
vn 0.000 0.000 -1.000
vn 0.000 0.000 -1.000
vn 0.000 0.000 -1.000
vn 0.000 0.000 -1.000
vn 0.000 1.000 0.000
vn 0.000 1.000 0.000
vn 0.000 1.000 0.000
vn 0.000 1.000 0.000
vn 0.000 -1.000 0.000
vn 0.000 -1.000 0.000
vn 0.000 -1.000 0.000
vn 0.000 -1.000 0.000
vt 0.0000 0.0000 0
vt 0.0000 -0.2540 0
vt -0.0419 -0.2540 0
vt -0.0419 0.0000 0
vt 0.0000 0.0000 0
vt 0.0000 -0.2540 0
vt -0.0191 -0.2540 0
vt -0.0191 0.0000 0
vt 0.0419 0.0000 0
vt 0.0419 -0.2540 0
vt 0.0000 -0.2540 0
vt 0.0000 0.0000 0
vt 0.0191 0.0000 0
vt 0.0191 -0.2540 0
vt 0.0000 -0.2540 0
vt 0.0000 0.0000 0
vt 0.0161 -0.0363 0
vt 0.0161 -0.0554 0
vt 0.0580 -0.0554 0
vt 0.0580 -0.0363 0
vt 0.0580 -0.0363 0
vt 0.0580 -0.0554 0
vt 0.0161 -0.0554 0
vt 0.0161 -0.0363 0
f 73/73/73 75/75/75 76/76/76
f 75/75/75 73/73/73 74/74/74
f 77/77/77 79/79/79 80/80/80
f 79/79/79 77/77/77 78/78/78
f 81/81/81 83/83/83 84/84/84
f 83/83/83 81/81/81 82/82/82
f 87/87/87 85/85/85 86/86/86
f 85/85/85 87/87/87 88/88/88
f 89/89/89 91/91/91 92/92/92
f 91/91/91 89/89/89 90/90/90
f 95/95/95 93/93/93 94/94/94
f 93/93/93 95/95/95 96/96/96
g body_5
v 0.010881 0.254000 -0.016263
v 0.010881 0.000000 -0.016263
v 0.010881 0.000000 -0.006502
v 0.010881 0.254000 -0.006502
v 0.010881 0.254000 -0.006502
v 0.010881 0.000000 -0.006502
v 0.021156 0.000000 -0.006502
v 0.021156 0.254000 -0.006502
v 0.021156 0.254000 -0.006502
v 0.021156 0.000000 -0.006502
v 0.021156 0.000000 -0.016263
v 0.021156 0.254000 -0.016263
v 0.021156 0.254000 -0.016263
v 0.021156 0.000000 -0.016263
v 0.010881 0.000000 -0.016263
v 0.010881 0.254000 -0.016263
v 0.021156 0.254000 -0.016263
v 0.010881 0.254000 -0.016263
v 0.010881 0.254000 -0.006502
v 0.021156 0.254000 -0.006502
v 0.021156 0.000000 -0.006502
v 0.010881 0.000000 -0.006502
v 0.010881 0.000000 -0.016263
v 0.021156 0.000000 -0.016263
vn -1.000 0.000 0.000
vn -1.000 0.000 0.000
vn -1.000 0.000 0.000
vn -1.000 0.000 0.000
vn 0.000 0.000 1.000
vn 0.000 0.000 1.000
vn 0.000 0.000 1.000
vn 0.000 0.000 1.000
vn 1.000 0.000 0.000
vn 1.000 0.000 0.000
vn 1.000 0.000 0.000
vn 1.000 0.000 0.000
vn 0.000 0.000 -1.000
vn 0.000 0.000 -1.000
vn 0.000 0.000 -1.000
vn 0.000 0.000 -1.000
vn 0.000 1.000 0.000
vn 0.000 1.000 0.000
vn 0.000 1.000 0.000
vn 0.000 1.000 0.000
vn 0.000 -1.000 0.000
vn 0.000 -1.000 0.000
vn 0.000 -1.000 0.000
vn 0.000 -1.000 0.000
vt 0.0000 0.0000 0
vt 0.0000 -0.2540 0
vt -0.0098 -0.2540 0
vt -0.0098 0.0000 0
vt 0.0000 0.0000 0
vt 0.0000 -0.2540 0
vt -0.0103 -0.2540 0
vt -0.0103 0.0000 0
vt 0.0098 0.0000 0
vt 0.0098 -0.2540 0
vt 0.0000 -0.2540 0
vt 0.0000 0.0000 0
vt 0.0103 0.0000 0
vt 0.0103 -0.2540 0
vt 0.0000 -0.2540 0
vt 0.0000 0.0000 0
vt -0.0163 0.0212 0
vt -0.0163 0.0109 0
vt -0.0065 0.0109 0
vt -0.0065 0.0212 0
vt -0.0065 0.0212 0
vt -0.0065 0.0109 0
vt -0.0163 0.0109 0
vt -0.0163 0.0212 0
f 99/99/99 97/97/97 98/98/98
f 97/97/97 99/99/99 100/100/100
f 103/103/103 101/101/101 102/102/102
f 101/101/101 103/103/103 104/104/104
f 107/107/107 105/105/105 106/106/106
f 105/105/105 107/107/107 108/108/108
f 109/109/109 111/111/111 112/112/112
f 111/111/111 109/109/109 110/110/110
f 113/113/113 115/115/115 116/116/116
f 115/115/115 113/113/113 114/114/114
f 119/119/119 117/117/117 118/118/118
f 117/117/117 119/119/119 120/120/120
g body_6
v 0.041615 0.254000 0.011704
v 0.041615 0.000000 0.011704
v 0.041615 0.000000 0.025229
v 0.041615 0.254000 0.025229
v 0.041615 0.254000 0.025229
v 0.041615 0.000000 0.025229
v 0.052279 0.000000 0.025229
v 0.052279 0.254000 0.025229
v 0.052279 0.254000 0.025229
v 0.052279 0.000000 0.025229
v 0.052279 0.000000 0.011704
v 0.052279 0.254000 0.011704
v 0.052279 0.254000 0.011704
v 0.052279 0.000000 0.011704
v 0.041615 0.000000 0.011704
v 0.041615 0.254000 0.011704
v 0.052279 0.254000 0.011704
v 0.041615 0.254000 0.011704
v 0.041615 0.254000 0.025229
v 0.052279 0.254000 0.025229
v 0.052279 0.000000 0.025229
v 0.041615 0.000000 0.025229
v 0.041615 0.000000 0.011704
v 0.052279 0.000000 0.011704
vn -1.000 0.000 0.000
vn -1.000 0.000 0.000
vn -1.000 0.000 0.000
vn -1.000 0.000 0.000
vn 0.000 0.000 1.000
vn 0.000 0.000 1.000
vn 0.000 0.000 1.000
vn 0.000 0.000 1.000
vn 1.000 0.000 0.000
vn 1.000 0.000 0.000
vn 1.000 0.000 0.000
vn 1.000 0.000 0.000
vn 0.000 0.000 -1.000
vn 0.000 0.000 -1.000
vn 0.000 0.000 -1.000
vn 0.000 0.000 -1.000
vn 0.000 1.000 0.000
vn 0.000 1.000 0.000
vn 0.000 1.000 0.000
vn 0.000 1.000 0.000
vn 0.000 -1.000 0.000
vn 0.000 -1.000 0.000
vn 0.000 -1.000 0.000
vn 0.000 -1.000 0.000
vt 0.0000 0.0000 0
vt 0.0000 -0.2540 0
vt -0.0135 -0.2540 0
vt -0.0135 0.0000 0
vt 0.0000 0.0000 0
vt 0.0000 -0.2540 0
vt -0.0107 -0.2540 0
vt -0.0107 0.0000 0
vt 0.0135 0.0000 0
vt 0.0135 -0.2540 0
vt 0.0000 -0.2540 0
vt 0.0000 0.0000 0
vt 0.0107 0.0000 0
vt 0.0107 -0.2540 0
vt 0.0000 -0.2540 0
vt 0.0000 0.0000 0
vt 0.0117 0.0523 0
vt 0.0117 0.0416 0
vt 0.0252 0.0416 0
vt 0.0252 0.0523 0
vt 0.0252 0.0523 0
vt 0.0252 0.0416 0
vt 0.0117 0.0416 0
vt 0.0117 0.0523 0
f 123/123/123 121/121/121 122/122/122
f 121/121/121 123/123/123 124/124/124
f 127/127/127 125/125/125 126/126/126
f 125/125/125 127/127/127 128/128/128
f 131/131/131 129/129/129 130/130/130
f 129/129/129 131/131/131 132/132/132
f 133/133/133 135/135/135 136/136/136
f 135/135/135 133/133/133 134/134/134
f 137/137/137 139/139/139 140/140/140
f 139/139/139 137/137/137 138/138/138
f 143/143/143 141/141/141 142/142/142
f 141/141/141 143/143/143 144/144/144
g body_7
v -0.069300 0.254000 -0.011753
v -0.069300 0.000000 -0.011753
v -0.069300 0.000000 0.000000
v -0.069300 0.254000 0.000000
v -0.069300 0.254000 0.000000
v -0.069300 0.000000 0.000000
v -0.057260 0.000000 0.000000
v -0.057260 0.254000 0.000000
v -0.057260 0.254000 0.000000
v -0.057260 0.000000 0.000000
v -0.057260 0.000000 -0.011753
v -0.057260 0.254000 -0.011753
v -0.057260 0.254000 -0.011753
v -0.057260 0.000000 -0.011753
v -0.069300 0.000000 -0.011753
v -0.069300 0.254000 -0.011753
v -0.057260 0.254000 -0.011753
v -0.069300 0.254000 -0.011753
v -0.069300 0.254000 0.000000
v -0.057260 0.254000 0.000000
v -0.057260 0.000000 0.000000
v -0.069300 0.000000 0.000000
v -0.069300 0.000000 -0.011753
v -0.057260 0.000000 -0.011753
vn -1.000 0.000 0.000
vn -1.000 0.000 0.000
vn -1.000 0.000 0.000
vn -1.000 0.000 0.000
vn 0.000 0.000 1.000
vn 0.000 0.000 1.000
vn 0.000 0.000 1.000
vn 0.000 0.000 1.000
vn 1.000 0.000 0.000
vn 1.000 0.000 0.000
vn 1.000 0.000 0.000
vn 1.000 0.000 0.000
vn 0.000 0.000 -1.000
vn 0.000 0.000 -1.000
vn 0.000 0.000 -1.000
vn 0.000 0.000 -1.000
vn 0.000 1.000 0.000
vn 0.000 1.000 0.000
vn 0.000 1.000 0.000
vn 0.000 1.000 0.000
vn 0.000 -1.000 0.000
vn 0.000 -1.000 0.000
vn 0.000 -1.000 0.000
vn 0.000 -1.000 0.000
vt 0.0000 0.0000 0
vt 0.0000 -0.2540 0
vt -0.0118 -0.2540 0
vt -0.0118 0.0000 0
vt 0.0000 0.0000 0
vt 0.0000 -0.2540 0
vt -0.0120 -0.2540 0
vt -0.0120 0.0000 0
vt 0.0118 0.0000 0
vt 0.0118 -0.2540 0
vt 0.0000 -0.2540 0
vt 0.0000 0.0000 0
vt 0.0120 0.0000 0
vt 0.0120 -0.2540 0
vt 0.0000 -0.2540 0
vt 0.0000 0.0000 0
vt -0.0118 -0.0573 0
vt -0.0118 -0.0693 0
vt 0.0000 -0.0693 0
vt 0.0000 -0.0573 0
vt 0.0000 -0.0573 0
vt 0.0000 -0.0693 0
vt -0.0118 -0.0693 0
vt -0.0118 -0.0573 0
f 145/145/145 147/147/147 148/148/148
f 147/147/147 145/145/145 146/146/146
f 149/149/149 151/151/151 152/152/152
f 151/151/151 149/149/149 150/150/150
f 153/153/153 155/155/155 156/156/156
f 155/155/155 153/153/153 154/154/154
f 159/159/159 157/157/157 158/158/158
f 157/157/157 159/159/159 160/160/160
f 161/161/161 163/163/163 164/164/164
f 163/163/163 161/161/161 162/162/162
f 167/167/167 165/165/165 166/166/166
f 165/165/165 167/167/167 168/168/168
g body_8
v -0.069300 0.254000 -0.011753
v -0.069300 0.000000 -0.011753
v -0.069300 0.000000 0.000000
v -0.069300 0.254000 0.000000
v -0.069300 0.254000 0.000000
v -0.069300 0.000000 0.000000
v -0.057260 0.000000 0.000000
v -0.057260 0.254000 0.000000
v -0.057260 0.254000 0.000000
v -0.057260 0.000000 0.000000
v -0.057260 0.000000 -0.011753
v -0.057260 0.254000 -0.011753
v -0.057260 0.254000 -0.011753
v -0.057260 0.000000 -0.011753
v -0.069300 0.000000 -0.011753
v -0.069300 0.254000 -0.011753
v -0.057260 0.254000 -0.011753
v -0.069300 0.254000 -0.011753
v -0.069300 0.254000 0.000000
v -0.057260 0.254000 0.000000
v -0.057260 0.000000 0.000000
v -0.069300 0.000000 0.000000
v -0.069300 0.000000 -0.011753
v -0.057260 0.000000 -0.011753
vn -1.000 0.000 0.000
vn -1.000 0.000 0.000
vn -1.000 0.000 0.000
vn -1.000 0.000 0.000
vn 0.000 0.000 1.000
vn 0.000 0.000 1.000
vn 0.000 0.000 1.000
vn 0.000 0.000 1.000
vn 1.000 0.000 0.000
vn 1.000 0.000 0.000
vn 1.000 0.000 0.000
vn 1.000 0.000 0.000
vn 0.000 0.000 -1.000
vn 0.000 0.000 -1.000
vn 0.000 0.000 -1.000
vn 0.000 0.000 -1.000
vn 0.000 1.000 0.000
vn 0.000 1.000 0.000
vn 0.000 1.000 0.000
vn 0.000 1.000 0.000
vn 0.000 -1.000 0.000
vn 0.000 -1.000 0.000
vn 0.000 -1.000 0.000
vn 0.000 -1.000 0.000
vt 0.0000 0.0000 0
vt 0.0000 -0.2540 0
vt -0.0118 -0.2540 0
vt -0.0118 0.0000 0
vt 0.0000 0.0000 0
vt 0.0000 -0.2540 0
vt -0.0120 -0.2540 0
vt -0.0120 0.0000 0
vt 0.0118 0.0000 0
vt 0.0118 -0.2540 0
vt 0.0000 -0.2540 0
vt 0.0000 0.0000 0
vt 0.0120 0.0000 0
vt 0.0120 -0.2540 0
vt 0.0000 -0.2540 0
vt 0.0000 0.0000 0
vt -0.0118 -0.0573 0
vt -0.0118 -0.0693 0
vt 0.0000 -0.0693 0
vt 0.0000 -0.0573 0
vt 0.0000 -0.0573 0
vt 0.0000 -0.0693 0
vt -0.0118 -0.0693 0
vt -0.0118 -0.0573 0
f 171/171/171 169/169/169 170/170/170
f 169/169/169 171/171/171 172/172/172
f 175/175/175 173/173/173 174/174/174
f 173/173/173 175/175/175 176/176/176
f 179/179/179 177/177/177 178/178/178
f 177/177/177 179/179/179 180/180/180
f 181/181/181 183/183/183 184/184/184
f 183/183/183 181/181/181 182/182/182
f 185/185/185 187/187/187 188/188/188
f 187/187/187 185/185/185 186/186/186
f 191/191/191 189/189/189 190/190/190
f 189/189/189 191/191/191 192/192/192
