# Wavefront .OBJ file for tesselated shape: target1-1 path: C:\Users\Melen\Desktop\SOLIDWORKS\target1.SLDPRT

g body_1
v 13.588956 12.700000 21.186783
v 13.588956 0.000000 21.186783
v 20.197166 0.000000 21.186783
v 20.197166 12.700000 21.186783
v 20.197166 12.700000 -15.630388
v 13.588956 12.700000 -15.630388
v 13.588956 12.700000 21.186783
v 20.197166 12.700000 21.186783
v 20.197166 12.700000 -15.630388
v 20.197166 0.000000 -15.630388
v 13.588956 0.000000 -15.630388
v 13.588956 12.700000 -15.630388
v 20.197166 0.000000 21.186783
v 13.588956 0.000000 21.186783
v 13.588956 0.000000 -15.630388
v 20.197166 0.000000 -15.630388
v 13.588956 12.700000 -15.630388
v 13.588956 10.303684 -3.124361
v 13.588956 10.303684 2.778198
v 13.588956 0.000000 -15.630388
v 13.588956 5.581637 -3.124361
v 13.588956 0.000000 21.186783
v 13.588956 5.581637 2.778198
v 13.588956 12.700000 21.186783
v 20.197166 12.700000 -15.630388
v 20.197166 12.700000 21.186783
v 20.197166 10.303684 2.778198
v 20.197166 0.000000 21.186783
v 20.197166 5.581637 2.778198
v 20.197166 0.000000 -15.630388
v 20.197166 5.581637 -3.124361
v 20.197166 10.303684 -3.124361
v 13.588956 5.581637 2.778198
v 13.588956 10.303684 2.778198
v 20.197166 10.303684 2.778198
v 20.197166 5.581637 2.778198
v 13.588956 10.303684 2.778198
v 13.588956 10.303684 -3.124361
v 20.197166 10.303684 -3.124361
v 20.197166 10.303684 2.778198
v 13.588956 10.303684 -3.124361
v 13.588956 5.581637 -3.124361
v 20.197166 5.581637 -3.124361
v 20.197166 10.303684 -3.124361
v 13.588956 5.581637 -3.124361
v 13.588956 5.581637 2.778198
v 20.197166 5.581637 2.778198
v 20.197166 5.581637 -3.124361
vn 0.000 0.000 1.000
vn 0.000 0.000 1.000
vn 0.000 0.000 1.000
vn 0.000 0.000 1.000
vn 0.000 1.000 0.000
vn 0.000 1.000 0.000
vn 0.000 1.000 0.000
vn 0.000 1.000 0.000
vn 0.000 0.000 -1.000
vn 0.000 0.000 -1.000
vn 0.000 0.000 -1.000
vn 0.000 0.000 -1.000
vn 0.000 -1.000 0.000
vn 0.000 -1.000 0.000
vn 0.000 -1.000 0.000
vn 0.000 -1.000 0.000
vn -1.000 0.000 0.000
vn -1.000 0.000 0.000
vn -1.000 0.000 0.000
vn -1.000 0.000 0.000
vn -1.000 0.000 0.000
vn -1.000 0.000 0.000
vn -1.000 0.000 0.000
vn -1.000 0.000 0.000
vn 1.000 0.000 0.000
vn 1.000 0.000 0.000
vn 1.000 0.000 0.000
vn 1.000 0.000 0.000
vn 1.000 0.000 0.000
vn 1.000 0.000 0.000
vn 1.000 0.000 0.000
vn 1.000 0.000 0.000
vn 0.000 0.000 -1.000
vn 0.000 0.000 -1.000
vn 0.000 0.000 -1.000
vn 0.000 0.000 -1.000
vn 0.000 -1.000 0.000
vn 0.000 -1.000 0.000
vn 0.000 -1.000 0.000
vn 0.000 -1.000 0.000
vn 0.000 0.000 1.000
vn 0.000 0.000 1.000
vn 0.000 0.000 1.000
vn 0.000 0.000 1.000
vn 0.000 1.000 0.000
vn 0.000 1.000 0.000
vn 0.000 1.000 0.000
vn 0.000 1.000 0.000
vt 0.0000 0.0000 0
vt 0.0000 -12.7000 0
vt -6.6082 -12.7000 0
vt -6.6082 0.0000 0
vt -15.6304 20.1972 0
vt -15.6304 13.5890 0
vt 21.1868 13.5890 0
vt 21.1868 20.1972 0
vt 6.6082 0.0000 0
vt 6.6082 -12.7000 0
vt 0.0000 -12.7000 0
vt 0.0000 0.0000 0
vt 21.1868 20.1972 0
vt 21.1868 13.5890 0
vt -15.6304 13.5890 0
vt -15.6304 20.1972 0
vt 0.0000 0.0000 0
vt -12.5060 -2.3963 0
vt -18.4086 -2.3963 0
vt 0.0000 -12.7000 0
vt -12.5060 -7.1184 0
vt -36.8172 -12.7000 0
vt -18.4086 -7.1184 0
vt -36.8172 0.0000 0
vt 0.0000 0.0000 0
vt 36.8172 0.0000 0
vt 18.4086 -2.3963 0
vt 36.8172 -12.7000 0
vt 18.4086 -7.1184 0
vt 0.0000 -12.7000 0
vt 12.5060 -7.1184 0
vt 12.5060 -2.3963 0
vt 1.0118 -4.7220 0
vt 1.0118 0.0000 0
vt 7.6200 0.0000 0
vt 7.6200 -4.7220 0
vt 0.0000 1.0118 0
vt -5.9026 1.0118 0
vt -5.9026 7.6200 0
vt 0.0000 7.6200 0
vt -1.0118 0.0000 0
vt -1.0118 -4.7220 0
vt -7.6200 -4.7220 0
vt -7.6200 0.0000 0
vt 5.9026 1.0118 0
vt 0.0000 1.0118 0
vt 0.0000 7.6200 0
vt 5.9026 7.6200 0
f 23/23/23 20/20/20 22/22/22
f 20/20/20 23/23/23 21/21/21
f 23/23/23 24/24/24 19/19/19
f 24/24/24 23/23/23 22/22/22
f 17/17/17 19/19/19 24/24/24
f 21/21/21 17/17/17 20/20/20
f 19/19/19 17/17/17 18/18/18
f 17/17/17 21/21/21 18/18/18
f 1/1/1 3/3/3 4/4/4
f 3/3/3 1/1/1 2/2/2
f 25/25/25 27/27/27 32/32/32
f 30/30/30 29/29/29 28/28/28
f 25/25/25 31/31/31 30/30/30
f 26/26/26 29/29/29 27/27/27
f 31/31/31 25/25/25 32/32/32
f 29/29/29 30/30/30 31/31/31
f 29/29/29 26/26/26 28/28/28
f 27/27/27 25/25/25 26/26/26
f 11/11/11 9/9/9 10/10/10
f 9/9/9 11/11/11 12/12/12
f 7/7/7 5/5/5 6/6/6
f 5/5/5 7/7/7 8/8/8
f 13/13/13 15/15/15 16/16/16
f 15/15/15 13/13/13 14/14/14
f 33/33/33 35/35/35 36/36/36
f 35/35/35 33/33/33 34/34/34
f 39/39/39 37/37/37 38/38/38
f 37/37/37 39/39/39 40/40/40
f 41/41/41 43/43/43 44/44/44
f 43/43/43 41/41/41 42/42/42
f 45/45/45 47/47/47 48/48/48
f 47/47/47 45/45/45 46/46/46
g body_2
v -22.225179 12.700000 13.692064
v -22.225179 0.000000 13.692064
v -15.603282 0.000000 13.692064
v -15.603282 12.700000 13.692064
v -15.603282 12.700000 -7.399902
v -22.225179 12.700000 -7.399902
v -22.225179 12.700000 13.692064
v -15.603282 12.700000 13.692064
v -15.603282 12.700000 -7.399902
v -15.603282 0.000000 -7.399902
v -22.225179 0.000000 -7.399902
v -22.225179 12.700000 -7.399902
v -15.603282 0.000000 13.692064
v -22.225179 0.000000 13.692064
v -22.225179 0.000000 -7.399902
v -15.603282 0.000000 -7.399902
v -22.225179 12.700000 -7.399902
v -22.225179 11.287098 -4.914169
v -22.225179 11.287098 4.834573
v -22.225179 0.000000 -7.399902
v -22.225179 5.156053 -4.914169
v -22.225179 0.000000 13.692064
v -22.225179 5.156053 4.834573
v -22.225179 12.700000 13.692064
v -15.603282 12.700000 -7.399902
v -15.603282 12.700000 13.692064
v -15.603282 11.287098 4.834573
v -15.603282 0.000000 13.692064
v -15.603282 5.156053 4.834573
v -15.603282 0.000000 -7.399902
v -15.603282 5.156053 -4.914169
v -15.603282 11.287098 -4.914169
v -15.603282 5.156053 -4.914169
v -15.603282 11.287098 -4.914169
v -22.225179 11.287098 -4.914169
v -22.225179 5.156053 -4.914169
v -15.603282 11.287098 -4.914169
v -15.603282 11.287098 4.834573
v -22.225179 11.287098 4.834573
v -22.225179 11.287098 -4.914169
v -15.603282 11.287098 4.834573
v -15.603282 5.156053 4.834573
v -22.225179 5.156053 4.834573
v -22.225179 11.287098 4.834573
v -22.225179 5.156053 -4.914169
v -22.225179 5.156053 4.834573
v -15.603282 5.156053 4.834573
v -15.603282 5.156053 -4.914169
vn 0.000 0.000 1.000
vn 0.000 0.000 1.000
vn 0.000 0.000 1.000
vn 0.000 0.000 1.000
vn 0.000 1.000 0.000
vn 0.000 1.000 0.000
vn 0.000 1.000 0.000
vn 0.000 1.000 0.000
vn 0.000 0.000 -1.000
vn 0.000 0.000 -1.000
vn 0.000 0.000 -1.000
vn 0.000 0.000 -1.000
vn 0.000 -1.000 0.000
vn 0.000 -1.000 0.000
vn 0.000 -1.000 0.000
vn 0.000 -1.000 0.000
vn -1.000 0.000 0.000
vn -1.000 0.000 0.000
vn -1.000 0.000 0.000
vn -1.000 0.000 0.000
vn -1.000 0.000 0.000
vn -1.000 0.000 0.000
vn -1.000 0.000 0.000
vn -1.000 0.000 0.000
vn 1.000 0.000 0.000
vn 1.000 0.000 0.000
vn 1.000 0.000 0.000
vn 1.000 0.000 0.000
vn 1.000 0.000 0.000
vn 1.000 0.000 0.000
vn 1.000 0.000 0.000
vn 1.000 0.000 0.000
vn 0.000 0.000 1.000
vn 0.000 0.000 1.000
vn 0.000 0.000 1.000
vn 0.000 0.000 1.000
vn 0.000 -1.000 0.000
vn 0.000 -1.000 0.000
vn 0.000 -1.000 0.000
vn 0.000 -1.000 0.000
vn 0.000 0.000 -1.000
vn 0.000 0.000 -1.000
vn 0.000 0.000 -1.000
vn 0.000 0.000 -1.000
vn 0.000 1.000 0.000
vn 0.000 1.000 0.000
vn 0.000 1.000 0.000
vn 0.000 1.000 0.000
vt 0.0000 0.0000 0
vt 0.0000 -12.7000 0
vt -6.6219 -12.7000 0
vt -6.6219 0.0000 0
vt -7.3999 -15.6033 0
vt -7.3999 -22.2252 0
vt 13.6921 -22.2252 0
vt 13.6921 -15.6033 0
vt 6.6219 0.0000 0
vt 6.6219 -12.7000 0
vt 0.0000 -12.7000 0
vt 0.0000 0.0000 0
vt 13.6921 -15.6033 0
vt 13.6921 -22.2252 0
vt -7.3999 -22.2252 0
vt -7.3999 -15.6033 0
vt 0.0000 0.0000 0
vt -2.4857 -1.4129 0
vt -12.2345 -1.4129 0
vt 0.0000 -12.7000 0
vt -2.4857 -7.5439 0
vt -21.0920 -12.7000 0
vt -12.2345 -7.5439 0
vt -21.0920 0.0000 0
vt 0.0000 0.0000 0
vt 21.0920 0.0000 0
vt 12.2345 -1.4129 0
vt 21.0920 -12.7000 0
vt 12.2345 -7.5439 0
vt 0.0000 -12.7000 0
vt 2.4857 -7.5439 0
vt 2.4857 -1.4129 0
vt 0.9981 -6.1310 0
vt 0.9981 0.0000 0
vt 7.6200 0.0000 0
vt 7.6200 -6.1310 0
vt 0.0000 -0.9981 0
vt 9.7487 -0.9981 0
vt 9.7487 -7.6200 0
vt 0.0000 -7.6200 0
vt -0.9981 0.0000 0
vt -0.9981 -6.1310 0
vt -7.6200 -6.1310 0
vt -7.6200 0.0000 0
vt 0.0000 -7.6200 0
vt -9.7487 -7.6200 0
vt -9.7487 -0.9981 0
vt 0.0000 -0.9981 0
f 68/68/68 71/71/71 69/69/69
f 67/67/67 65/65/65 66/66/66
f 65/65/65 67/67/67 72/72/72
f 69/69/69 65/65/65 68/68/68
f 71/71/71 68/68/68 70/70/70
f 71/71/71 72/72/72 67/67/67
f 65/65/65 69/69/69 66/66/66
f 72/72/72 71/71/71 70/70/70
f 51/51/51 49/49/49 50/50/50
f 49/49/49 51/51/51 52/52/52
f 75/75/75 73/73/73 74/74/74
f 77/77/77 74/74/74 76/76/76
f 74/74/74 77/77/77 75/75/75
f 77/77/77 78/78/78 79/79/79
f 78/78/78 77/77/77 76/76/76
f 79/79/79 73/73/73 80/80/80
f 73/73/73 79/79/79 78/78/78
f 73/73/73 75/75/75 80/80/80
f 59/59/59 57/57/57 58/58/58
f 57/57/57 59/59/59 60/60/60
f 55/55/55 53/53/53 54/54/54
f 53/53/53 55/55/55 56/56/56
f 63/63/63 61/61/61 62/62/62
f 61/61/61 63/63/63 64/64/64
f 81/81/81 83/83/83 84/84/84
f 83/83/83 81/81/81 82/82/82
f 87/87/87 85/85/85 86/86/86
f 85/85/85 87/87/87 88/88/88
f 89/89/89 91/91/91 92/92/92
f 91/91/91 89/89/89 90/90/90
f 93/93/93 95/95/95 96/96/96
f 95/95/95 93/93/93 94/94/94
