# Wavefront .OBJ file for tesselated shape: pillar_3-1 path: C:\Users\Melen\Desktop\SOLIDWORKS\pillar_3.SLDPRT

g body_1
v 0.293481 2.540000 -0.045236
v -0.026060 2.540000 -0.538830
v -0.292774 2.540000 0.000000
v -0.292774 2.540000 0.000000
v -0.292774 0.000000 0.000000
v 0.293481 0.000000 -0.045236
v 0.293481 2.540000 -0.045236
v 0.293481 2.540000 -0.045236
v 0.293481 0.000000 -0.045236
v -0.026060 0.000000 -0.538830
v -0.026060 2.540000 -0.538830
v -0.026060 2.540000 -0.538830
v -0.026060 0.000000 -0.538830
v -0.292774 0.000000 0.000000
v -0.292774 2.540000 0.000000
v -0.292774 0.000000 0.000000
v -0.026060 0.000000 -0.538830
v 0.293481 0.000000 -0.045236
vn 0.000 1.000 0.000
vn 0.000 1.000 0.000
vn 0.000 1.000 0.000
vn 0.077 0.000 0.997
vn 0.077 0.000 0.997
vn 0.077 0.000 0.997
vn 0.077 0.000 0.997
vn 0.839 0.000 -0.543
vn 0.839 0.000 -0.543
vn 0.839 0.000 -0.543
vn 0.839 0.000 -0.543
vn -0.896 0.000 -0.444
vn -0.896 0.000 -0.444
vn -0.896 0.000 -0.444
vn -0.896 0.000 -0.444
vn 0.000 -1.000 0.000
vn 0.000 -1.000 0.000
vn 0.000 -1.000 0.000
vt -0.0452 0.2935 0
vt -0.5388 -0.0261 0
vt 0.0000 -0.2928 0
vt 0.5880 0.0000 0
vt 0.5880 -2.5400 0
vt 0.0000 -2.5400 0
vt 0.0000 0.0000 0
vt 0.5880 0.0000 0
vt 0.5880 -2.5400 0
vt 0.0000 -2.5400 0
vt 0.0000 0.0000 0
vt 0.6012 0.0000 0
vt 0.6012 -2.5400 0
vt 0.0000 -2.5400 0
vt 0.0000 0.0000 0
vt 0.0000 -0.2928 0
vt -0.5388 -0.0261 0
vt -0.0452 0.2935 0
f 4/4/4 6/6/6 7/7/7
f 6/6/6 4/4/4 5/5/5
f 8/8/8 10/10/10 11/11/11
f 10/10/10 8/8/8 9/9/9
f 12/12/12 14/14/14 15/15/15
f 14/14/14 12/12/12 13/13/13
f 3/3/3 1/1/1 2/2/2
f 18/18/18 16/16/16 17/17/17
