# Wavefront .OBJ file for tesselated shape: obstacle_1-1 path: C:\Users\Melen\Desktop\SOLIDWORKS\obstacle_1.SLDPRT

g body_1
v 0.299749 1.920276 0.687635
v 0.299749 1.989054 0.694008
v 0.557917 1.989054 0.694008
v 0.299749 1.853839 0.668732
v 0.557917 1.920276 0.687635
v 0.299749 1.792007 0.637943
v 0.557917 1.853839 0.668732
v 0.299749 1.736885 0.596317
v 0.557917 1.792007 0.637943
v 0.299749 1.690351 0.545271
v 0.557917 1.736885 0.596317
v 0.299749 1.653988 0.486544
v 0.557917 1.690351 0.545271
v 0.299749 1.629036 0.422135
v 0.557917 1.653988 0.486544
v 0.299749 1.616344 0.354237
v 0.557917 1.629036 0.422135
v 0.299749 1.616344 0.285164
v 0.557917 1.616344 0.354237
v 0.299749 1.629036 0.217267
v 0.557917 1.616344 0.285164
v 0.299749 1.653988 0.152858
v 0.557917 1.629036 0.217267
v 0.299749 1.690351 0.094130
v 0.557917 1.653988 0.152858
v 0.299749 1.736885 0.043084
v 0.557917 1.690351 0.094130
v 0.299749 1.792007 0.001458
v 0.557917 1.736885 0.043084
v 0.299749 1.853839 -0.029331
v 0.557917 1.792007 0.001458
v 0.299749 1.920276 -0.048233
v 0.557917 1.853839 -0.029331
v 0.299749 1.989054 -0.054607
v 0.557917 1.920276 -0.048233
v 0.299749 2.057833 -0.048233
v 0.557917 1.989054 -0.054607
v 0.299749 2.124270 -0.029331
v 0.557917 2.057833 -0.048233
v 0.299749 2.186102 0.001458
v 0.557917 2.124270 -0.029331
v 0.299749 2.241224 0.043084
v 0.557917 2.186102 0.001458
v 0.299749 2.287758 0.094130
v 0.557917 2.241224 0.043084
v 0.299749 2.324121 0.152858
v 0.557917 2.287758 0.094130
v 0.299749 2.349073 0.217267
v 0.557917 2.324121 0.152858
v 0.299749 2.361765 0.285164
v 0.557917 2.349073 0.217267
v 0.299749 2.361765 0.354237
v 0.557917 2.361765 0.285164
v 0.299749 2.349073 0.422135
v 0.557917 2.361765 0.354237
v 0.299749 2.324121 0.486544
v 0.557917 2.349073 0.422135
v 0.299749 2.287758 0.545271
v 0.557917 2.324121 0.486544
v 0.299749 2.241224 0.596317
v 0.557917 2.287758 0.545271
v 0.299749 2.186102 0.637943
v 0.557917 2.241224 0.596317
v 0.299749 2.124270 0.668732
v 0.557917 2.186102 0.637943
v 0.299749 2.057833 0.687635
v 0.557917 2.124270 0.668732
v 0.557917 2.057833 0.687635
v 0.299749 2.540000 -0.081908
v 0.299749 1.524000 -0.081908
v 0.299749 1.989054 -0.054607
v 0.299749 2.057833 -0.048233
v 0.299749 1.920276 -0.048233
v 0.299749 1.690351 0.094130
v 0.299749 1.736885 0.043084
v 0.299749 2.241224 0.043084
v 0.299749 2.287758 0.094130
v 0.299749 2.124270 -0.029331
v 0.299749 2.186102 0.001458
v 0.299749 1.853839 -0.029331
v 0.299749 1.792007 0.001458
v 0.299749 1.524000 0.222892
v 0.299749 1.629036 0.217267
v 0.299749 1.653988 0.152858
v 0.299749 1.524000 0.721310
v 0.299749 1.792007 0.637943
v 0.299749 1.736885 0.596317
v 0.299749 2.540000 0.721310
v 0.299749 2.361765 0.354237
v 0.299749 2.349073 0.422135
v 0.299749 2.361765 0.285164
v 0.299749 1.853839 0.668732
v 0.299749 2.324121 0.152858
v 0.299749 2.349073 0.217267
v 0.299749 1.616344 0.285164
v 0.299749 1.629036 0.422135
v 0.299749 1.616344 0.354237
v 0.299749 1.653988 0.486544
v 0.299749 1.524000 0.416510
v 0.299749 1.920276 0.687635
v 0.299749 2.186102 0.637943
v 0.299749 2.124270 0.668732
v 0.299749 2.287758 0.545271
v 0.299749 2.241224 0.596317
v 0.299749 1.690351 0.545271
v 0.299749 1.989054 0.694008
v 0.299749 2.057833 0.687635
v 0.299749 2.324121 0.486544
v 0.299749 0.000000 0.222892
v 0.299749 0.000000 0.416510
v 0.557917 2.540000 0.721310
v 0.557917 1.524000 0.721310
v 0.557917 1.989054 0.694008
v 0.557917 2.540000 -0.081908
v 0.557917 2.361765 0.285164
v 0.557917 2.349073 0.217267
v 0.557917 2.361765 0.354237
v 0.557917 1.920276 0.687635
v 0.557917 1.690351 0.545271
v 0.557917 1.736885 0.596317
v 0.557917 2.057833 -0.048233
v 0.557917 1.989054 -0.054607
v 0.557917 2.241224 0.043084
v 0.557917 2.186102 0.001458
v 0.557917 2.324121 0.152858
v 0.557917 2.287758 0.094130
v 0.557917 2.324121 0.486544
v 0.557917 2.349073 0.422135
v 0.557917 2.186102 0.637943
v 0.557917 2.241224 0.596317
v 0.557917 2.057833 0.687635
v 0.557917 2.124270 0.668732
v 0.557917 1.853839 0.668732
v 0.557917 1.792007 0.637943
v 0.557917 1.524000 -0.081908
v 0.557917 1.792007 0.001458
v 0.557917 1.736885 0.043084
v 0.557917 2.124270 -0.029331
v 0.557917 1.524000 0.416510
v 0.557917 1.629036 0.422135
v 0.557917 1.653988 0.486544
v 0.557917 1.853839 -0.029331
v 0.557917 1.616344 0.354237
v 0.557917 0.000000 0.416510
v 0.557917 0.000000 0.222892
v 0.557917 1.616344 0.285164
v 0.557917 2.287758 0.545271
v 0.557917 1.524000 0.222892
v 0.557917 1.653988 0.152858
v 0.557917 1.920276 -0.048233
v 0.557917 1.690351 0.094130
v 0.557917 1.629036 0.217267
v 0.557917 2.540000 0.721310
v 0.299749 2.540000 0.721310
v 0.299749 1.524000 0.721310
v 0.557917 1.524000 0.721310
v 0.299749 2.540000 -0.081908
v 0.557917 2.540000 -0.081908
v 0.557917 1.524000 -0.081908
v 0.299749 1.524000 -0.081908
v 0.557917 2.540000 -0.081908
v 0.299749 2.540000 -0.081908
v 0.299749 2.540000 0.721310
v 0.557917 2.540000 0.721310
v 0.557917 0.000000 0.222892
v 0.557917 0.000000 0.416510
v 0.299749 0.000000 0.416510
v 0.299749 0.000000 0.222892
v 0.557917 1.524000 0.416510
v 0.557917 1.524000 0.721310
v 0.299749 1.524000 0.721310
v 0.299749 1.524000 0.416510
v 0.557917 0.000000 0.416510
v 0.557917 1.524000 0.416510
v 0.299749 1.524000 0.416510
v 0.299749 0.000000 0.416510
v 0.557917 1.524000 -0.081908
v 0.557917 1.524000 0.222892
v 0.299749 1.524000 0.222892
v 0.299749 1.524000 -0.081908
v 0.557917 1.524000 0.222892
v 0.557917 0.000000 0.222892
v 0.299749 0.000000 0.222892
v 0.299749 1.524000 0.222892
vn 0.000 0.184 -0.983
vn 0.000 0.000 -1.000
vn 0.000 0.000 -1.000
vn 0.000 0.361 -0.932
vn 0.000 0.184 -0.983
vn 0.000 0.526 -0.850
vn 0.000 0.361 -0.932
vn 0.000 0.674 -0.739
vn 0.000 0.526 -0.850
vn 0.000 0.798 -0.603
vn 0.000 0.674 -0.739
vn 0.000 0.895 -0.446
vn 0.000 0.798 -0.603
vn 0.000 0.962 -0.274
vn 0.000 0.895 -0.446
vn 0.000 0.996 -0.092
vn 0.000 0.962 -0.274
vn 0.000 0.996 0.092
vn 0.000 0.996 -0.092
vn 0.000 0.962 0.274
vn 0.000 0.996 0.092
vn 0.000 0.895 0.446
vn 0.000 0.962 0.274
vn 0.000 0.798 0.603
vn 0.000 0.895 0.446
vn 0.000 0.674 0.739
vn 0.000 0.798 0.603
vn 0.000 0.526 0.850
vn 0.000 0.674 0.739
vn 0.000 0.361 0.932
vn 0.000 0.526 0.850
vn 0.000 0.184 0.983
vn 0.000 0.361 0.932
vn 0.000 0.000 1.000
vn 0.000 0.184 0.983
vn 0.000 -0.184 0.983
vn 0.000 0.000 1.000
vn 0.000 -0.361 0.932
vn 0.000 -0.184 0.983
vn 0.000 -0.526 0.850
vn 0.000 -0.361 0.932
vn 0.000 -0.674 0.739
vn 0.000 -0.526 0.850
vn 0.000 -0.798 0.603
vn 0.000 -0.674 0.739
vn 0.000 -0.895 0.446
vn 0.000 -0.798 0.603
vn 0.000 -0.962 0.274
vn 0.000 -0.895 0.446
vn 0.000 -0.996 0.092
vn 0.000 -0.962 0.274
vn 0.000 -0.996 -0.092
vn 0.000 -0.996 0.092
vn 0.000 -0.962 -0.274
vn 0.000 -0.996 -0.092
vn 0.000 -0.895 -0.446
vn 0.000 -0.962 -0.274
vn 0.000 -0.798 -0.603
vn 0.000 -0.895 -0.446
vn 0.000 -0.674 -0.739
vn 0.000 -0.798 -0.603
vn 0.000 -0.526 -0.850
vn 0.000 -0.674 -0.739
vn 0.000 -0.361 -0.932
vn 0.000 -0.526 -0.850
vn 0.000 -0.184 -0.983
vn 0.000 -0.361 -0.932
vn 0.000 -0.184 -0.983
vn -1.000 0.000 0.000
vn -1.000 0.000 0.000
vn -1.000 0.000 0.000
vn -1.000 0.000 0.000
vn -1.000 0.000 0.000
vn -1.000 0.000 0.000
vn -1.000 0.000 0.000
vn -1.000 0.000 0.000
vn -1.000 0.000 0.000
vn -1.000 0.000 0.000
vn -1.000 0.000 0.000
vn -1.000 0.000 0.000
vn -1.000 0.000 0.000
vn -1.000 0.000 0.000
vn -1.000 0.000 0.000
vn -1.000 0.000 0.000
vn -1.000 0.000 0.000
vn -1.000 0.000 0.000
vn -1.000 0.000 0.000
vn -1.000 0.000 0.000
vn -1.000 0.000 0.000
vn -1.000 0.000 0.000
vn -1.000 0.000 0.000
vn -1.000 0.000 0.000
vn -1.000 0.000 0.000
vn -1.000 0.000 0.000
vn -1.000 0.000 0.000
vn -1.000 0.000 0.000
vn -1.000 0.000 0.000
vn -1.000 0.000 0.000
vn -1.000 0.000 0.000
vn -1.000 0.000 0.000
vn -1.000 0.000 0.000
vn -1.000 0.000 0.000
vn -1.000 0.000 0.000
vn -1.000 0.000 0.000
vn -1.000 0.000 0.000
vn -1.000 0.000 0.000
vn -1.000 0.000 0.000
vn -1.000 0.000 0.000
vn -1.000 0.000 0.000
vn -1.000 0.000 0.000
vn 1.000 0.000 0.000
vn 1.000 0.000 0.000
vn 1.000 0.000 0.000
vn 1.000 0.000 0.000
vn 1.000 0.000 0.000
vn 1.000 0.000 0.000
vn 1.000 0.000 0.000
vn 1.000 0.000 0.000
vn 1.000 0.000 0.000
vn 1.000 0.000 0.000
vn 1.000 0.000 0.000
vn 1.000 0.000 0.000
vn 1.000 0.000 0.000
vn 1.000 0.000 0.000
vn 1.000 0.000 0.000
vn 1.000 0.000 0.000
vn 1.000 0.000 0.000
vn 1.000 0.000 0.000
vn 1.000 0.000 0.000
vn 1.000 0.000 0.000
vn 1.000 0.000 0.000
vn 1.000 0.000 0.000
vn 1.000 0.000 0.000
vn 1.000 0.000 0.000
vn 1.000 0.000 0.000
vn 1.000 0.000 0.000
vn 1.000 0.000 0.000
vn 1.000 0.000 0.000
vn 1.000 0.000 0.000
vn 1.000 0.000 0.000
vn 1.000 0.000 0.000
vn 1.000 0.000 0.000
vn 1.000 0.000 0.000
vn 1.000 0.000 0.000
vn 1.000 0.000 0.000
vn 1.000 0.000 0.000
vn 1.000 0.000 0.000
vn 1.000 0.000 0.000
vn 1.000 0.000 0.000
vn 1.000 0.000 0.000
vn 1.000 0.000 0.000
vn 1.000 0.000 0.000
vn 0.000 0.000 1.000
vn 0.000 0.000 1.000
vn 0.000 0.000 1.000
vn 0.000 0.000 1.000
vn 0.000 0.000 -1.000
vn 0.000 0.000 -1.000
vn 0.000 0.000 -1.000
vn 0.000 0.000 -1.000
vn 0.000 1.000 0.000
vn 0.000 1.000 0.000
vn 0.000 1.000 0.000
vn 0.000 1.000 0.000
vn 0.000 -1.000 0.000
vn 0.000 -1.000 0.000
vn 0.000 -1.000 0.000
vn 0.000 -1.000 0.000
vn 0.000 -1.000 0.000
vn 0.000 -1.000 0.000
vn 0.000 -1.000 0.000
vn 0.000 -1.000 0.000
vn 0.000 0.000 1.000
vn 0.000 0.000 1.000
vn 0.000 0.000 1.000
vn 0.000 0.000 1.000
vn 0.000 -1.000 0.000
vn 0.000 -1.000 0.000
vn 0.000 -1.000 0.000
vn 0.000 -1.000 0.000
vn 0.000 0.000 -1.000
vn 0.000 0.000 -1.000
vn 0.000 0.000 -1.000
vn 0.000 0.000 -1.000
vt -0.1848 0.3810 0
vt 0.0000 0.3810 0
vt 0.0000 0.1228 0
vt 5.9136 0.3810 0
vt -0.1848 0.1228 0
vt 5.7288 0.3810 0
vt 5.9136 0.1228 0
vt 5.5440 0.3810 0
vt 5.7288 0.1228 0
vt 5.3592 0.3810 0
vt 5.5440 0.1228 0
vt 5.1744 0.3810 0
vt 5.3592 0.1228 0
vt 4.9896 0.3810 0
vt 5.1744 0.1228 0
vt 4.8048 0.3810 0
vt 4.9896 0.1228 0
vt 4.6200 0.3810 0
vt 4.8048 0.1228 0
vt 4.4352 0.3810 0
vt 4.6200 0.1228 0
vt 4.2504 0.3810 0
vt 4.4352 0.1228 0
vt 4.0656 0.3810 0
vt 4.2504 0.1228 0
vt 3.8808 0.3810 0
vt 4.0656 0.1228 0
vt 3.6960 0.3810 0
vt 3.8808 0.1228 0
vt 3.5112 0.3810 0
vt 3.6960 0.1228 0
vt 3.3264 0.3810 0
vt 3.5112 0.1228 0
vt 3.1416 0.3810 0
vt 3.3264 0.1228 0
vt 2.9568 0.3810 0
vt 3.1416 0.1228 0
vt 2.7720 0.3810 0
vt 2.9568 0.1228 0
vt 2.5872 0.3810 0
vt 2.7720 0.1228 0
vt 2.4024 0.3810 0
vt 2.5872 0.1228 0
vt 2.2176 0.3810 0
vt 2.4024 0.1228 0
vt 2.0328 0.3810 0
vt 2.2176 0.1228 0
vt 1.8480 0.3810 0
vt 2.0328 0.1228 0
vt 1.6632 0.3810 0
vt 1.8480 0.1228 0
vt 1.4784 0.3810 0
vt 1.6632 0.1228 0
vt 1.2936 0.3810 0
vt 1.4784 0.1228 0
vt 1.1088 0.3810 0
vt 1.2936 0.1228 0
vt 0.9240 0.3810 0
vt 1.1088 0.1228 0
vt 0.7392 0.3810 0
vt 0.9240 0.1228 0
vt 0.5544 0.3810 0
vt 0.7392 0.1228 0
vt 0.3696 0.3810 0
vt 0.5544 0.1228 0
vt 0.1848 0.3810 0
vt 0.3696 0.1228 0
vt 0.1848 0.1228 0
vt 0.0000 0.0000 0
vt 0.0000 -1.0160 0
vt -0.0273 -0.5509 0
vt -0.0337 -0.4822 0
vt -0.0337 -0.6197 0
vt -0.1760 -0.8496 0
vt -0.1250 -0.8031 0
vt -0.1250 -0.2988 0
vt -0.1760 -0.2522 0
vt -0.0526 -0.4157 0
vt -0.0834 -0.3539 0
vt -0.0526 -0.6862 0
vt -0.0834 -0.7480 0
vt -0.3048 -1.0160 0
vt -0.2992 -0.9110 0
vt -0.2348 -0.8860 0
vt -0.8032 -1.0160 0
vt -0.7199 -0.7480 0
vt -0.6782 -0.8031 0
vt -0.8032 0.0000 0
vt -0.4361 -0.1782 0
vt -0.5040 -0.1909 0
vt -0.3671 -0.1782 0
vt -0.7506 -0.6862 0
vt -0.2348 -0.2159 0
vt -0.2992 -0.1909 0
vt -0.3671 -0.9237 0
vt -0.5040 -0.9110 0
vt -0.4361 -0.9237 0
vt -0.5685 -0.8860 0
vt -0.4984 -1.0160 0
vt -0.7695 -0.6197 0
vt -0.7199 -0.3539 0
vt -0.7506 -0.4157 0
vt -0.6272 -0.2522 0
vt -0.6782 -0.2988 0
vt -0.6272 -0.8496 0
vt -0.7759 -0.5509 0
vt -0.7695 -0.4822 0
vt -0.5685 -0.2159 0
vt -0.3048 -2.5400 0
vt -0.4984 -2.5400 0
vt 0.8032 0.0000 0
vt 0.8032 -1.0160 0
vt 0.7759 -0.5509 0
vt 0.0000 0.0000 0
vt 0.3671 -0.1782 0
vt 0.2992 -0.1909 0
vt 0.4361 -0.1782 0
vt 0.7695 -0.6197 0
vt 0.6272 -0.8496 0
vt 0.6782 -0.8031 0
vt 0.0337 -0.4822 0
vt 0.0273 -0.5509 0
vt 0.1250 -0.2988 0
vt 0.0834 -0.3539 0
vt 0.2348 -0.2159 0
vt 0.1760 -0.2522 0
vt 0.5685 -0.2159 0
vt 0.5040 -0.1909 0
vt 0.7199 -0.3539 0
vt 0.6782 -0.2988 0
vt 0.7695 -0.4822 0
vt 0.7506 -0.4157 0
vt 0.7506 -0.6862 0
vt 0.7199 -0.7480 0
vt 0.0000 -1.0160 0
vt 0.0834 -0.7480 0
vt 0.1250 -0.8031 0
vt 0.0526 -0.4157 0
vt 0.4984 -1.0160 0
vt 0.5040 -0.9110 0
vt 0.5685 -0.8860 0
vt 0.0526 -0.6862 0
vt 0.4361 -0.9237 0
vt 0.4984 -2.5400 0
vt 0.3048 -2.5400 0
vt 0.3671 -0.9237 0
vt 0.6272 -0.2522 0
vt 0.3048 -1.0160 0
vt 0.2348 -0.8860 0
vt 0.0337 -0.6197 0
vt 0.1760 -0.8496 0
vt 0.2992 -0.9110 0
vt -0.2582 0.0000 0
vt 0.0000 0.0000 0
vt 0.0000 -1.0160 0
vt -0.2582 -1.0160 0
vt 0.0000 0.0000 0
vt 0.2582 0.0000 0
vt 0.2582 -1.0160 0
vt 0.0000 -1.0160 0
vt -0.0819 0.5579 0
vt -0.0819 0.2997 0
vt 0.7213 0.2997 0
vt 0.7213 0.5579 0
vt 0.2229 0.5579 0
vt 0.4165 0.5579 0
vt 0.4165 0.2997 0
vt 0.2229 0.2997 0
vt -0.3048 -0.1228 0
vt 0.0000 -0.1228 0
vt 0.0000 -0.3810 0
vt -0.3048 -0.3810 0
vt -1.5240 -0.1228 0
vt 0.0000 -0.1228 0
vt 0.0000 -0.3810 0
vt -1.5240 -0.3810 0
vt 0.0000 -0.1228 0
vt 0.3048 -0.1228 0
vt 0.3048 -0.3810 0
vt 0.0000 -0.3810 0
vt 0.0000 -0.1228 0
vt 1.5240 -0.1228 0
vt 1.5240 -0.3810 0
vt 0.0000 -0.3810 0
f 98/98/98 99/99/99 85/85/85
f 88/88/88 106/106/106 85/85/85
f 88/88/88 108/108/108 103/103/103
f 99/99/99 109/109/109 110/110/110
f 69/69/69 77/77/77 93/93/93
f 88/88/88 102/102/102 107/107/107
f 109/109/109 99/99/99 82/82/82
f 85/85/85 87/87/87 105/105/105
f 82/82/82 97/97/97 95/95/95
f 88/88/88 90/90/90 108/108/108
f 88/88/88 104/104/104 101/101/101
f 106/106/106 88/88/88 107/107/107
f 100/100/100 85/85/85 106/106/106
f 98/98/98 85/85/85 105/105/105
f 96/96/96 82/82/82 98/98/98
f 70/70/70 84/84/84 74/74/74
f 69/69/69 94/94/94 91/91/91
f 104/104/104 88/88/88 103/103/103
f 102/102/102 88/88/88 101/101/101
f 92/92/92 85/85/85 100/100/100
f 99/99/99 98/98/98 82/82/82
f 97/97/97 82/82/82 96/96/96
f 83/83/83 82/82/82 95/95/95
f 69/69/69 72/72/72 78/78/78
f 94/94/94 69/69/69 93/93/93
f 69/69/69 89/89/89 88/88/88
f 86/86/86 85/85/85 92/92/92
f 82/82/82 84/84/84 70/70/70
f 70/70/70 81/81/81 80/80/80
f 69/69/69 79/79/79 76/76/76
f 89/89/89 69/69/69 91/91/91
f 90/90/90 88/88/88 89/89/89
f 87/87/87 85/85/85 86/86/86
f 84/84/84 82/82/82 83/83/83
f 70/70/70 75/75/75 81/81/81
f 73/73/73 70/70/70 80/80/80
f 79/79/79 69/69/69 78/78/78
f 77/77/77 69/69/69 76/76/76
f 75/75/75 70/70/70 74/74/74
f 71/71/71 70/70/70 73/73/73
f 69/69/69 71/71/71 72/72/72
f 71/71/71 69/69/69 70/70/70
f 155/155/155 153/153/153 154/154/154
f 153/153/153 155/155/155 156/156/156
f 114/114/114 117/117/117 115/115/115
f 128/128/128 111/111/111 127/127/127
f 130/130/130 111/111/111 129/129/129
f 132/132/132 111/111/111 131/131/131
f 118/118/118 112/112/112 133/133/133
f 112/112/112 120/120/120 134/134/134
f 137/137/137 135/135/135 136/136/136
f 121/121/121 114/114/114 138/138/138
f 114/114/114 126/126/126 123/123/123
f 111/111/111 128/128/128 117/117/117
f 111/111/111 132/132/132 129/129/129
f 112/112/112 134/134/134 133/133/133
f 141/141/141 139/139/139 140/140/140
f 136/136/136 135/135/135 142/142/142
f 139/139/139 143/143/143 140/140/140
f 146/146/146 144/144/144 145/145/145
f 114/114/114 124/124/124 138/138/138
f 127/127/127 111/111/111 147/147/147
f 111/111/111 113/113/113 131/131/131
f 139/139/139 141/141/141 112/112/112
f 149/149/149 148/148/148 135/135/135
f 142/142/142 135/135/135 150/150/150
f 144/144/144 146/146/146 143/143/143
f 148/148/148 146/146/146 145/145/145
f 114/114/114 116/116/116 125/125/125
f 112/112/112 141/141/141 119/119/119
f 149/149/149 135/135/135 151/151/151
f 150/150/150 135/135/135 122/122/122
f 146/146/146 148/148/148 152/152/152
f 111/111/111 130/130/130 147/147/147
f 135/135/135 137/137/137 151/151/151
f 114/114/114 122/122/122 135/135/135
f 143/143/143 139/139/139 144/144/144
f 148/148/148 149/149/149 152/152/152
f 124/124/124 114/114/114 123/123/123
f 122/122/122 114/114/114 121/121/121
f 113/113/113 111/111/111 112/112/112
f 116/116/116 114/114/114 115/115/115
f 117/117/117 114/114/114 111/111/111
f 113/113/113 112/112/112 118/118/118
f 120/120/120 112/112/112 119/119/119
f 126/126/126 114/114/114 125/125/125
f 157/157/157 159/159/159 160/160/160
f 159/159/159 157/157/157 158/158/158
f 161/161/161 163/163/163 164/164/164
f 163/163/163 161/161/161 162/162/162
f 167/167/167 165/165/165 166/166/166
f 165/165/165 167/167/167 168/168/168
f 36/36/36 37/37/37 39/39/39
f 34/34/34 35/35/35 37/37/37
f 32/32/32 33/33/33 35/35/35
f 30/30/30 31/31/31 33/33/33
f 28/28/28 29/29/29 31/31/31
f 26/26/26 27/27/27 29/29/29
f 24/24/24 25/25/25 27/27/27
f 22/22/22 23/23/23 25/25/25
f 20/20/20 21/21/21 23/23/23
f 18/18/18 19/19/19 21/21/21
f 16/16/16 17/17/17 19/19/19
f 14/14/14 15/15/15 17/17/17
f 12/12/12 13/13/13 15/15/15
f 10/10/10 11/11/11 13/13/13
f 8/8/8 9/9/9 11/11/11
f 6/6/6 7/7/7 9/9/9
f 4/4/4 5/5/5 7/7/7
f 1/1/1 3/3/3 5/5/5
f 42/42/42 43/43/43 45/45/45
f 44/44/44 45/45/45 47/47/47
f 46/46/46 47/47/47 49/49/49
f 48/48/48 49/49/49 51/51/51
f 50/50/50 51/51/51 53/53/53
f 52/52/52 53/53/53 55/55/55
f 54/54/54 55/55/55 57/57/57
f 56/56/56 57/57/57 59/59/59
f 58/58/58 59/59/59 61/61/61
f 60/60/60 61/61/61 63/63/63
f 62/62/62 63/63/63 65/65/65
f 64/64/64 65/65/65 67/67/67
f 66/66/66 67/67/67 68/68/68
f 2/2/2 68/68/68 3/3/3
f 38/38/38 39/39/39 41/41/41
f 67/67/67 66/66/66 64/64/64
f 65/65/65 64/64/64 62/62/62
f 63/63/63 62/62/62 60/60/60
f 61/61/61 60/60/60 58/58/58
f 59/59/59 58/58/58 56/56/56
f 57/57/57 56/56/56 54/54/54
f 55/55/55 54/54/54 52/52/52
f 53/53/53 52/52/52 50/50/50
f 51/51/51 50/50/50 48/48/48
f 49/49/49 48/48/48 46/46/46
f 47/47/47 46/46/46 44/44/44
f 45/45/45 44/44/44 42/42/42
f 43/43/43 42/42/42 40/40/40
f 41/41/41 40/40/40 38/38/38
f 39/39/39 38/38/38 36/36/36
f 37/37/37 36/36/36 34/34/34
f 35/35/35 34/34/34 32/32/32
f 33/33/33 32/32/32 30/30/30
f 31/31/31 30/30/30 28/28/28
f 29/29/29 28/28/28 26/26/26
f 27/27/27 26/26/26 24/24/24
f 25/25/25 24/24/24 22/22/22
f 23/23/23 22/22/22 20/20/20
f 21/21/21 20/20/20 18/18/18
f 19/19/19 18/18/18 16/16/16
f 17/17/17 16/16/16 14/14/14
f 15/15/15 14/14/14 12/12/12
f 5/5/5 4/4/4 1/1/1
f 7/7/7 6/6/6 4/4/4
f 9/9/9 8/8/8 6/6/6
f 11/11/11 10/10/10 8/8/8
f 13/13/13 12/12/12 10/10/10
f 68/68/68 2/2/2 66/66/66
f 40/40/40 41/41/41 43/43/43
f 3/3/3 1/1/1 2/2/2
f 171/171/171 169/169/169 170/170/170
f 169/169/169 171/171/171 172/172/172
f 175/175/175 173/173/173 174/174/174
f 173/173/173 175/175/175 176/176/176
f 177/177/177 179/179/179 180/180/180
f 179/179/179 177/177/177 178/178/178
f 183/183/183 181/181/181 182/182/182
f 181/181/181 183/183/183 184/184/184
g body_2
v 0.299749 1.920276 0.687635
v 0.299749 1.989054 0.694008
v 0.557917 1.989054 0.694008
v 0.299749 1.853839 0.668732
v 0.557917 1.920276 0.687635
v 0.299749 1.792007 0.637943
v 0.557917 1.853839 0.668732
v 0.299749 1.736885 0.596317
v 0.557917 1.792007 0.637943
v 0.299749 1.690351 0.545271
v 0.557917 1.736885 0.596317
v 0.299749 1.653988 0.486544
v 0.557917 1.690351 0.545271
v 0.299749 1.629036 0.422135
v 0.557917 1.653988 0.486544
v 0.299749 1.616344 0.354237
v 0.557917 1.629036 0.422135
v 0.299749 1.616344 0.285164
v 0.557917 1.616344 0.354237
v 0.299749 1.629036 0.217267
v 0.557917 1.616344 0.285164
v 0.299749 1.653988 0.152858
v 0.557917 1.629036 0.217267
v 0.299749 1.690351 0.094130
v 0.557917 1.653988 0.152858
v 0.299749 1.736885 0.043084
v 0.557917 1.690351 0.094130
v 0.299749 1.792007 0.001458
v 0.557917 1.736885 0.043084
v 0.299749 1.853839 -0.029331
v 0.557917 1.792007 0.001458
v 0.299749 1.920276 -0.048233
v 0.557917 1.853839 -0.029331
v 0.299749 1.989054 -0.054607
v 0.557917 1.920276 -0.048233
v 0.299749 2.057833 -0.048233
v 0.557917 1.989054 -0.054607
v 0.299749 2.124270 -0.029331
v 0.557917 2.057833 -0.048233
v 0.299749 2.186102 0.001458
v 0.557917 2.124270 -0.029331
v 0.299749 2.241224 0.043084
v 0.557917 2.186102 0.001458
v 0.299749 2.287758 0.094130
v 0.557917 2.241224 0.043084
v 0.299749 2.324121 0.152858
v 0.557917 2.287758 0.094130
v 0.299749 2.349073 0.217267
v 0.557917 2.324121 0.152858
v 0.299749 2.361765 0.285164
v 0.557917 2.349073 0.217267
v 0.299749 2.361765 0.354237
v 0.557917 2.361765 0.285164
v 0.299749 2.349073 0.422135
v 0.557917 2.361765 0.354237
v 0.299749 2.324121 0.486544
v 0.557917 2.349073 0.422135
v 0.299749 2.287758 0.545271
v 0.557917 2.324121 0.486544
v 0.299749 2.241224 0.596317
v 0.557917 2.287758 0.545271
v 0.299749 2.186102 0.637943
v 0.557917 2.241224 0.596317
v 0.299749 2.124270 0.668732
v 0.557917 2.186102 0.637943
v 0.299749 2.057833 0.687635
v 0.557917 2.124270 0.668732
v 0.557917 2.057833 0.687635
v 0.299749 2.540000 -0.081908
v 0.299749 1.524000 -0.081908
v 0.299749 1.989054 -0.054607
v 0.299749 2.057833 -0.048233
v 0.299749 1.920276 -0.048233
v 0.299749 1.690351 0.094130
v 0.299749 1.736885 0.043084
v 0.299749 2.241224 0.043084
v 0.299749 2.287758 0.094130
v 0.299749 2.124270 -0.029331
v 0.299749 2.186102 0.001458
v 0.299749 1.853839 -0.029331
v 0.299749 1.792007 0.001458
v 0.299749 1.524000 0.222892
v 0.299749 1.629036 0.217267
v 0.299749 1.653988 0.152858
v 0.299749 1.524000 0.721310
v 0.299749 1.792007 0.637943
v 0.299749 1.736885 0.596317
v 0.299749 2.540000 0.721310
v 0.299749 2.361765 0.354237
v 0.299749 2.349073 0.422135
v 0.299749 2.361765 0.285164
v 0.299749 1.853839 0.668732
v 0.299749 2.324121 0.152858
v 0.299749 2.349073 0.217267
v 0.299749 1.616344 0.285164
v 0.299749 1.629036 0.422135
v 0.299749 1.616344 0.354237
v 0.299749 1.653988 0.486544
v 0.299749 1.524000 0.416510
v 0.299749 1.920276 0.687635
v 0.299749 2.186102 0.637943
v 0.299749 2.124270 0.668732
v 0.299749 2.287758 0.545271
v 0.299749 2.241224 0.596317
v 0.299749 1.690351 0.545271
v 0.299749 1.989054 0.694008
v 0.299749 2.057833 0.687635
v 0.299749 2.324121 0.486544
v 0.299749 0.000000 0.222892
v 0.299749 0.000000 0.416510
v 0.557917 2.540000 0.721310
v 0.557917 1.524000 0.721310
v 0.557917 1.989054 0.694008
v 0.557917 2.540000 -0.081908
v 0.557917 2.361765 0.285164
v 0.557917 2.349073 0.217267
v 0.557917 2.361765 0.354237
v 0.557917 1.920276 0.687635
v 0.557917 1.690351 0.545271
v 0.557917 1.736885 0.596317
v 0.557917 2.057833 -0.048233
v 0.557917 1.989054 -0.054607
v 0.557917 2.241224 0.043084
v 0.557917 2.186102 0.001458
v 0.557917 2.324121 0.152858
v 0.557917 2.287758 0.094130
v 0.557917 2.324121 0.486544
v 0.557917 2.349073 0.422135
v 0.557917 2.186102 0.637943
v 0.557917 2.241224 0.596317
v 0.557917 2.057833 0.687635
v 0.557917 2.124270 0.668732
v 0.557917 1.853839 0.668732
v 0.557917 1.792007 0.637943
v 0.557917 1.524000 -0.081908
v 0.557917 1.792007 0.001458
v 0.557917 1.736885 0.043084
v 0.557917 2.124270 -0.029331
v 0.557917 1.524000 0.416510
v 0.557917 1.629036 0.422135
v 0.557917 1.653988 0.486544
v 0.557917 1.853839 -0.029331
v 0.557917 1.616344 0.354237
v 0.557917 0.000000 0.416510
v 0.557917 0.000000 0.222892
v 0.557917 1.616344 0.285164
v 0.557917 2.287758 0.545271
v 0.557917 1.524000 0.222892
v 0.557917 1.653988 0.152858
v 0.557917 1.920276 -0.048233
v 0.557917 1.690351 0.094130
v 0.557917 1.629036 0.217267
v 0.557917 2.540000 0.721310
v 0.299749 2.540000 0.721310
v 0.299749 1.524000 0.721310
v 0.557917 1.524000 0.721310
v 0.299749 2.540000 -0.081908
v 0.557917 2.540000 -0.081908
v 0.557917 1.524000 -0.081908
v 0.299749 1.524000 -0.081908
v 0.557917 2.540000 -0.081908
v 0.299749 2.540000 -0.081908
v 0.299749 2.540000 0.721310
v 0.557917 2.540000 0.721310
v 0.557917 0.000000 0.222892
v 0.557917 0.000000 0.416510
v 0.299749 0.000000 0.416510
v 0.299749 0.000000 0.222892
v 0.557917 1.524000 0.416510
v 0.557917 1.524000 0.721310
v 0.299749 1.524000 0.721310
v 0.299749 1.524000 0.416510
v 0.557917 0.000000 0.416510
v 0.557917 1.524000 0.416510
v 0.299749 1.524000 0.416510
v 0.299749 0.000000 0.416510
v 0.557917 1.524000 -0.081908
v 0.557917 1.524000 0.222892
v 0.299749 1.524000 0.222892
v 0.299749 1.524000 -0.081908
v 0.557917 1.524000 0.222892
v 0.557917 0.000000 0.222892
v 0.299749 0.000000 0.222892
v 0.299749 1.524000 0.222892
vn 0.000 0.184 -0.983
vn 0.000 0.000 -1.000
vn 0.000 0.000 -1.000
vn 0.000 0.361 -0.932
vn 0.000 0.184 -0.983
vn 0.000 0.526 -0.850
vn 0.000 0.361 -0.932
vn 0.000 0.674 -0.739
vn 0.000 0.526 -0.850
vn 0.000 0.798 -0.603
vn 0.000 0.674 -0.739
vn 0.000 0.895 -0.446
vn 0.000 0.798 -0.603
vn 0.000 0.962 -0.274
vn 0.000 0.895 -0.446
vn 0.000 0.996 -0.092
vn 0.000 0.962 -0.274
vn 0.000 0.996 0.092
vn 0.000 0.996 -0.092
vn 0.000 0.962 0.274
vn 0.000 0.996 0.092
vn 0.000 0.895 0.446
vn 0.000 0.962 0.274
vn 0.000 0.798 0.603
vn 0.000 0.895 0.446
vn 0.000 0.674 0.739
vn 0.000 0.798 0.603
vn 0.000 0.526 0.850
vn 0.000 0.674 0.739
vn 0.000 0.361 0.932
vn 0.000 0.526 0.850
vn 0.000 0.184 0.983
vn 0.000 0.361 0.932
vn 0.000 0.000 1.000
vn 0.000 0.184 0.983
vn 0.000 -0.184 0.983
vn 0.000 0.000 1.000
vn 0.000 -0.361 0.932
vn 0.000 -0.184 0.983
vn 0.000 -0.526 0.850
vn 0.000 -0.361 0.932
vn 0.000 -0.674 0.739
vn 0.000 -0.526 0.850
vn 0.000 -0.798 0.603
vn 0.000 -0.674 0.739
vn 0.000 -0.895 0.446
vn 0.000 -0.798 0.603
vn 0.000 -0.962 0.274
vn 0.000 -0.895 0.446
vn 0.000 -0.996 0.092
vn 0.000 -0.962 0.274
vn 0.000 -0.996 -0.092
vn 0.000 -0.996 0.092
vn 0.000 -0.962 -0.274
vn 0.000 -0.996 -0.092
vn 0.000 -0.895 -0.446
vn 0.000 -0.962 -0.274
vn 0.000 -0.798 -0.603
vn 0.000 -0.895 -0.446
vn 0.000 -0.674 -0.739
vn 0.000 -0.798 -0.603
vn 0.000 -0.526 -0.850
vn 0.000 -0.674 -0.739
vn 0.000 -0.361 -0.932
vn 0.000 -0.526 -0.850
vn 0.000 -0.184 -0.983
vn 0.000 -0.361 -0.932
vn 0.000 -0.184 -0.983
vn -1.000 0.000 0.000
vn -1.000 0.000 0.000
vn -1.000 0.000 0.000
vn -1.000 0.000 0.000
vn -1.000 0.000 0.000
vn -1.000 0.000 0.000
vn -1.000 0.000 0.000
vn -1.000 0.000 0.000
vn -1.000 0.000 0.000
vn -1.000 0.000 0.000
vn -1.000 0.000 0.000
vn -1.000 0.000 0.000
vn -1.000 0.000 0.000
vn -1.000 0.000 0.000
vn -1.000 0.000 0.000
vn -1.000 0.000 0.000
vn -1.000 0.000 0.000
vn -1.000 0.000 0.000
vn -1.000 0.000 0.000
vn -1.000 0.000 0.000
vn -1.000 0.000 0.000
vn -1.000 0.000 0.000
vn -1.000 0.000 0.000
vn -1.000 0.000 0.000
vn -1.000 0.000 0.000
vn -1.000 0.000 0.000
vn -1.000 0.000 0.000
vn -1.000 0.000 0.000
vn -1.000 0.000 0.000
vn -1.000 0.000 0.000
vn -1.000 0.000 0.000
vn -1.000 0.000 0.000
vn -1.000 0.000 0.000
vn -1.000 0.000 0.000
vn -1.000 0.000 0.000
vn -1.000 0.000 0.000
vn -1.000 0.000 0.000
vn -1.000 0.000 0.000
vn -1.000 0.000 0.000
vn -1.000 0.000 0.000
vn -1.000 0.000 0.000
vn -1.000 0.000 0.000
vn 1.000 0.000 0.000
vn 1.000 0.000 0.000
vn 1.000 0.000 0.000
vn 1.000 0.000 0.000
vn 1.000 0.000 0.000
vn 1.000 0.000 0.000
vn 1.000 0.000 0.000
vn 1.000 0.000 0.000
vn 1.000 0.000 0.000
vn 1.000 0.000 0.000
vn 1.000 0.000 0.000
vn 1.000 0.000 0.000
vn 1.000 0.000 0.000
vn 1.000 0.000 0.000
vn 1.000 0.000 0.000
vn 1.000 0.000 0.000
vn 1.000 0.000 0.000
vn 1.000 0.000 0.000
vn 1.000 0.000 0.000
vn 1.000 0.000 0.000
vn 1.000 0.000 0.000
vn 1.000 0.000 0.000
vn 1.000 0.000 0.000
vn 1.000 0.000 0.000
vn 1.000 0.000 0.000
vn 1.000 0.000 0.000
vn 1.000 0.000 0.000
vn 1.000 0.000 0.000
vn 1.000 0.000 0.000
vn 1.000 0.000 0.000
vn 1.000 0.000 0.000
vn 1.000 0.000 0.000
vn 1.000 0.000 0.000
vn 1.000 0.000 0.000
vn 1.000 0.000 0.000
vn 1.000 0.000 0.000
vn 1.000 0.000 0.000
vn 1.000 0.000 0.000
vn 1.000 0.000 0.000
vn 1.000 0.000 0.000
vn 1.000 0.000 0.000
vn 1.000 0.000 0.000
vn 0.000 0.000 1.000
vn 0.000 0.000 1.000
vn 0.000 0.000 1.000
vn 0.000 0.000 1.000
vn 0.000 0.000 -1.000
vn 0.000 0.000 -1.000
vn 0.000 0.000 -1.000
vn 0.000 0.000 -1.000
vn 0.000 1.000 0.000
vn 0.000 1.000 0.000
vn 0.000 1.000 0.000
vn 0.000 1.000 0.000
vn 0.000 -1.000 0.000
vn 0.000 -1.000 0.000
vn 0.000 -1.000 0.000
vn 0.000 -1.000 0.000
vn 0.000 -1.000 0.000
vn 0.000 -1.000 0.000
vn 0.000 -1.000 0.000
vn 0.000 -1.000 0.000
vn 0.000 0.000 1.000
vn 0.000 0.000 1.000
vn 0.000 0.000 1.000
vn 0.000 0.000 1.000
vn 0.000 -1.000 0.000
vn 0.000 -1.000 0.000
vn 0.000 -1.000 0.000
vn 0.000 -1.000 0.000
vn 0.000 0.000 -1.000
vn 0.000 0.000 -1.000
vn 0.000 0.000 -1.000
vn 0.000 0.000 -1.000
vt -0.1848 0.3810 0
vt 0.0000 0.3810 0
vt 0.0000 0.1228 0
vt 5.9136 0.3810 0
vt -0.1848 0.1228 0
vt 5.7288 0.3810 0
vt 5.9136 0.1228 0
vt 5.5440 0.3810 0
vt 5.7288 0.1228 0
vt 5.3592 0.3810 0
vt 5.5440 0.1228 0
vt 5.1744 0.3810 0
vt 5.3592 0.1228 0
vt 4.9896 0.3810 0
vt 5.1744 0.1228 0
vt 4.8048 0.3810 0
vt 4.9896 0.1228 0
vt 4.6200 0.3810 0
vt 4.8048 0.1228 0
vt 4.4352 0.3810 0
vt 4.6200 0.1228 0
vt 4.2504 0.3810 0
vt 4.4352 0.1228 0
vt 4.0656 0.3810 0
vt 4.2504 0.1228 0
vt 3.8808 0.3810 0
vt 4.0656 0.1228 0
vt 3.6960 0.3810 0
vt 3.8808 0.1228 0
vt 3.5112 0.3810 0
vt 3.6960 0.1228 0
vt 3.3264 0.3810 0
vt 3.5112 0.1228 0
vt 3.1416 0.3810 0
vt 3.3264 0.1228 0
vt 2.9568 0.3810 0
vt 3.1416 0.1228 0
vt 2.7720 0.3810 0
vt 2.9568 0.1228 0
vt 2.5872 0.3810 0
vt 2.7720 0.1228 0
vt 2.4024 0.3810 0
vt 2.5872 0.1228 0
vt 2.2176 0.3810 0
vt 2.4024 0.1228 0
vt 2.0328 0.3810 0
vt 2.2176 0.1228 0
vt 1.8480 0.3810 0
vt 2.0328 0.1228 0
vt 1.6632 0.3810 0
vt 1.8480 0.1228 0
vt 1.4784 0.3810 0
vt 1.6632 0.1228 0
vt 1.2936 0.3810 0
vt 1.4784 0.1228 0
vt 1.1088 0.3810 0
vt 1.2936 0.1228 0
vt 0.9240 0.3810 0
vt 1.1088 0.1228 0
vt 0.7392 0.3810 0
vt 0.9240 0.1228 0
vt 0.5544 0.3810 0
vt 0.7392 0.1228 0
vt 0.3696 0.3810 0
vt 0.5544 0.1228 0
vt 0.1848 0.3810 0
vt 0.3696 0.1228 0
vt 0.1848 0.1228 0
vt 0.0000 0.0000 0
vt 0.0000 -1.0160 0
vt -0.0273 -0.5509 0
vt -0.0337 -0.4822 0
vt -0.0337 -0.6197 0
vt -0.1760 -0.8496 0
vt -0.1250 -0.8031 0
vt -0.1250 -0.2988 0
vt -0.1760 -0.2522 0
vt -0.0526 -0.4157 0
vt -0.0834 -0.3539 0
vt -0.0526 -0.6862 0
vt -0.0834 -0.7480 0
vt -0.3048 -1.0160 0
vt -0.2992 -0.9110 0
vt -0.2348 -0.8860 0
vt -0.8032 -1.0160 0
vt -0.7199 -0.7480 0
vt -0.6782 -0.8031 0
vt -0.8032 0.0000 0
vt -0.4361 -0.1782 0
vt -0.5040 -0.1909 0
vt -0.3671 -0.1782 0
vt -0.7506 -0.6862 0
vt -0.2348 -0.2159 0
vt -0.2992 -0.1909 0
vt -0.3671 -0.9237 0
vt -0.5040 -0.9110 0
vt -0.4361 -0.9237 0
vt -0.5685 -0.8860 0
vt -0.4984 -1.0160 0
vt -0.7695 -0.6197 0
vt -0.7199 -0.3539 0
vt -0.7506 -0.4157 0
vt -0.6272 -0.2522 0
vt -0.6782 -0.2988 0
vt -0.6272 -0.8496 0
vt -0.7759 -0.5509 0
vt -0.7695 -0.4822 0
vt -0.5685 -0.2159 0
vt -0.3048 -2.5400 0
vt -0.4984 -2.5400 0
vt 0.8032 0.0000 0
vt 0.8032 -1.0160 0
vt 0.7759 -0.5509 0
vt 0.0000 0.0000 0
vt 0.3671 -0.1782 0
vt 0.2992 -0.1909 0
vt 0.4361 -0.1782 0
vt 0.7695 -0.6197 0
vt 0.6272 -0.8496 0
vt 0.6782 -0.8031 0
vt 0.0337 -0.4822 0
vt 0.0273 -0.5509 0
vt 0.1250 -0.2988 0
vt 0.0834 -0.3539 0
vt 0.2348 -0.2159 0
vt 0.1760 -0.2522 0
vt 0.5685 -0.2159 0
vt 0.5040 -0.1909 0
vt 0.7199 -0.3539 0
vt 0.6782 -0.2988 0
vt 0.7695 -0.4822 0
vt 0.7506 -0.4157 0
vt 0.7506 -0.6862 0
vt 0.7199 -0.7480 0
vt 0.0000 -1.0160 0
vt 0.0834 -0.7480 0
vt 0.1250 -0.8031 0
vt 0.0526 -0.4157 0
vt 0.4984 -1.0160 0
vt 0.5040 -0.9110 0
vt 0.5685 -0.8860 0
vt 0.0526 -0.6862 0
vt 0.4361 -0.9237 0
vt 0.4984 -2.5400 0
vt 0.3048 -2.5400 0
vt 0.3671 -0.9237 0
vt 0.6272 -0.2522 0
vt 0.3048 -1.0160 0
vt 0.2348 -0.8860 0
vt 0.0337 -0.6197 0
vt 0.1760 -0.8496 0
vt 0.2992 -0.9110 0
vt -0.2582 0.0000 0
vt 0.0000 0.0000 0
vt 0.0000 -1.0160 0
vt -0.2582 -1.0160 0
vt 0.0000 0.0000 0
vt 0.2582 0.0000 0
vt 0.2582 -1.0160 0
vt 0.0000 -1.0160 0
vt -0.0819 0.5579 0
vt -0.0819 0.2997 0
vt 0.7213 0.2997 0
vt 0.7213 0.5579 0
vt 0.2229 0.5579 0
vt 0.4165 0.5579 0
vt 0.4165 0.2997 0
vt 0.2229 0.2997 0
vt -0.3048 -0.1228 0
vt 0.0000 -0.1228 0
vt 0.0000 -0.3810 0
vt -0.3048 -0.3810 0
vt -1.5240 -0.1228 0
vt 0.0000 -0.1228 0
vt 0.0000 -0.3810 0
vt -1.5240 -0.3810 0
vt 0.0000 -0.1228 0
vt 0.3048 -0.1228 0
vt 0.3048 -0.3810 0
vt 0.0000 -0.3810 0
vt 0.0000 -0.1228 0
vt 1.5240 -0.1228 0
vt 1.5240 -0.3810 0
vt 0.0000 -0.3810 0
f 282/282/282 283/283/283 269/269/269
f 272/272/272 290/290/290 269/269/269
f 272/272/272 292/292/292 287/287/287
f 283/283/283 293/293/293 294/294/294
f 253/253/253 261/261/261 277/277/277
f 272/272/272 286/286/286 291/291/291
f 293/293/293 283/283/283 266/266/266
f 269/269/269 271/271/271 289/289/289
f 266/266/266 281/281/281 279/279/279
f 272/272/272 274/274/274 292/292/292
f 272/272/272 288/288/288 285/285/285
f 290/290/290 272/272/272 291/291/291
f 284/284/284 269/269/269 290/290/290
f 282/282/282 269/269/269 289/289/289
f 280/280/280 266/266/266 282/282/282
f 254/254/254 268/268/268 258/258/258
f 253/253/253 278/278/278 275/275/275
f 288/288/288 272/272/272 287/287/287
f 255/255/255 253/253/253 254/254/254
f 253/253/253 255/255/255 256/256/256
f 255/255/255 254/254/254 257/257/257
f 259/259/259 254/254/254 258/258/258
f 261/261/261 253/253/253 260/260/260
f 263/263/263 253/253/253 262/262/262
f 257/257/257 254/254/254 264/264/264
f 254/254/254 259/259/259 265/265/265
f 268/268/268 266/266/266 267/267/267
f 271/271/271 269/269/269 270/270/270
f 274/274/274 272/272/272 273/273/273
f 273/273/273 253/253/253 275/275/275
f 253/253/253 263/263/263 260/260/260
f 254/254/254 265/265/265 264/264/264
f 266/266/266 268/268/268 254/254/254
f 270/270/270 269/269/269 276/276/276
f 286/286/286 272/272/272 285/285/285
f 278/278/278 253/253/253 277/277/277
f 253/253/253 256/256/256 262/262/262
f 267/267/267 266/266/266 279/279/279
f 281/281/281 266/266/266 280/280/280
f 283/283/283 282/282/282 266/266/266
f 276/276/276 269/269/269 284/284/284
f 253/253/253 273/273/273 272/272/272
f 337/337/337 339/339/339 340/340/340
f 339/339/339 337/337/337 338/338/338
f 300/300/300 298/298/298 299/299/299
f 301/301/301 298/298/298 295/295/295
f 332/332/332 333/333/333 336/336/336
f 327/327/327 323/323/323 328/328/328
f 298/298/298 306/306/306 319/319/319
f 319/319/319 321/321/321 335/335/335
f 295/295/295 314/314/314 331/331/331
f 330/330/330 332/332/332 336/336/336
f 334/334/334 319/319/319 306/306/306
f 333/333/333 319/319/319 335/335/335
f 296/296/296 325/325/325 303/303/303
f 298/298/298 300/300/300 309/309/309
f 332/332/332 330/330/330 329/329/329
f 328/328/328 330/330/330 327/327/327
f 326/326/326 319/319/319 334/334/334
f 333/333/333 332/332/332 319/319/319
f 323/323/323 325/325/325 296/296/296
f 295/295/295 297/297/297 315/315/315
f 311/311/311 295/295/295 331/331/331
f 298/298/298 308/308/308 322/322/322
f 330/330/330 328/328/328 329/329/329
f 323/323/323 327/327/327 324/324/324
f 320/320/320 319/319/319 326/326/326
f 325/325/325 323/323/323 324/324/324
f 296/296/296 318/318/318 317/317/317
f 295/295/295 316/316/316 313/313/313
f 295/295/295 312/312/312 301/301/301
f 298/298/298 310/310/310 307/307/307
f 305/305/305 298/298/298 322/322/322
f 321/321/321 319/319/319 320/320/320
f 296/296/296 304/304/304 318/318/318
f 302/302/302 296/296/296 317/317/317
f 316/316/316 295/295/295 315/315/315
f 314/314/314 295/295/295 313/313/313
f 312/312/312 295/295/295 311/311/311
f 298/298/298 301/301/301 299/299/299
f 310/310/310 298/298/298 309/309/309
f 308/308/308 298/298/298 307/307/307
f 306/306/306 298/298/298 305/305/305
f 304/304/304 296/296/296 303/303/303
f 297/297/297 296/296/296 302/302/302
f 297/297/297 295/295/295 296/296/296
f 343/343/343 341/341/341 342/342/342
f 341/341/341 343/343/343 344/344/344
f 345/345/345 347/347/347 348/348/348
f 347/347/347 345/345/345 346/346/346
f 351/351/351 349/349/349 350/350/350
f 349/349/349 351/351/351 352/352/352
f 185/185/185 187/187/187 189/189/189
f 188/188/188 189/189/189 191/191/191
f 190/190/190 191/191/191 193/193/193
f 192/192/192 193/193/193 195/195/195
f 194/194/194 195/195/195 197/197/197
f 196/196/196 197/197/197 199/199/199
f 198/198/198 199/199/199 201/201/201
f 200/200/200 201/201/201 203/203/203
f 202/202/202 203/203/203 205/205/205
f 204/204/204 205/205/205 207/207/207
f 206/206/206 207/207/207 209/209/209
f 208/208/208 209/209/209 211/211/211
f 210/210/210 211/211/211 213/213/213
f 212/212/212 213/213/213 215/215/215
f 214/214/214 215/215/215 217/217/217
f 216/216/216 217/217/217 219/219/219
f 218/218/218 219/219/219 221/221/221
f 220/220/220 221/221/221 223/223/223
f 222/222/222 223/223/223 225/225/225
f 224/224/224 225/225/225 227/227/227
f 226/226/226 227/227/227 229/229/229
f 228/228/228 229/229/229 231/231/231
f 230/230/230 231/231/231 233/233/233
f 232/232/232 233/233/233 235/235/235
f 234/234/234 235/235/235 237/237/237
f 236/236/236 237/237/237 239/239/239
f 238/238/238 239/239/239 241/241/241
f 240/240/240 241/241/241 243/243/243
f 242/242/242 243/243/243 245/245/245
f 244/244/244 245/245/245 247/247/247
f 246/246/246 247/247/247 249/249/249
f 248/248/248 249/249/249 251/251/251
f 250/250/250 251/251/251 252/252/252
f 186/186/186 252/252/252 187/187/187
f 252/252/252 186/186/186 250/250/250
f 251/251/251 250/250/250 248/248/248
f 249/249/249 248/248/248 246/246/246
f 247/247/247 246/246/246 244/244/244
f 245/245/245 244/244/244 242/242/242
f 243/243/243 242/242/242 240/240/240
f 241/241/241 240/240/240 238/238/238
f 239/239/239 238/238/238 236/236/236
f 237/237/237 236/236/236 234/234/234
f 235/235/235 234/234/234 232/232/232
f 233/233/233 232/232/232 230/230/230
f 231/231/231 230/230/230 228/228/228
f 229/229/229 228/228/228 226/226/226
f 227/227/227 226/226/226 224/224/224
f 225/225/225 224/224/224 222/222/222
f 223/223/223 222/222/222 220/220/220
f 221/221/221 220/220/220 218/218/218
f 219/219/219 218/218/218 216/216/216
f 217/217/217 216/216/216 214/214/214
f 215/215/215 214/214/214 212/212/212
f 213/213/213 212/212/212 210/210/210
f 211/211/211 210/210/210 208/208/208
f 209/209/209 208/208/208 206/206/206
f 207/207/207 206/206/206 204/204/204
f 205/205/205 204/204/204 202/202/202
f 203/203/203 202/202/202 200/200/200
f 201/201/201 200/200/200 198/198/198
f 199/199/199 198/198/198 196/196/196
f 197/197/197 196/196/196 194/194/194
f 195/195/195 194/194/194 192/192/192
f 193/193/193 192/192/192 190/190/190
f 191/191/191 190/190/190 188/188/188
f 189/189/189 188/188/188 185/185/185
f 187/187/187 185/185/185 186/186/186
f 353/353/353 355/355/355 356/356/356
f 355/355/355 353/353/353 354/354/354
f 359/359/359 357/357/357 358/358/358
f 357/357/357 359/359/359 360/360/360
f 361/361/361 363/363/363 364/364/364
f 363/363/363 361/361/361 362/362/362
f 367/367/367 365/365/365 366/366/366
f 365/365/365 367/367/367 368/368/368
