# Wavefront .OBJ file for tesselated shape: obstacle _2-1 path: C:\Users\Melen\Desktop\SOLIDWORKS\obstacle _2.SLDPRT

g body_1
v 0.202368 2.540000 -0.250069
v 0.202368 2.540000 -0.516039
v 0.202368 1.270000 -0.516039
v 0.202368 1.270000 -0.250069
v 1.419468 2.540000 -0.516039
v 0.202368 2.540000 -0.516039
v 0.202368 2.540000 -0.250069
v 1.419468 2.540000 -0.250069
v 1.419468 2.540000 -0.516039
v 1.419468 2.540000 -0.250069
v 1.419468 1.270000 -0.250069
v 1.419468 1.270000 -0.516039
v 0.896158 1.270000 -0.516039
v 1.419468 1.270000 -0.516039
v 1.419468 1.270000 -0.250069
v 0.896158 1.270000 -0.250069
v 0.896158 0.000000 -0.516039
v 0.896158 1.270000 -0.516039
v 0.896158 1.270000 -0.250069
v 0.896158 0.000000 -0.250069
v 0.896158 0.000000 -0.516039
v 0.896158 0.000000 -0.250069
v 0.717561 0.000000 -0.250069
v 0.717561 0.000000 -0.516039
v 0.202368 1.270000 -0.516039
v 0.717561 1.270000 -0.516039
v 0.717561 1.270000 -0.250069
v 0.202368 1.270000 -0.250069
v 0.717561 1.270000 -0.516039
v 0.717561 0.000000 -0.516039
v 0.717561 0.000000 -0.250069
v 0.717561 1.270000 -0.250069
v 1.354828 1.553394 -0.250069
v 0.717561 1.270000 -0.250069
v 0.896158 1.270000 -0.250069
v 1.419468 2.540000 -0.250069
v 1.354828 2.458557 -0.250069
v 0.202368 2.540000 -0.250069
v 0.275127 2.458557 -0.250069
v 0.202368 1.270000 -0.250069
v 0.275127 1.553394 -0.250069
v 1.419468 1.270000 -0.250069
v 0.896158 0.000000 -0.250069
v 0.717561 0.000000 -0.250069
v 1.419468 2.540000 -0.516039
v 1.419468 1.270000 -0.516039
v 1.354828 1.553394 -0.516039
v 0.896158 1.270000 -0.516039
v 0.717561 0.000000 -0.516039
v 0.717561 1.270000 -0.516039
v 0.275127 1.553394 -0.516039
v 0.202368 2.540000 -0.516039
v 0.275127 2.458557 -0.516039
v 1.354828 2.458557 -0.516039
v 0.202368 1.270000 -0.516039
v 0.896158 0.000000 -0.516039
v 0.275127 1.553394 -0.516039
v 0.275127 2.458557 -0.516039
v 0.275127 2.458557 -0.250069
v 0.275127 1.553394 -0.250069
v 0.275127 2.458557 -0.516039
v 1.354828 2.458557 -0.516039
v 1.354828 2.458557 -0.250069
v 0.275127 2.458557 -0.250069
v 1.354828 2.458557 -0.516039
v 1.354828 1.553394 -0.516039
v 1.354828 1.553394 -0.250069
v 1.354828 2.458557 -0.250069
v 1.354828 1.553394 -0.516039
v 0.275127 1.553394 -0.516039
v 0.275127 1.553394 -0.250069
v 1.354828 1.553394 -0.250069
vn -1.000 0.000 0.000
vn -1.000 0.000 0.000
vn -1.000 0.000 0.000
vn -1.000 0.000 0.000
vn 0.000 1.000 0.000
vn 0.000 1.000 0.000
vn 0.000 1.000 0.000
vn 0.000 1.000 0.000
vn 1.000 0.000 0.000
vn 1.000 0.000 0.000
vn 1.000 0.000 0.000
vn 1.000 0.000 0.000
vn 0.000 -1.000 0.000
vn 0.000 -1.000 0.000
vn 0.000 -1.000 0.000
vn 0.000 -1.000 0.000
vn 1.000 0.000 0.000
vn 1.000 0.000 0.000
vn 1.000 0.000 0.000
vn 1.000 0.000 0.000
vn 0.000 -1.000 0.000
vn 0.000 -1.000 0.000
vn 0.000 -1.000 0.000
vn 0.000 -1.000 0.000
vn 0.000 -1.000 0.000
vn 0.000 -1.000 0.000
vn 0.000 -1.000 0.000
vn 0.000 -1.000 0.000
vn -1.000 0.000 0.000
vn -1.000 0.000 0.000
vn -1.000 0.000 0.000
vn -1.000 0.000 0.000
vn 0.000 0.000 1.000
vn 0.000 0.000 1.000
vn 0.000 0.000 1.000
vn 0.000 0.000 1.000
vn 0.000 0.000 1.000
vn 0.000 0.000 1.000
vn 0.000 0.000 1.000
vn 0.000 0.000 1.000
vn 0.000 0.000 1.000
vn 0.000 0.000 1.000
vn 0.000 0.000 1.000
vn 0.000 0.000 1.000
vn 0.000 0.000 -1.000
vn 0.000 0.000 -1.000
vn 0.000 0.000 -1.000
vn 0.000 0.000 -1.000
vn 0.000 0.000 -1.000
vn 0.000 0.000 -1.000
vn 0.000 0.000 -1.000
vn 0.000 0.000 -1.000
vn 0.000 0.000 -1.000
vn 0.000 0.000 -1.000
vn 0.000 0.000 -1.000
vn 0.000 0.000 -1.000
vn 1.000 0.000 0.000
vn 1.000 0.000 0.000
vn 1.000 0.000 0.000
vn 1.000 0.000 0.000
vn 0.000 -1.000 0.000
vn 0.000 -1.000 0.000
vn 0.000 -1.000 0.000
vn 0.000 -1.000 0.000
vn -1.000 0.000 0.000
vn -1.000 0.000 0.000
vn -1.000 0.000 0.000
vn -1.000 0.000 0.000
vn 0.000 1.000 0.000
vn 0.000 1.000 0.000
vn 0.000 1.000 0.000
vn 0.000 1.000 0.000
vt -0.2660 0.0000 0
vt 0.0000 0.0000 0
vt 0.0000 -1.2700 0
vt -0.2660 -1.2700 0
vt -0.5160 1.4195 0
vt -0.5160 0.2024 0
vt -0.2501 0.2024 0
vt -0.2501 1.4195 0
vt 0.0000 0.0000 0
vt 0.2660 0.0000 0
vt 0.2660 -1.2700 0
vt 0.0000 -1.2700 0
vt 0.1150 -0.5233 0
vt 0.1150 0.0000 0
vt 0.3810 0.0000 0
vt 0.3810 -0.5233 0
vt 0.1150 -1.2700 0
vt 0.1150 0.0000 0
vt 0.3810 0.0000 0
vt 0.3810 -1.2700 0
vt -0.5160 0.8962 0
vt -0.2501 0.8962 0
vt -0.2501 0.7176 0
vt -0.5160 0.7176 0
vt 0.1150 0.0000 0
vt 0.1150 0.5152 0
vt 0.3810 0.5152 0
vt 0.3810 0.0000 0
vt -0.1150 0.0000 0
vt -0.1150 -1.2700 0
vt -0.3810 -1.2700 0
vt -0.3810 0.0000 0
vt -1.1525 -0.9866 0
vt -0.5152 -1.2700 0
vt -0.6938 -1.2700 0
vt -1.2171 0.0000 0
vt -1.1525 -0.0814 0
vt 0.0000 0.0000 0
vt -0.0728 -0.0814 0
vt 0.0000 -1.2700 0
vt -0.0728 -0.9866 0
vt -1.2171 -1.2700 0
vt -0.6938 -2.5400 0
vt -0.5152 -2.5400 0
vt 1.2171 0.0000 0
vt 1.2171 -1.2700 0
vt 1.1525 -0.9866 0
vt 0.6938 -1.2700 0
vt 0.5152 -2.5400 0
vt 0.5152 -1.2700 0
vt 0.0728 -0.9866 0
vt 0.0000 0.0000 0
vt 0.0728 -0.0814 0
vt 1.1525 -0.0814 0
vt 0.0000 -1.2700 0
vt 0.6938 -2.5400 0
vt 0.1150 -0.9052 0
vt 0.1150 0.0000 0
vt 0.3810 0.0000 0
vt 0.3810 -0.9052 0
vt 0.1150 0.0000 0
vt 0.1150 1.0797 0
vt 0.3810 1.0797 0
vt 0.3810 0.0000 0
vt -0.1150 0.0000 0
vt -0.1150 -0.9052 0
vt -0.3810 -0.9052 0
vt -0.3810 0.0000 0
vt -0.1150 1.0797 0
vt -0.1150 0.0000 0
vt -0.3810 0.0000 0
vt -0.3810 1.0797 0
f 1/1/1 3/3/3 4/4/4
f 3/3/3 1/1/1 2/2/2
f 43/43/43 34/34/34 44/44/44
f 34/34/34 41/41/41 40/40/40
f 38/38/38 41/41/41 39/39/39
f 34/34/34 43/43/43 35/35/35
f 36/36/36 33/33/33 42/42/42
f 33/33/33 35/35/35 42/42/42
f 41/41/41 34/34/34 33/33/33
f 36/36/36 39/39/39 37/37/37
f 35/35/35 33/33/33 34/34/34
f 33/33/33 36/36/36 37/37/37
f 39/39/39 36/36/36 38/38/38
f 41/41/41 38/38/38 40/40/40
f 9/9/9 11/11/11 12/12/12
f 11/11/11 9/9/9 10/10/10
f 45/45/45 53/53/53 52/52/52
f 51/51/51 50/50/50 55/55/55
f 47/47/47 45/45/45 46/46/46
f 48/48/48 47/47/47 46/46/46
f 48/48/48 49/49/49 50/50/50
f 47/47/47 48/48/48 50/50/50
f 50/50/50 51/51/51 47/47/47
f 51/51/51 52/52/52 53/53/53
f 49/49/49 48/48/48 56/56/56
f 45/45/45 47/47/47 54/54/54
f 52/52/52 51/51/51 55/55/55
f 53/53/53 45/45/45 54/54/54
f 5/5/5 7/7/7 8/8/8
f 7/7/7 5/5/5 6/6/6
f 21/21/21 23/23/23 24/24/24
f 23/23/23 21/21/21 22/22/22
f 15/15/15 13/13/13 14/14/14
f 13/13/13 15/15/15 16/16/16
f 17/17/17 19/19/19 20/20/20
f 19/19/19 17/17/17 18/18/18
f 27/27/27 25/25/25 26/26/26
f 25/25/25 27/27/27 28/28/28
f 31/31/31 29/29/29 30/30/30
f 29/29/29 31/31/31 32/32/32
f 57/57/57 59/59/59 60/60/60
f 59/59/59 57/57/57 58/58/58
f 63/63/63 61/61/61 62/62/62
f 61/61/61 63/63/63 64/64/64
f 65/65/65 67/67/67 68/68/68
f 67/67/67 65/65/65 66/66/66
f 69/69/69 71/71/71 72/72/72
f 71/71/71 69/69/69 70/70/70
