# Wavefront .OBJ file for tesselated shape: obstacle_1-1 path: C:\Users\Melen\Desktop\SOLIDWORKS\obstacle_1.SLDPRT

g body_1
v 0.299749 1.920276 0.687635
v 0.299749 1.989054 0.694008
v 0.557917 1.989054 0.694008
v 0.299749 1.853839 0.668732
v 0.557917 1.920276 0.687635
v 0.299749 1.792007 0.637943
v 0.557917 1.853839 0.668732
v 0.299749 1.736885 0.596317
v 0.557917 1.792007 0.637943
v 0.299749 1.690351 0.545271
v 0.557917 1.736885 0.596317
v 0.299749 1.653988 0.486544
v 0.557917 1.690351 0.545271
v 0.299749 1.629036 0.422135
v 0.557917 1.653988 0.486544
v 0.299749 1.616344 0.354237
v 0.557917 1.629036 0.422135
v 0.299749 1.616344 0.285164
v 0.557917 1.616344 0.354237
v 0.299749 1.629036 0.217267
v 0.557917 1.616344 0.285164
v 0.299749 1.653988 0.152858
v 0.557917 1.629036 0.217267
v 0.299749 1.690351 0.094130
v 0.557917 1.653988 0.152858
v 0.299749 1.736885 0.043084
v 0.557917 1.690351 0.094130
v 0.299749 1.792007 0.001458
v 0.557917 1.736885 0.043084
v 0.299749 1.853839 -0.029331
v 0.557917 1.792007 0.001458
v 0.299749 1.920276 -0.048233
v 0.557917 1.853839 -0.029331
v 0.299749 1.989054 -0.054607
v 0.557917 1.920276 -0.048233
v 0.299749 2.057833 -0.048233
v 0.557917 1.989054 -0.054607
v 0.299749 2.124270 -0.029331
v 0.557917 2.057833 -0.048233
v 0.299749 2.186102 0.001458
v 0.557917 2.124270 -0.029331
v 0.299749 2.241224 0.043084
v 0.557917 2.186102 0.001458
v 0.299749 2.287758 0.094130
v 0.557917 2.241224 0.043084
v 0.299749 2.324121 0.152858
v 0.557917 2.287758 0.094130
v 0.299749 2.349073 0.217267
v 0.557917 2.324121 0.152858
v 0.299749 2.361765 0.285164
v 0.557917 2.349073 0.217267
v 0.299749 2.361765 0.354237
v 0.557917 2.361765 0.285164
v 0.299749 2.349073 0.422135
v 0.557917 2.361765 0.354237
v 0.299749 2.324121 0.486544
v 0.557917 2.349073 0.422135
v 0.299749 2.287758 0.545271
v 0.557917 2.324121 0.486544
v 0.299749 2.241224 0.596317
v 0.557917 2.287758 0.545271
v 0.299749 2.186102 0.637943
v 0.557917 2.241224 0.596317
v 0.299749 2.124270 0.668732
v 0.557917 2.186102 0.637943
v 0.299749 2.057833 0.687635
v 0.557917 2.124270 0.668732
v 0.557917 2.057833 0.687635
v 0.299749 2.540000 -0.081908
v 0.299749 1.524000 -0.081908
v 0.299749 1.989054 -0.054607
v 0.299749 2.057833 -0.048233
v 0.299749 1.920276 -0.048233
v 0.299749 1.690351 0.094130
v 0.299749 1.736885 0.043084
v 0.299749 2.241224 0.043084
v 0.299749 2.287758 0.094130
v 0.299749 2.124270 -0.029331
v 0.299749 2.186102 0.001458
v 0.299749 1.853839 -0.029331
v 0.299749 1.792007 0.001458
v 0.299749 1.524000 0.222892
v 0.299749 1.629036 0.217267
v 0.299749 1.653988 0.152858
v 0.299749 1.524000 0.721310
v 0.299749 1.792007 0.637943
v 0.299749 1.736885 0.596317
v 0.299749 2.540000 0.721310
v 0.299749 2.361765 0.354237
v 0.299749 2.349073 0.422135
v 0.299749 2.361765 0.285164
v 0.299749 1.853839 0.668732
v 0.299749 2.324121 0.152858
v 0.299749 2.349073 0.217267
v 0.299749 1.616344 0.285164
v 0.299749 1.629036 0.422135
v 0.299749 1.616344 0.354237
v 0.299749 1.653988 0.486544
v 0.299749 1.524000 0.416510
v 0.299749 1.920276 0.687635
v 0.299749 2.186102 0.637943
v 0.299749 2.124270 0.668732
v 0.299749 2.287758 0.545271
v 0.299749 2.241224 0.596317
v 0.299749 1.690351 0.545271
v 0.299749 1.989054 0.694008
v 0.299749 2.057833 0.687635
v 0.299749 2.324121 0.486544
v 0.299749 0.000000 0.222892
v 0.299749 0.000000 0.416510
v 0.557917 2.540000 0.721310
v 0.557917 1.524000 0.721310
v 0.557917 1.989054 0.694008
v 0.557917 2.540000 -0.081908
v 0.557917 2.361765 0.285164
v 0.557917 2.349073 0.217267
v 0.557917 2.361765 0.354237
v 0.557917 1.920276 0.687635
v 0.557917 1.690351 0.545271
v 0.557917 1.736885 0.596317
v 0.557917 2.057833 -0.048233
v 0.557917 1.989054 -0.054607
v 0.557917 2.241224 0.043084
v 0.557917 2.186102 0.001458
v 0.557917 2.324121 0.152858
v 0.557917 2.287758 0.094130
v 0.557917 2.324121 0.486544
v 0.557917 2.349073 0.422135
v 0.557917 2.186102 0.637943
v 0.557917 2.241224 0.596317
v 0.557917 2.057833 0.687635
v 0.557917 2.124270 0.668732
v 0.557917 1.853839 0.668732
v 0.557917 1.792007 0.637943
v 0.557917 1.524000 -0.081908
v 0.557917 1.792007 0.001458
v 0.557917 1.736885 0.043084
v 0.557917 2.124270 -0.029331
v 0.557917 1.524000 0.416510
v 0.557917 1.629036 0.422135
v 0.557917 1.653988 0.486544
v 0.557917 1.853839 -0.029331
v 0.557917 1.616344 0.354237
v 0.557917 0.000000 0.416510
v 0.557917 0.000000 0.222892
v 0.557917 1.616344 0.285164
v 0.557917 2.287758 0.545271
v 0.557917 1.524000 0.222892
v 0.557917 1.653988 0.152858
v 0.557917 1.920276 -0.048233
v 0.557917 1.690351 0.094130
v 0.557917 1.629036 0.217267
v 0.557917 2.540000 0.721310
v 0.299749 2.540000 0.721310
v 0.299749 1.524000 0.721310
v 0.557917 1.524000 0.721310
v 0.299749 2.540000 -0.081908
v 0.557917 2.540000 -0.081908
v 0.557917 1.524000 -0.081908
v 0.299749 1.524000 -0.081908
v 0.557917 2.540000 -0.081908
v 0.299749 2.540000 -0.081908
v 0.299749 2.540000 0.721310
v 0.557917 2.540000 0.721310
v 0.557917 0.000000 0.222892
v 0.557917 0.000000 0.416510
v 0.299749 0.000000 0.416510
v 0.299749 0.000000 0.222892
v 0.557917 1.524000 0.416510
v 0.557917 1.524000 0.721310
v 0.299749 1.524000 0.721310
v 0.299749 1.524000 0.416510
v 0.557917 0.000000 0.416510
v 0.557917 1.524000 0.416510
v 0.299749 1.524000 0.416510
v 0.299749 0.000000 0.416510
v 0.557917 1.524000 -0.081908
v 0.557917 1.524000 0.222892
v 0.299749 1.524000 0.222892
v 0.299749 1.524000 -0.081908
v 0.557917 1.524000 0.222892
v 0.557917 0.000000 0.222892
v 0.299749 0.000000 0.222892
v 0.299749 1.524000 0.222892
vn 0.000 0.184 -0.983
vn 0.000 0.000 -1.000
vn 0.000 0.000 -1.000
vn 0.000 0.361 -0.932
vn 0.000 0.184 -0.983
vn 0.000 0.526 -0.850
vn 0.000 0.361 -0.932
vn 0.000 0.674 -0.739
vn 0.000 0.526 -0.850
vn 0.000 0.798 -0.603
vn 0.000 0.674 -0.739
vn 0.000 0.895 -0.446
vn 0.000 0.798 -0.603
vn 0.000 0.962 -0.274
vn 0.000 0.895 -0.446
vn 0.000 0.996 -0.092
vn 0.000 0.962 -0.274
vn 0.000 0.996 0.092
vn 0.000 0.996 -0.092
vn 0.000 0.962 0.274
vn 0.000 0.996 0.092
vn 0.000 0.895 0.446
vn 0.000 0.962 0.274
vn 0.000 0.798 0.603
vn 0.000 0.895 0.446
vn 0.000 0.674 0.739
vn 0.000 0.798 0.603
vn 0.000 0.526 0.850
vn 0.000 0.674 0.739
vn 0.000 0.361 0.932
vn 0.000 0.526 0.850
vn 0.000 0.184 0.983
vn 0.000 0.361 0.932
vn 0.000 0.000 1.000
vn 0.000 0.184 0.983
vn 0.000 -0.184 0.983
vn 0.000 0.000 1.000
vn 0.000 -0.361 0.932
vn 0.000 -0.184 0.983
vn 0.000 -0.526 0.850
vn 0.000 -0.361 0.932
vn 0.000 -0.674 0.739
vn 0.000 -0.526 0.850
vn 0.000 -0.798 0.603
vn 0.000 -0.674 0.739
vn 0.000 -0.895 0.446
vn 0.000 -0.798 0.603
vn 0.000 -0.962 0.274
vn 0.000 -0.895 0.446
vn 0.000 -0.996 0.092
vn 0.000 -0.962 0.274
vn 0.000 -0.996 -0.092
vn 0.000 -0.996 0.092
vn 0.000 -0.962 -0.274
vn 0.000 -0.996 -0.092
vn 0.000 -0.895 -0.446
vn 0.000 -0.962 -0.274
vn 0.000 -0.798 -0.603
vn 0.000 -0.895 -0.446
vn 0.000 -0.674 -0.739
vn 0.000 -0.798 -0.603
vn 0.000 -0.526 -0.850
vn 0.000 -0.674 -0.739
vn 0.000 -0.361 -0.932
vn 0.000 -0.526 -0.850
vn 0.000 -0.184 -0.983
vn 0.000 -0.361 -0.932
vn 0.000 -0.184 -0.983
vn -1.000 0.000 0.000
vn -1.000 0.000 0.000
vn -1.000 0.000 0.000
vn -1.000 0.000 0.000
vn -1.000 0.000 0.000
vn -1.000 0.000 0.000
vn -1.000 0.000 0.000
vn -1.000 0.000 0.000
vn -1.000 0.000 0.000
vn -1.000 0.000 0.000
vn -1.000 0.000 0.000
vn -1.000 0.000 0.000
vn -1.000 0.000 0.000
vn -1.000 0.000 0.000
vn -1.000 0.000 0.000
vn -1.000 0.000 0.000
vn -1.000 0.000 0.000
vn -1.000 0.000 0.000
vn -1.000 0.000 0.000
vn -1.000 0.000 0.000
vn -1.000 0.000 0.000
vn -1.000 0.000 0.000
vn -1.000 0.000 0.000
vn -1.000 0.000 0.000
vn -1.000 0.000 0.000
vn -1.000 0.000 0.000
vn -1.000 0.000 0.000
vn -1.000 0.000 0.000
vn -1.000 0.000 0.000
vn -1.000 0.000 0.000
vn -1.000 0.000 0.000
vn -1.000 0.000 0.000
vn -1.000 0.000 0.000
vn -1.000 0.000 0.000
vn -1.000 0.000 0.000
vn -1.000 0.000 0.000
vn -1.000 0.000 0.000
vn -1.000 0.000 0.000
vn -1.000 0.000 0.000
vn -1.000 0.000 0.000
vn -1.000 0.000 0.000
vn -1.000 0.000 0.000
vn 1.000 0.000 0.000
vn 1.000 0.000 0.000
vn 1.000 0.000 0.000
vn 1.000 0.000 0.000
vn 1.000 0.000 0.000
vn 1.000 0.000 0.000
vn 1.000 0.000 0.000
vn 1.000 0.000 0.000
vn 1.000 0.000 0.000
vn 1.000 0.000 0.000
vn 1.000 0.000 0.000
vn 1.000 0.000 0.000
vn 1.000 0.000 0.000
vn 1.000 0.000 0.000
vn 1.000 0.000 0.000
vn 1.000 0.000 0.000
vn 1.000 0.000 0.000
vn 1.000 0.000 0.000
vn 1.000 0.000 0.000
vn 1.000 0.000 0.000
vn 1.000 0.000 0.000
vn 1.000 0.000 0.000
vn 1.000 0.000 0.000
vn 1.000 0.000 0.000
vn 1.000 0.000 0.000
vn 1.000 0.000 0.000
vn 1.000 0.000 0.000
vn 1.000 0.000 0.000
vn 1.000 0.000 0.000
vn 1.000 0.000 0.000
vn 1.000 0.000 0.000
vn 1.000 0.000 0.000
vn 1.000 0.000 0.000
vn 1.000 0.000 0.000
vn 1.000 0.000 0.000
vn 1.000 0.000 0.000
vn 1.000 0.000 0.000
vn 1.000 0.000 0.000
vn 1.000 0.000 0.000
vn 1.000 0.000 0.000
vn 1.000 0.000 0.000
vn 1.000 0.000 0.000
vn 0.000 0.000 1.000
vn 0.000 0.000 1.000
vn 0.000 0.000 1.000
vn 0.000 0.000 1.000
vn 0.000 0.000 -1.000
vn 0.000 0.000 -1.000
vn 0.000 0.000 -1.000
vn 0.000 0.000 -1.000
vn 0.000 1.000 0.000
vn 0.000 1.000 0.000
vn 0.000 1.000 0.000
vn 0.000 1.000 0.000
vn 0.000 -1.000 0.000
vn 0.000 -1.000 0.000
vn 0.000 -1.000 0.000
vn 0.000 -1.000 0.000
vn 0.000 -1.000 0.000
vn 0.000 -1.000 0.000
vn 0.000 -1.000 0.000
vn 0.000 -1.000 0.000
vn 0.000 0.000 1.000
vn 0.000 0.000 1.000
vn 0.000 0.000 1.000
vn 0.000 0.000 1.000
vn 0.000 -1.000 0.000
vn 0.000 -1.000 0.000
vn 0.000 -1.000 0.000
vn 0.000 -1.000 0.000
vn 0.000 0.000 -1.000
vn 0.000 0.000 -1.000
vn 0.000 0.000 -1.000
vn 0.000 0.000 -1.000
vt -0.1848 0.3810 0
vt 0.0000 0.3810 0
vt 0.0000 0.1228 0
vt 5.9136 0.3810 0
vt -0.1848 0.1228 0
vt 5.7288 0.3810 0
vt 5.9136 0.1228 0
vt 5.5440 0.3810 0
vt 5.7288 0.1228 0
vt 5.3592 0.3810 0
vt 5.5440 0.1228 0
vt 5.1744 0.3810 0
vt 5.3592 0.1228 0
vt 4.9896 0.3810 0
vt 5.1744 0.1228 0
vt 4.8048 0.3810 0
vt 4.9896 0.1228 0
vt 4.6200 0.3810 0
vt 4.8048 0.1228 0
vt 4.4352 0.3810 0
vt 4.6200 0.1228 0
vt 4.2504 0.3810 0
vt 4.4352 0.1228 0
vt 4.0656 0.3810 0
vt 4.2504 0.1228 0
vt 3.8808 0.3810 0
vt 4.0656 0.1228 0
vt 3.6960 0.3810 0
vt 3.8808 0.1228 0
vt 3.5112 0.3810 0
vt 3.6960 0.1228 0
vt 3.3264 0.3810 0
vt 3.5112 0.1228 0
vt 3.1416 0.3810 0
vt 3.3264 0.1228 0
vt 2.9568 0.3810 0
vt 3.1416 0.1228 0
vt 2.7720 0.3810 0
vt 2.9568 0.1228 0
vt 2.5872 0.3810 0
vt 2.7720 0.1228 0
vt 2.4024 0.3810 0
vt 2.5872 0.1228 0
vt 2.2176 0.3810 0
vt 2.4024 0.1228 0
vt 2.0328 0.3810 0
vt 2.2176 0.1228 0
vt 1.8480 0.3810 0
vt 2.0328 0.1228 0
vt 1.6632 0.3810 0
vt 1.8480 0.1228 0
vt 1.4784 0.3810 0
vt 1.6632 0.1228 0
vt 1.2936 0.3810 0
vt 1.4784 0.1228 0
vt 1.1088 0.3810 0
vt 1.2936 0.1228 0
vt 0.9240 0.3810 0
vt 1.1088 0.1228 0
vt 0.7392 0.3810 0
vt 0.9240 0.1228 0
vt 0.5544 0.3810 0
vt 0.7392 0.1228 0
vt 0.3696 0.3810 0
vt 0.5544 0.1228 0
vt 0.1848 0.3810 0
vt 0.3696 0.1228 0
vt 0.1848 0.1228 0
vt 0.0000 0.0000 0
vt 0.0000 -1.0160 0
vt -0.0273 -0.5509 0
vt -0.0337 -0.4822 0
vt -0.0337 -0.6197 0
vt -0.1760 -0.8496 0
vt -0.1250 -0.8031 0
vt -0.1250 -0.2988 0
vt -0.1760 -0.2522 0
vt -0.0526 -0.4157 0
vt -0.0834 -0.3539 0
vt -0.0526 -0.6862 0
vt -0.0834 -0.7480 0
vt -0.3048 -1.0160 0
vt -0.2992 -0.9110 0
vt -0.2348 -0.8860 0
vt -0.8032 -1.0160 0
vt -0.7199 -0.7480 0
vt -0.6782 -0.8031 0
vt -0.8032 0.0000 0
vt -0.4361 -0.1782 0
vt -0.5040 -0.1909 0
vt -0.3671 -0.1782 0
vt -0.7506 -0.6862 0
vt -0.2348 -0.2159 0
vt -0.2992 -0.1909 0
vt -0.3671 -0.9237 0
vt -0.5040 -0.9110 0
vt -0.4361 -0.9237 0
vt -0.5685 -0.8860 0
vt -0.4984 -1.0160 0
vt -0.7695 -0.6197 0
vt -0.7199 -0.3539 0
vt -0.7506 -0.4157 0
vt -0.6272 -0.2522 0
vt -0.6782 -0.2988 0
vt -0.6272 -0.8496 0
vt -0.7759 -0.5509 0
vt -0.7695 -0.4822 0
vt -0.5685 -0.2159 0
vt -0.3048 -2.5400 0
vt -0.4984 -2.5400 0
vt 0.8032 0.0000 0
vt 0.8032 -1.0160 0
vt 0.7759 -0.5509 0
vt 0.0000 0.0000 0
vt 0.3671 -0.1782 0
vt 0.2992 -0.1909 0
vt 0.4361 -0.1782 0
vt 0.7695 -0.6197 0
vt 0.6272 -0.8496 0
vt 0.6782 -0.8031 0
vt 0.0337 -0.4822 0
vt 0.0273 -0.5509 0
vt 0.1250 -0.2988 0
vt 0.0834 -0.3539 0
vt 0.2348 -0.2159 0
vt 0.1760 -0.2522 0
vt 0.5685 -0.2159 0
vt 0.5040 -0.1909 0
vt 0.7199 -0.3539 0
vt 0.6782 -0.2988 0
vt 0.7695 -0.4822 0
vt 0.7506 -0.4157 0
vt 0.7506 -0.6862 0
vt 0.7199 -0.7480 0
vt 0.0000 -1.0160 0
vt 0.0834 -0.7480 0
vt 0.1250 -0.8031 0
vt 0.0526 -0.4157 0
vt 0.4984 -1.0160 0
vt 0.5040 -0.9110 0
vt 0.5685 -0.8860 0
vt 0.0526 -0.6862 0
vt 0.4361 -0.9237 0
vt 0.4984 -2.5400 0
vt 0.3048 -2.5400 0
vt 0.3671 -0.9237 0
vt 0.6272 -0.2522 0
vt 0.3048 -1.0160 0
vt 0.2348 -0.8860 0
vt 0.0337 -0.6197 0
vt 0.1760 -0.8496 0
vt 0.2992 -0.9110 0
vt -0.2582 0.0000 0
vt 0.0000 0.0000 0
vt 0.0000 -1.0160 0
vt -0.2582 -1.0160 0
vt 0.0000 0.0000 0
vt 0.2582 0.0000 0
vt 0.2582 -1.0160 0
vt 0.0000 -1.0160 0
vt -0.0819 0.5579 0
vt -0.0819 0.2997 0
vt 0.7213 0.2997 0
vt 0.7213 0.5579 0
vt 0.2229 0.5579 0
vt 0.4165 0.5579 0
vt 0.4165 0.2997 0
vt 0.2229 0.2997 0
vt -0.3048 -0.1228 0
vt 0.0000 -0.1228 0
vt 0.0000 -0.3810 0
vt -0.3048 -0.3810 0
vt -1.5240 -0.1228 0
vt 0.0000 -0.1228 0
vt 0.0000 -0.3810 0
vt -1.5240 -0.3810 0
vt 0.0000 -0.1228 0
vt 0.3048 -0.1228 0
vt 0.3048 -0.3810 0
vt 0.0000 -0.3810 0
vt 0.0000 -0.1228 0
vt 1.5240 -0.1228 0
vt 1.5240 -0.3810 0
vt 0.0000 -0.3810 0
f 98/98/98 99/99/99 85/85/85
f 88/88/88 106/106/106 85/85/85
f 88/88/88 108/108/108 103/103/103
f 99/99/99 109/109/109 110/110/110
f 69/69/69 77/77/77 93/93/93
f 88/88/88 102/102/102 107/107/107
f 109/109/109 99/99/99 82/82/82
f 85/85/85 87/87/87 105/105/105
f 82/82/82 97/97/97 95/95/95
f 88/88/88 90/90/90 108/108/108
f 88/88/88 104/104/104 101/101/101
f 106/106/106 88/88/88 107/107/107
f 100/100/100 85/85/85 106/106/106
f 98/98/98 85/85/85 105/105/105
f 96/96/96 82/82/82 98/98/98
f 70/70/70 84/84/84 74/74/74
f 69/69/69 94/94/94 91/91/91
f 104/104/104 88/88/88 103/103/103
f 102/102/102 88/88/88 101/101/101
f 92/92/92 85/85/85 100/100/100
f 99/99/99 98/98/98 82/82/82
f 97/97/97 82/82/82 96/96/96
f 83/83/83 82/82/82 95/95/95
f 69/69/69 72/72/72 78/78/78
f 94/94/94 69/69/69 93/93/93
f 69/69/69 89/89/89 88/88/88
f 86/86/86 85/85/85 92/92/92
f 82/82/82 84/84/84 70/70/70
f 70/70/70 81/81/81 80/80/80
f 69/69/69 79/79/79 76/76/76
f 89/89/89 69/69/69 91/91/91
f 90/90/90 88/88/88 89/89/89
f 87/87/87 85/85/85 86/86/86
f 84/84/84 82/82/82 83/83/83
f 70/70/70 75/75/75 81/81/81
f 73/73/73 70/70/70 80/80/80
f 79/79/79 69/69/69 78/78/78
f 77/77/77 69/69/69 76/76/76
f 75/75/75 70/70/70 74/74/74
f 71/71/71 70/70/70 73/73/73
f 69/69/69 71/71/71 72/72/72
f 71/71/71 69/69/69 70/70/70
f 155/155/155 153/153/153 154/154/154
f 153/153/153 155/155/155 156/156/156
f 114/114/114 117/117/117 115/115/115
f 128/128/128 111/111/111 127/127/127
f 130/130/130 111/111/111 129/129/129
f 132/132/132 111/111/111 131/131/131
f 118/118/118 112/112/112 133/133/133
f 112/112/112 120/120/120 134/134/134
f 137/137/137 135/135/135 136/136/136
f 121/121/121 114/114/114 138/138/138
f 114/114/114 126/126/126 123/123/123
f 111/111/111 128/128/128 117/117/117
f 111/111/111 132/132/132 129/129/129
f 112/112/112 134/134/134 133/133/133
f 141/141/141 139/139/139 140/140/140
f 136/136/136 135/135/135 142/142/142
f 139/139/139 143/143/143 140/140/140
f 146/146/146 144/144/144 145/145/145
f 114/114/114 124/124/124 138/138/138
f 127/127/127 111/111/111 147/147/147
f 111/111/111 113/113/113 131/131/131
f 139/139/139 141/141/141 112/112/112
f 149/149/149 148/148/148 135/135/135
f 142/142/142 135/135/135 150/150/150
f 144/144/144 146/146/146 143/143/143
f 148/148/148 146/146/146 145/145/145
f 114/114/114 116/116/116 125/125/125
f 112/112/112 141/141/141 119/119/119
f 149/149/149 135/135/135 151/151/151
f 150/150/150 135/135/135 122/122/122
f 146/146/146 148/148/148 152/152/152
f 111/111/111 130/130/130 147/147/147
f 135/135/135 137/137/137 151/151/151
f 114/114/114 122/122/122 135/135/135
f 143/143/143 139/139/139 144/144/144
f 148/148/148 149/149/149 152/152/152
f 124/124/124 114/114/114 123/123/123
f 122/122/122 114/114/114 121/121/121
f 113/113/113 111/111/111 112/112/112
f 116/116/116 114/114/114 115/115/115
f 117/117/117 114/114/114 111/111/111
f 113/113/113 112/112/112 118/118/118
f 120/120/120 112/112/112 119/119/119
f 126/126/126 114/114/114 125/125/125
f 157/157/157 159/159/159 160/160/160
f 159/159/159 157/157/157 158/158/158
f 161/161/161 163/163/163 164/164/164
f 163/163/163 161/161/161 162/162/162
f 167/167/167 165/165/165 166/166/166
f 165/165/165 167/167/167 168/168/168
f 36/36/36 37/37/37 39/39/39
f 34/34/34 35/35/35 37/37/37
f 32/32/32 33/33/33 35/35/35
f 30/30/30 31/31/31 33/33/33
f 28/28/28 29/29/29 31/31/31
f 26/26/26 27/27/27 29/29/29
f 24/24/24 25/25/25 27/27/27
f 22/22/22 23/23/23 25/25/25
f 20/20/20 21/21/21 23/23/23
f 18/18/18 19/19/19 21/21/21
f 16/16/16 17/17/17 19/19/19
f 14/14/14 15/15/15 17/17/17
f 12/12/12 13/13/13 15/15/15
f 10/10/10 11/11/11 13/13/13
f 8/8/8 9/9/9 11/11/11
f 6/6/6 7/7/7 9/9/9
f 4/4/4 5/5/5 7/7/7
f 1/1/1 3/3/3 5/5/5
f 42/42/42 43/43/43 45/45/45
f 44/44/44 45/45/45 47/47/47
f 46/46/46 47/47/47 49/49/49
f 48/48/48 49/49/49 51/51/51
f 50/50/50 51/51/51 53/53/53
f 52/52/52 53/53/53 55/55/55
f 54/54/54 55/55/55 57/57/57
f 56/56/56 57/57/57 59/59/59
f 58/58/58 59/59/59 61/61/61
f 60/60/60 61/61/61 63/63/63
f 62/62/62 63/63/63 65/65/65
f 64/64/64 65/65/65 67/67/67
f 66/66/66 67/67/67 68/68/68
f 2/2/2 68/68/68 3/3/3
f 38/38/38 39/39/39 41/41/41
f 67/67/67 66/66/66 64/64/64
f 65/65/65 64/64/64 62/62/62
f 63/63/63 62/62/62 60/60/60
f 61/61/61 60/60/60 58/58/58
f 59/59/59 58/58/58 56/56/56
f 57/57/57 56/56/56 54/54/54
f 55/55/55 54/54/54 52/52/52
f 53/53/53 52/52/52 50/50/50
f 51/51/51 50/50/50 48/48/48
f 49/49/49 48/48/48 46/46/46
f 47/47/47 46/46/46 44/44/44
f 45/45/45 44/44/44 42/42/42
f 43/43/43 42/42/42 40/40/40
f 41/41/41 40/40/40 38/38/38
f 39/39/39 38/38/38 36/36/36
f 37/37/37 36/36/36 34/34/34
f 35/35/35 34/34/34 32/32/32
f 33/33/33 32/32/32 30/30/30
f 31/31/31 30/30/30 28/28/28
f 29/29/29 28/28/28 26/26/26
f 27/27/27 26/26/26 24/24/24
f 25/25/25 24/24/24 22/22/22
f 23/23/23 22/22/22 20/20/20
f 21/21/21 20/20/20 18/18/18
f 19/19/19 18/18/18 16/16/16
f 17/17/17 16/16/16 14/14/14
f 15/15/15 14/14/14 12/12/12
f 5/5/5 4/4/4 1/1/1
f 7/7/7 6/6/6 4/4/4
f 9/9/9 8/8/8 6/6/6
f 11/11/11 10/10/10 8/8/8
f 13/13/13 12/12/12 10/10/10
f 68/68/68 2/2/2 66/66/66
f 40/40/40 41/41/41 43/43/43
f 3/3/3 1/1/1 2/2/2
f 171/171/171 169/169/169 170/170/170
f 169/169/169 171/171/171 172/172/172
f 175/175/175 173/173/173 174/174/174
f 173/173/173 175/175/175 176/176/176
f 177/177/177 179/179/179 180/180/180
f 179/179/179 177/177/177 178/178/178
f 183/183/183 181/181/181 182/182/182
f 181/181/181 183/183/183 184/184/184
