# Wavefront .OBJ file for tesselated shape: pillar_2-1 path: C:\Users\Melen\Desktop\SOLIDWORKS\pillar_2.SLDPRT

g body_1
v 0.000000 2.540000 0.000000
v 0.065229 2.540000 0.327930
v 0.127952 2.540000 0.308904
v 0.185758 2.540000 0.278006
v 0.236425 2.540000 0.236425
v 0.278006 2.540000 0.185758
v 0.308904 2.540000 0.127952
v 0.327930 2.540000 0.065229
v 0.334355 2.540000 0.000000
v 0.327930 2.540000 -0.065229
v 0.308904 2.540000 -0.127952
v 0.278006 2.540000 -0.185758
v 0.236425 2.540000 -0.236425
v 0.185758 2.540000 -0.278006
v 0.127952 2.540000 -0.308904
v 0.065229 2.540000 -0.327930
v 0.000000 2.540000 -0.334355
v -0.065229 2.540000 -0.327930
v -0.127952 2.540000 -0.308904
v -0.185758 2.540000 -0.278006
v -0.236425 2.540000 -0.236425
v -0.278006 2.540000 -0.185758
v -0.308904 2.540000 -0.127952
v -0.327930 2.540000 -0.065229
v -0.334355 2.540000 0.000000
v -0.327930 2.540000 0.065229
v -0.308904 2.540000 0.127952
v -0.278006 2.540000 0.185758
v -0.236425 2.540000 0.236425
v -0.185758 2.540000 0.278006
v -0.127952 2.540000 0.308904
v -0.065229 2.540000 0.327930
v 0.000000 2.540000 0.334355
v 0.000000 0.000000 -0.334355
v 0.000000 2.540000 -0.334355
v 0.065229 2.540000 -0.327930
v 0.065229 0.000000 -0.327930
v 0.127952 2.540000 -0.308904
v 0.127952 0.000000 -0.308904
v 0.185758 2.540000 -0.278006
v 0.185758 0.000000 -0.278006
v 0.236425 2.540000 -0.236425
v 0.236425 0.000000 -0.236425
v 0.278006 2.540000 -0.185758
v 0.278006 0.000000 -0.185758
v 0.308904 2.540000 -0.127952
v 0.308904 0.000000 -0.127952
v 0.327930 2.540000 -0.065229
v 0.327930 0.000000 -0.065229
v 0.334355 2.540000 0.000000
v 0.334355 0.000000 0.000000
v 0.327930 2.540000 0.065229
v 0.327930 0.000000 0.065229
v 0.308904 2.540000 0.127952
v 0.308904 0.000000 0.127952
v 0.278006 2.540000 0.185758
v 0.278006 0.000000 0.185758
v 0.236425 2.540000 0.236425
v 0.236425 0.000000 0.236425
v 0.185758 2.540000 0.278006
v 0.185758 0.000000 0.278006
v 0.127952 2.540000 0.308904
v 0.127952 0.000000 0.308904
v 0.065229 2.540000 0.327930
v 0.065229 0.000000 0.327930
v 0.000000 2.540000 0.334355
v 0.000000 0.000000 0.334355
v -0.065229 2.540000 0.327930
v -0.065229 0.000000 0.327930
v -0.127952 2.540000 0.308904
v -0.127952 0.000000 0.308904
v -0.185758 2.540000 0.278006
v -0.185758 0.000000 0.278006
v -0.236425 2.540000 0.236425
v -0.236425 0.000000 0.236425
v -0.278006 2.540000 0.185758
v -0.278006 0.000000 0.185758
v -0.308904 2.540000 0.127952
v -0.308904 0.000000 0.127952
v -0.327930 2.540000 0.065229
v -0.327930 0.000000 0.065229
v -0.334355 2.540000 0.000000
v -0.334355 0.000000 0.000000
v -0.327930 2.540000 -0.065229
v -0.327930 0.000000 -0.065229
v -0.308904 2.540000 -0.127952
v -0.308904 0.000000 -0.127952
v -0.278006 2.540000 -0.185758
v -0.278006 0.000000 -0.185758
v -0.236425 2.540000 -0.236425
v -0.236425 0.000000 -0.236425
v -0.185758 2.540000 -0.278006
v -0.185758 0.000000 -0.278006
v -0.127952 2.540000 -0.308904
v -0.127952 0.000000 -0.308904
v -0.065229 2.540000 -0.327930
v -0.065229 0.000000 -0.327930
v 0.000000 0.000000 0.000000
v -0.065229 0.000000 0.327930
v -0.127952 0.000000 0.308904
v -0.185758 0.000000 0.278006
v -0.236425 0.000000 0.236425
v -0.278006 0.000000 0.185758
v -0.308904 0.000000 0.127952
v -0.327930 0.000000 0.065229
v -0.334355 0.000000 0.000000
v -0.327930 0.000000 -0.065229
v -0.308904 0.000000 -0.127952
v -0.278006 0.000000 -0.185758
v -0.236425 0.000000 -0.236425
v -0.185758 0.000000 -0.278006
v -0.127952 0.000000 -0.308904
v -0.065229 0.000000 -0.327930
v 0.000000 0.000000 -0.334355
v 0.065229 0.000000 -0.327930
v 0.127952 0.000000 -0.308904
v 0.185758 0.000000 -0.278006
v 0.236425 0.000000 -0.236425
v 0.278006 0.000000 -0.185758
v 0.308904 0.000000 -0.127952
v 0.327930 0.000000 -0.065229
v 0.334355 0.000000 0.000000
v 0.327930 0.000000 0.065229
v 0.308904 0.000000 0.127952
v 0.278006 0.000000 0.185758
v 0.236425 0.000000 0.236425
v 0.185758 0.000000 0.278006
v 0.127952 0.000000 0.308904
v 0.065229 0.000000 0.327930
v 0.000000 0.000000 0.334355
vn 0.000 1.000 0.000
vn 0.000 1.000 0.000
vn 0.000 1.000 0.000
vn 0.000 1.000 0.000
vn 0.000 1.000 0.000
vn 0.000 1.000 0.000
vn 0.000 1.000 0.000
vn 0.000 1.000 0.000
vn 0.000 1.000 0.000
vn 0.000 1.000 0.000
vn 0.000 1.000 0.000
vn 0.000 1.000 0.000
vn 0.000 1.000 0.000
vn 0.000 1.000 0.000
vn 0.000 1.000 0.000
vn 0.000 1.000 0.000
vn 0.000 1.000 0.000
vn 0.000 1.000 0.000
vn 0.000 1.000 0.000
vn 0.000 1.000 0.000
vn 0.000 1.000 0.000
vn 0.000 1.000 0.000
vn 0.000 1.000 0.000
vn 0.000 1.000 0.000
vn 0.000 1.000 0.000
vn 0.000 1.000 0.000
vn 0.000 1.000 0.000
vn 0.000 1.000 0.000
vn 0.000 1.000 0.000
vn 0.000 1.000 0.000
vn 0.000 1.000 0.000
vn 0.000 1.000 0.000
vn 0.000 1.000 0.000
vn 0.000 0.000 -1.000
vn 0.000 0.000 -1.000
vn 0.195 0.000 -0.981
vn 0.195 0.000 -0.981
vn 0.383 0.000 -0.924
vn 0.383 0.000 -0.924
vn 0.556 0.000 -0.831
vn 0.556 0.000 -0.831
vn 0.707 0.000 -0.707
vn 0.707 0.000 -0.707
vn 0.831 0.000 -0.556
vn 0.831 0.000 -0.556
vn 0.924 0.000 -0.383
vn 0.924 0.000 -0.383
vn 0.981 0.000 -0.195
vn 0.981 0.000 -0.195
vn 1.000 0.000 0.000
vn 1.000 0.000 0.000
vn 0.981 0.000 0.195
vn 0.981 0.000 0.195
vn 0.924 0.000 0.383
vn 0.924 0.000 0.383
vn 0.831 0.000 0.556
vn 0.831 0.000 0.556
vn 0.707 0.000 0.707
vn 0.707 0.000 0.707
vn 0.556 0.000 0.831
vn 0.556 0.000 0.831
vn 0.383 0.000 0.924
vn 0.383 0.000 0.924
vn 0.195 0.000 0.981
vn 0.195 0.000 0.981
vn 0.000 0.000 1.000
vn 0.000 0.000 1.000
vn -0.195 0.000 0.981
vn -0.195 0.000 0.981
vn -0.383 0.000 0.924
vn -0.383 0.000 0.924
vn -0.556 0.000 0.831
vn -0.556 0.000 0.831
vn -0.707 0.000 0.707
vn -0.707 0.000 0.707
vn -0.831 0.000 0.556
vn -0.831 0.000 0.556
vn -0.924 0.000 0.383
vn -0.924 0.000 0.383
vn -0.981 0.000 0.195
vn -0.981 0.000 0.195
vn -1.000 0.000 0.000
vn -1.000 0.000 0.000
vn -0.981 0.000 -0.195
vn -0.981 0.000 -0.195
vn -0.924 0.000 -0.383
vn -0.924 0.000 -0.383
vn -0.831 0.000 -0.556
vn -0.831 0.000 -0.556
vn -0.707 0.000 -0.707
vn -0.707 0.000 -0.707
vn -0.556 0.000 -0.831
vn -0.556 0.000 -0.831
vn -0.383 0.000 -0.924
vn -0.383 0.000 -0.924
vn -0.195 0.000 -0.981
vn -0.195 0.000 -0.981
vn 0.000 -1.000 0.000
vn 0.000 -1.000 0.000
vn 0.000 -1.000 0.000
vn 0.000 -1.000 0.000
vn 0.000 -1.000 0.000
vn 0.000 -1.000 0.000
vn 0.000 -1.000 0.000
vn 0.000 -1.000 0.000
vn 0.000 -1.000 0.000
vn 0.000 -1.000 0.000
vn 0.000 -1.000 0.000
vn 0.000 -1.000 0.000
vn 0.000 -1.000 0.000
vn 0.000 -1.000 0.000
vn 0.000 -1.000 0.000
vn 0.000 -1.000 0.000
vn 0.000 -1.000 0.000
vn 0.000 -1.000 0.000
vn 0.000 -1.000 0.000
vn 0.000 -1.000 0.000
vn 0.000 -1.000 0.000
vn 0.000 -1.000 0.000
vn 0.000 -1.000 0.000
vn 0.000 -1.000 0.000
vn 0.000 -1.000 0.000
vn 0.000 -1.000 0.000
vn 0.000 -1.000 0.000
vn 0.000 -1.000 0.000
vn 0.000 -1.000 0.000
vn 0.000 -1.000 0.000
vn 0.000 -1.000 0.000
vn 0.000 -1.000 0.000
vn 0.000 -1.000 0.000
vt 0.0000 0.0000 0
vt 0.3279 0.0652 0
vt 0.3089 0.1280 0
vt 0.2780 0.1858 0
vt 0.2364 0.2364 0
vt 0.1858 0.2780 0
vt 0.1280 0.3089 0
vt 0.0652 0.3279 0
vt 0.0000 0.3344 0
vt -0.0652 0.3279 0
vt -0.1280 0.3089 0
vt -0.1858 0.2780 0
vt -0.2364 0.2364 0
vt -0.2780 0.1858 0
vt -0.3089 0.1280 0
vt -0.3279 0.0652 0
vt -0.3344 0.0000 0
vt -0.3279 -0.0652 0
vt -0.3089 -0.1280 0
vt -0.2780 -0.1858 0
vt -0.2364 -0.2364 0
vt -0.1858 -0.2780 0
vt -0.1280 -0.3089 0
vt -0.0652 -0.3279 0
vt 0.0000 -0.3344 0
vt 0.0652 -0.3279 0
vt 0.1280 -0.3089 0
vt 0.1858 -0.2780 0
vt 0.2364 -0.2364 0
vt 0.2780 -0.1858 0
vt 0.3089 -0.1280 0
vt 0.3279 -0.0652 0
vt 0.3344 0.0000 0
vt 6.2832 2.5400 0
vt 6.2832 0.0000 0
vt 6.4795 0.0000 0
vt 6.4795 2.5400 0
vt 0.3927 0.0000 0
vt 0.3927 2.5400 0
vt 0.5890 0.0000 0
vt 0.5890 2.5400 0
vt 0.7854 0.0000 0
vt 0.7854 2.5400 0
vt 0.9817 0.0000 0
vt 0.9817 2.5400 0
vt 1.1781 0.0000 0
vt 1.1781 2.5400 0
vt 1.3744 0.0000 0
vt 1.3744 2.5400 0
vt 1.5708 0.0000 0
vt 1.5708 2.5400 0
vt 1.7671 0.0000 0
vt 1.7671 2.5400 0
vt 1.9635 0.0000 0
vt 1.9635 2.5400 0
vt 2.1598 0.0000 0
vt 2.1598 2.5400 0
vt 2.3562 0.0000 0
vt 2.3562 2.5400 0
vt 2.5525 0.0000 0
vt 2.5525 2.5400 0
vt 2.7489 0.0000 0
vt 2.7489 2.5400 0
vt 2.9452 0.0000 0
vt 2.9452 2.5400 0
vt 3.1416 0.0000 0
vt 3.1416 2.5400 0
vt 3.3379 0.0000 0
vt 3.3379 2.5400 0
vt 3.5343 0.0000 0
vt 3.5343 2.5400 0
vt 3.7306 0.0000 0
vt 3.7306 2.5400 0
vt 3.9270 0.0000 0
vt 3.9270 2.5400 0
vt 4.1233 0.0000 0
vt 4.1233 2.5400 0
vt 4.3197 0.0000 0
vt 4.3197 2.5400 0
vt 4.5160 0.0000 0
vt 4.5160 2.5400 0
vt 4.7124 0.0000 0
vt 4.7124 2.5400 0
vt 4.9087 0.0000 0
vt 4.9087 2.5400 0
vt 5.1051 0.0000 0
vt 5.1051 2.5400 0
vt 5.3014 0.0000 0
vt 5.3014 2.5400 0
vt 5.4978 0.0000 0
vt 5.4978 2.5400 0
vt 5.6941 0.0000 0
vt 5.6941 2.5400 0
vt 5.8905 0.0000 0
vt 5.8905 2.5400 0
vt 6.0868 0.0000 0
vt 6.0868 2.5400 0
vt 0.0000 0.0000 0
vt 0.3279 -0.0652 0
vt 0.3089 -0.1280 0
vt 0.2780 -0.1858 0
vt 0.2364 -0.2364 0
vt 0.1858 -0.2780 0
vt 0.1280 -0.3089 0
vt 0.0652 -0.3279 0
vt 0.0000 -0.3344 0
vt -0.0652 -0.3279 0
vt -0.1280 -0.3089 0
vt -0.1858 -0.2780 0
vt -0.2364 -0.2364 0
vt -0.2780 -0.1858 0
vt -0.3089 -0.1280 0
vt -0.3279 -0.0652 0
vt -0.3344 0.0000 0
vt -0.3279 0.0652 0
vt -0.3089 0.1280 0
vt -0.2780 0.1858 0
vt -0.2364 0.2364 0
vt -0.1858 0.2780 0
vt -0.1280 0.3089 0
vt -0.0652 0.3279 0
vt 0.0000 0.3344 0
vt 0.0652 0.3279 0
vt 0.1280 0.3089 0
vt 0.1858 0.2780 0
vt 0.2364 0.2364 0
vt 0.2780 0.1858 0
vt 0.3089 0.1280 0
vt 0.3279 0.0652 0
vt 0.3344 0.0000 0
f 35/35/35 97/97/97 96/96/96
f 95/95/95 96/96/96 97/97/97
f 93/93/93 94/94/94 95/95/95
f 91/91/91 92/92/92 93/93/93
f 89/89/89 90/90/90 91/91/91
f 87/87/87 88/88/88 89/89/89
f 85/85/85 86/86/86 87/87/87
f 83/83/83 84/84/84 85/85/85
f 81/81/81 82/82/82 83/83/83
f 79/79/79 80/80/80 81/81/81
f 77/77/77 78/78/78 79/79/79
f 75/75/75 76/76/76 77/77/77
f 73/73/73 74/74/74 75/75/75
f 71/71/71 72/72/72 73/73/73
f 69/69/69 70/70/70 71/71/71
f 67/67/67 68/68/68 69/69/69
f 65/65/65 66/66/66 67/67/67
f 63/63/63 64/64/64 65/65/65
f 61/61/61 62/62/62 63/63/63
f 59/59/59 60/60/60 61/61/61
f 57/57/57 58/58/58 59/59/59
f 55/55/55 56/56/56 57/57/57
f 53/53/53 54/54/54 55/55/55
f 51/51/51 52/52/52 53/53/53
f 49/49/49 50/50/50 51/51/51
f 47/47/47 48/48/48 49/49/49
f 45/45/45 46/46/46 47/47/47
f 43/43/43 44/44/44 45/45/45
f 41/41/41 42/42/42 43/43/43
f 39/39/39 40/40/40 41/41/41
f 37/37/37 38/38/38 39/39/39
f 34/34/34 36/36/36 37/37/37
f 96/96/96 95/95/95 94/94/94
f 94/94/94 93/93/93 92/92/92
f 92/92/92 91/91/91 90/90/90
f 90/90/90 89/89/89 88/88/88
f 88/88/88 87/87/87 86/86/86
f 86/86/86 85/85/85 84/84/84
f 84/84/84 83/83/83 82/82/82
f 82/82/82 81/81/81 80/80/80
f 80/80/80 79/79/79 78/78/78
f 78/78/78 77/77/77 76/76/76
f 76/76/76 75/75/75 74/74/74
f 74/74/74 73/73/73 72/72/72
f 72/72/72 71/71/71 70/70/70
f 70/70/70 69/69/69 68/68/68
f 68/68/68 67/67/67 66/66/66
f 66/66/66 65/65/65 64/64/64
f 64/64/64 63/63/63 62/62/62
f 62/62/62 61/61/61 60/60/60
f 60/60/60 59/59/59 58/58/58
f 58/58/58 57/57/57 56/56/56
f 56/56/56 55/55/55 54/54/54
f 54/54/54 53/53/53 52/52/52
f 52/52/52 51/51/51 50/50/50
f 50/50/50 49/49/49 48/48/48
f 48/48/48 47/47/47 46/46/46
f 46/46/46 45/45/45 44/44/44
f 44/44/44 43/43/43 42/42/42
f 42/42/42 41/41/41 40/40/40
f 40/40/40 39/39/39 38/38/38
f 38/38/38 37/37/37 36/36/36
f 36/36/36 34/34/34 35/35/35
f 97/97/97 35/35/35 34/34/34
f 1/1/1 32/32/32 33/33/33
f 1/1/1 31/31/31 32/32/32
f 1/1/1 30/30/30 31/31/31
f 1/1/1 29/29/29 30/30/30
f 1/1/1 28/28/28 29/29/29
f 1/1/1 27/27/27 28/28/28
f 1/1/1 26/26/26 27/27/27
f 1/1/1 25/25/25 26/26/26
f 1/1/1 24/24/24 25/25/25
f 1/1/1 23/23/23 24/24/24
f 1/1/1 22/22/22 23/23/23
f 1/1/1 21/21/21 22/22/22
f 1/1/1 20/20/20 21/21/21
f 1/1/1 19/19/19 20/20/20
f 1/1/1 18/18/18 19/19/19
f 1/1/1 17/17/17 18/18/18
f 1/1/1 16/16/16 17/17/17
f 1/1/1 15/15/15 16/16/16
f 1/1/1 14/14/14 15/15/15
f 1/1/1 13/13/13 14/14/14
f 1/1/1 12/12/12 13/13/13
f 1/1/1 11/11/11 12/12/12
f 1/1/1 10/10/10 11/11/11
f 1/1/1 9/9/9 10/10/10
f 1/1/1 8/8/8 9/9/9
f 1/1/1 7/7/7 8/8/8
f 1/1/1 6/6/6 7/7/7
f 1/1/1 5/5/5 6/6/6
f 1/1/1 4/4/4 5/5/5
f 1/1/1 3/3/3 4/4/4
f 1/1/1 33/33/33 2/2/2
f 3/3/3 1/1/1 2/2/2
f 98/98/98 130/130/130 99/99/99
f 98/98/98 100/100/100 101/101/101
f 98/98/98 101/101/101 102/102/102
f 98/98/98 102/102/102 103/103/103
f 98/98/98 103/103/103 104/104/104
f 98/98/98 104/104/104 105/105/105
f 98/98/98 105/105/105 106/106/106
f 98/98/98 106/106/106 107/107/107
f 98/98/98 107/107/107 108/108/108
f 98/98/98 108/108/108 109/109/109
f 98/98/98 109/109/109 110/110/110
f 98/98/98 110/110/110 111/111/111
f 98/98/98 111/111/111 112/112/112
f 98/98/98 112/112/112 113/113/113
f 98/98/98 113/113/113 114/114/114
f 98/98/98 114/114/114 115/115/115
f 98/98/98 115/115/115 116/116/116
f 98/98/98 116/116/116 117/117/117
f 98/98/98 117/117/117 118/118/118
f 98/98/98 118/118/118 119/119/119
f 98/98/98 119/119/119 120/120/120
f 98/98/98 120/120/120 121/121/121
f 98/98/98 121/121/121 122/122/122
f 98/98/98 122/122/122 123/123/123
f 98/98/98 123/123/123 124/124/124
f 98/98/98 124/124/124 125/125/125
f 98/98/98 125/125/125 126/126/126
f 98/98/98 126/126/126 127/127/127
f 98/98/98 127/127/127 128/128/128
f 98/98/98 128/128/128 129/129/129
f 98/98/98 129/129/129 130/130/130
f 100/100/100 98/98/98 99/99/99
g body_2
v 0.000000 2.540000 0.000000
v 0.065229 2.540000 0.327930
v 0.127952 2.540000 0.308904
v 0.185758 2.540000 0.278006
v 0.236425 2.540000 0.236425
v 0.278006 2.540000 0.185758
v 0.308904 2.540000 0.127952
v 0.327930 2.540000 0.065229
v 0.334355 2.540000 0.000000
v 0.327930 2.540000 -0.065229
v 0.308904 2.540000 -0.127952
v 0.278006 2.540000 -0.185758
v 0.236425 2.540000 -0.236425
v 0.185758 2.540000 -0.278006
v 0.127952 2.540000 -0.308904
v 0.065229 2.540000 -0.327930
v 0.000000 2.540000 -0.334355
v -0.065229 2.540000 -0.327930
v -0.127952 2.540000 -0.308904
v -0.185758 2.540000 -0.278006
v -0.236425 2.540000 -0.236425
v -0.278006 2.540000 -0.185758
v -0.308904 2.540000 -0.127952
v -0.327930 2.540000 -0.065229
v -0.334355 2.540000 0.000000
v -0.327930 2.540000 0.065229
v -0.308904 2.540000 0.127952
v -0.278006 2.540000 0.185758
v -0.236425 2.540000 0.236425
v -0.185758 2.540000 0.278006
v -0.127952 2.540000 0.308904
v -0.065229 2.540000 0.327930
v 0.000000 2.540000 0.334355
v 0.000000 0.000000 -0.334355
v 0.000000 2.540000 -0.334355
v 0.065229 2.540000 -0.327930
v 0.065229 0.000000 -0.327930
v 0.127952 2.540000 -0.308904
v 0.127952 0.000000 -0.308904
v 0.185758 2.540000 -0.278006
v 0.185758 0.000000 -0.278006
v 0.236425 2.540000 -0.236425
v 0.236425 0.000000 -0.236425
v 0.278006 2.540000 -0.185758
v 0.278006 0.000000 -0.185758
v 0.308904 2.540000 -0.127952
v 0.308904 0.000000 -0.127952
v 0.327930 2.540000 -0.065229
v 0.327930 0.000000 -0.065229
v 0.334355 2.540000 0.000000
v 0.334355 0.000000 0.000000
v 0.327930 2.540000 0.065229
v 0.327930 0.000000 0.065229
v 0.308904 2.540000 0.127952
v 0.308904 0.000000 0.127952
v 0.278006 2.540000 0.185758
v 0.278006 0.000000 0.185758
v 0.236425 2.540000 0.236425
v 0.236425 0.000000 0.236425
v 0.185758 2.540000 0.278006
v 0.185758 0.000000 0.278006
v 0.127952 2.540000 0.308904
v 0.127952 0.000000 0.308904
v 0.065229 2.540000 0.327930
v 0.065229 0.000000 0.327930
v 0.000000 2.540000 0.334355
v 0.000000 0.000000 0.334355
v -0.065229 2.540000 0.327930
v -0.065229 0.000000 0.327930
v -0.127952 2.540000 0.308904
v -0.127952 0.000000 0.308904
v -0.185758 2.540000 0.278006
v -0.185758 0.000000 0.278006
v -0.236425 2.540000 0.236425
v -0.236425 0.000000 0.236425
v -0.278006 2.540000 0.185758
v -0.278006 0.000000 0.185758
v -0.308904 2.540000 0.127952
v -0.308904 0.000000 0.127952
v -0.327930 2.540000 0.065229
v -0.327930 0.000000 0.065229
v -0.334355 2.540000 0.000000
v -0.334355 0.000000 0.000000
v -0.327930 2.540000 -0.065229
v -0.327930 0.000000 -0.065229
v -0.308904 2.540000 -0.127952
v -0.308904 0.000000 -0.127952
v -0.278006 2.540000 -0.185758
v -0.278006 0.000000 -0.185758
v -0.236425 2.540000 -0.236425
v -0.236425 0.000000 -0.236425
v -0.185758 2.540000 -0.278006
v -0.185758 0.000000 -0.278006
v -0.127952 2.540000 -0.308904
v -0.127952 0.000000 -0.308904
v -0.065229 2.540000 -0.327930
v -0.065229 0.000000 -0.327930
v 0.000000 0.000000 0.000000
v -0.065229 0.000000 0.327930
v -0.127952 0.000000 0.308904
v -0.185758 0.000000 0.278006
v -0.236425 0.000000 0.236425
v -0.278006 0.000000 0.185758
v -0.308904 0.000000 0.127952
v -0.327930 0.000000 0.065229
v -0.334355 0.000000 0.000000
v -0.327930 0.000000 -0.065229
v -0.308904 0.000000 -0.127952
v -0.278006 0.000000 -0.185758
v -0.236425 0.000000 -0.236425
v -0.185758 0.000000 -0.278006
v -0.127952 0.000000 -0.308904
v -0.065229 0.000000 -0.327930
v 0.000000 0.000000 -0.334355
v 0.065229 0.000000 -0.327930
v 0.127952 0.000000 -0.308904
v 0.185758 0.000000 -0.278006
v 0.236425 0.000000 -0.236425
v 0.278006 0.000000 -0.185758
v 0.308904 0.000000 -0.127952
v 0.327930 0.000000 -0.065229
v 0.334355 0.000000 0.000000
v 0.327930 0.000000 0.065229
v 0.308904 0.000000 0.127952
v 0.278006 0.000000 0.185758
v 0.236425 0.000000 0.236425
v 0.185758 0.000000 0.278006
v 0.127952 0.000000 0.308904
v 0.065229 0.000000 0.327930
v 0.000000 0.000000 0.334355
vn 0.000 1.000 0.000
vn 0.000 1.000 0.000
vn 0.000 1.000 0.000
vn 0.000 1.000 0.000
vn 0.000 1.000 0.000
vn 0.000 1.000 0.000
vn 0.000 1.000 0.000
vn 0.000 1.000 0.000
vn 0.000 1.000 0.000
vn 0.000 1.000 0.000
vn 0.000 1.000 0.000
vn 0.000 1.000 0.000
vn 0.000 1.000 0.000
vn 0.000 1.000 0.000
vn 0.000 1.000 0.000
vn 0.000 1.000 0.000
vn 0.000 1.000 0.000
vn 0.000 1.000 0.000
vn 0.000 1.000 0.000
vn 0.000 1.000 0.000
vn 0.000 1.000 0.000
vn 0.000 1.000 0.000
vn 0.000 1.000 0.000
vn 0.000 1.000 0.000
vn 0.000 1.000 0.000
vn 0.000 1.000 0.000
vn 0.000 1.000 0.000
vn 0.000 1.000 0.000
vn 0.000 1.000 0.000
vn 0.000 1.000 0.000
vn 0.000 1.000 0.000
vn 0.000 1.000 0.000
vn 0.000 1.000 0.000
vn 0.000 0.000 -1.000
vn 0.000 0.000 -1.000
vn 0.195 0.000 -0.981
vn 0.195 0.000 -0.981
vn 0.383 0.000 -0.924
vn 0.383 0.000 -0.924
vn 0.556 0.000 -0.831
vn 0.556 0.000 -0.831
vn 0.707 0.000 -0.707
vn 0.707 0.000 -0.707
vn 0.831 0.000 -0.556
vn 0.831 0.000 -0.556
vn 0.924 0.000 -0.383
vn 0.924 0.000 -0.383
vn 0.981 0.000 -0.195
vn 0.981 0.000 -0.195
vn 1.000 0.000 0.000
vn 1.000 0.000 0.000
vn 0.981 0.000 0.195
vn 0.981 0.000 0.195
vn 0.924 0.000 0.383
vn 0.924 0.000 0.383
vn 0.831 0.000 0.556
vn 0.831 0.000 0.556
vn 0.707 0.000 0.707
vn 0.707 0.000 0.707
vn 0.556 0.000 0.831
vn 0.556 0.000 0.831
vn 0.383 0.000 0.924
vn 0.383 0.000 0.924
vn 0.195 0.000 0.981
vn 0.195 0.000 0.981
vn 0.000 0.000 1.000
vn 0.000 0.000 1.000
vn -0.195 0.000 0.981
vn -0.195 0.000 0.981
vn -0.383 0.000 0.924
vn -0.383 0.000 0.924
vn -0.556 0.000 0.831
vn -0.556 0.000 0.831
vn -0.707 0.000 0.707
vn -0.707 0.000 0.707
vn -0.831 0.000 0.556
vn -0.831 0.000 0.556
vn -0.924 0.000 0.383
vn -0.924 0.000 0.383
vn -0.981 0.000 0.195
vn -0.981 0.000 0.195
vn -1.000 0.000 0.000
vn -1.000 0.000 0.000
vn -0.981 0.000 -0.195
vn -0.981 0.000 -0.195
vn -0.924 0.000 -0.383
vn -0.924 0.000 -0.383
vn -0.831 0.000 -0.556
vn -0.831 0.000 -0.556
vn -0.707 0.000 -0.707
vn -0.707 0.000 -0.707
vn -0.556 0.000 -0.831
vn -0.556 0.000 -0.831
vn -0.383 0.000 -0.924
vn -0.383 0.000 -0.924
vn -0.195 0.000 -0.981
vn -0.195 0.000 -0.981
vn 0.000 -1.000 0.000
vn 0.000 -1.000 0.000
vn 0.000 -1.000 0.000
vn 0.000 -1.000 0.000
vn 0.000 -1.000 0.000
vn 0.000 -1.000 0.000
vn 0.000 -1.000 0.000
vn 0.000 -1.000 0.000
vn 0.000 -1.000 0.000
vn 0.000 -1.000 0.000
vn 0.000 -1.000 0.000
vn 0.000 -1.000 0.000
vn 0.000 -1.000 0.000
vn 0.000 -1.000 0.000
vn 0.000 -1.000 0.000
vn 0.000 -1.000 0.000
vn 0.000 -1.000 0.000
vn 0.000 -1.000 0.000
vn 0.000 -1.000 0.000
vn 0.000 -1.000 0.000
vn 0.000 -1.000 0.000
vn 0.000 -1.000 0.000
vn 0.000 -1.000 0.000
vn 0.000 -1.000 0.000
vn 0.000 -1.000 0.000
vn 0.000 -1.000 0.000
vn 0.000 -1.000 0.000
vn 0.000 -1.000 0.000
vn 0.000 -1.000 0.000
vn 0.000 -1.000 0.000
vn 0.000 -1.000 0.000
vn 0.000 -1.000 0.000
vn 0.000 -1.000 0.000
vt 0.0000 0.0000 0
vt 0.3279 0.0652 0
vt 0.3089 0.1280 0
vt 0.2780 0.1858 0
vt 0.2364 0.2364 0
vt 0.1858 0.2780 0
vt 0.1280 0.3089 0
vt 0.0652 0.3279 0
vt 0.0000 0.3344 0
vt -0.0652 0.3279 0
vt -0.1280 0.3089 0
vt -0.1858 0.2780 0
vt -0.2364 0.2364 0
vt -0.2780 0.1858 0
vt -0.3089 0.1280 0
vt -0.3279 0.0652 0
vt -0.3344 0.0000 0
vt -0.3279 -0.0652 0
vt -0.3089 -0.1280 0
vt -0.2780 -0.1858 0
vt -0.2364 -0.2364 0
vt -0.1858 -0.2780 0
vt -0.1280 -0.3089 0
vt -0.0652 -0.3279 0
vt 0.0000 -0.3344 0
vt 0.0652 -0.3279 0
vt 0.1280 -0.3089 0
vt 0.1858 -0.2780 0
vt 0.2364 -0.2364 0
vt 0.2780 -0.1858 0
vt 0.3089 -0.1280 0
vt 0.3279 -0.0652 0
vt 0.3344 0.0000 0
vt 6.2832 2.5400 0
vt 6.2832 0.0000 0
vt 6.4795 0.0000 0
vt 6.4795 2.5400 0
vt 0.3927 0.0000 0
vt 0.3927 2.5400 0
vt 0.5890 0.0000 0
vt 0.5890 2.5400 0
vt 0.7854 0.0000 0
vt 0.7854 2.5400 0
vt 0.9817 0.0000 0
vt 0.9817 2.5400 0
vt 1.1781 0.0000 0
vt 1.1781 2.5400 0
vt 1.3744 0.0000 0
vt 1.3744 2.5400 0
vt 1.5708 0.0000 0
vt 1.5708 2.5400 0
vt 1.7671 0.0000 0
vt 1.7671 2.5400 0
vt 1.9635 0.0000 0
vt 1.9635 2.5400 0
vt 2.1598 0.0000 0
vt 2.1598 2.5400 0
vt 2.3562 0.0000 0
vt 2.3562 2.5400 0
vt 2.5525 0.0000 0
vt 2.5525 2.5400 0
vt 2.7489 0.0000 0
vt 2.7489 2.5400 0
vt 2.9452 0.0000 0
vt 2.9452 2.5400 0
vt 3.1416 0.0000 0
vt 3.1416 2.5400 0
vt 3.3379 0.0000 0
vt 3.3379 2.5400 0
vt 3.5343 0.0000 0
vt 3.5343 2.5400 0
vt 3.7306 0.0000 0
vt 3.7306 2.5400 0
vt 3.9270 0.0000 0
vt 3.9270 2.5400 0
vt 4.1233 0.0000 0
vt 4.1233 2.5400 0
vt 4.3197 0.0000 0
vt 4.3197 2.5400 0
vt 4.5160 0.0000 0
vt 4.5160 2.5400 0
vt 4.7124 0.0000 0
vt 4.7124 2.5400 0
vt 4.9087 0.0000 0
vt 4.9087 2.5400 0
vt 5.1051 0.0000 0
vt 5.1051 2.5400 0
vt 5.3014 0.0000 0
vt 5.3014 2.5400 0
vt 5.4978 0.0000 0
vt 5.4978 2.5400 0
vt 5.6941 0.0000 0
vt 5.6941 2.5400 0
vt 5.8905 0.0000 0
vt 5.8905 2.5400 0
vt 6.0868 0.0000 0
vt 6.0868 2.5400 0
vt 0.0000 0.0000 0
vt 0.3279 -0.0652 0
vt 0.3089 -0.1280 0
vt 0.2780 -0.1858 0
vt 0.2364 -0.2364 0
vt 0.1858 -0.2780 0
vt 0.1280 -0.3089 0
vt 0.0652 -0.3279 0
vt 0.0000 -0.3344 0
vt -0.0652 -0.3279 0
vt -0.1280 -0.3089 0
vt -0.1858 -0.2780 0
vt -0.2364 -0.2364 0
vt -0.2780 -0.1858 0
vt -0.3089 -0.1280 0
vt -0.3279 -0.0652 0
vt -0.3344 0.0000 0
vt -0.3279 0.0652 0
vt -0.3089 0.1280 0
vt -0.2780 0.1858 0
vt -0.2364 0.2364 0
vt -0.1858 0.2780 0
vt -0.1280 0.3089 0
vt -0.0652 0.3279 0
vt 0.0000 0.3344 0
vt 0.0652 0.3279 0
vt 0.1280 0.3089 0
vt 0.1858 0.2780 0
vt 0.2364 0.2364 0
vt 0.2780 0.1858 0
vt 0.3089 0.1280 0
vt 0.3279 0.0652 0
vt 0.3344 0.0000 0
f 165/165/165 227/227/227 226/226/226
f 225/225/225 226/226/226 227/227/227
f 223/223/223 224/224/224 225/225/225
f 221/221/221 222/222/222 223/223/223
f 219/219/219 220/220/220 221/221/221
f 217/217/217 218/218/218 219/219/219
f 215/215/215 216/216/216 217/217/217
f 213/213/213 214/214/214 215/215/215
f 211/211/211 212/212/212 213/213/213
f 209/209/209 210/210/210 211/211/211
f 207/207/207 208/208/208 209/209/209
f 205/205/205 206/206/206 207/207/207
f 203/203/203 204/204/204 205/205/205
f 201/201/201 202/202/202 203/203/203
f 199/199/199 200/200/200 201/201/201
f 197/197/197 198/198/198 199/199/199
f 195/195/195 196/196/196 197/197/197
f 193/193/193 194/194/194 195/195/195
f 191/191/191 192/192/192 193/193/193
f 189/189/189 190/190/190 191/191/191
f 187/187/187 188/188/188 189/189/189
f 185/185/185 186/186/186 187/187/187
f 183/183/183 184/184/184 185/185/185
f 181/181/181 182/182/182 183/183/183
f 179/179/179 180/180/180 181/181/181
f 177/177/177 178/178/178 179/179/179
f 175/175/175 176/176/176 177/177/177
f 173/173/173 174/174/174 175/175/175
f 171/171/171 172/172/172 173/173/173
f 169/169/169 170/170/170 171/171/171
f 167/167/167 168/168/168 169/169/169
f 164/164/164 166/166/166 167/167/167
f 226/226/226 225/225/225 224/224/224
f 224/224/224 223/223/223 222/222/222
f 222/222/222 221/221/221 220/220/220
f 220/220/220 219/219/219 218/218/218
f 218/218/218 217/217/217 216/216/216
f 216/216/216 215/215/215 214/214/214
f 214/214/214 213/213/213 212/212/212
f 212/212/212 211/211/211 210/210/210
f 210/210/210 209/209/209 208/208/208
f 208/208/208 207/207/207 206/206/206
f 206/206/206 205/205/205 204/204/204
f 204/204/204 203/203/203 202/202/202
f 202/202/202 201/201/201 200/200/200
f 200/200/200 199/199/199 198/198/198
f 198/198/198 197/197/197 196/196/196
f 196/196/196 195/195/195 194/194/194
f 194/194/194 193/193/193 192/192/192
f 192/192/192 191/191/191 190/190/190
f 190/190/190 189/189/189 188/188/188
f 188/188/188 187/187/187 186/186/186
f 186/186/186 185/185/185 184/184/184
f 184/184/184 183/183/183 182/182/182
f 182/182/182 181/181/181 180/180/180
f 180/180/180 179/179/179 178/178/178
f 178/178/178 177/177/177 176/176/176
f 176/176/176 175/175/175 174/174/174
f 174/174/174 173/173/173 172/172/172
f 172/172/172 171/171/171 170/170/170
f 170/170/170 169/169/169 168/168/168
f 168/168/168 167/167/167 166/166/166
f 166/166/166 164/164/164 165/165/165
f 227/227/227 165/165/165 164/164/164
f 133/133/133 131/131/131 132/132/132
f 131/131/131 133/133/133 134/134/134
f 131/131/131 134/134/134 135/135/135
f 131/131/131 135/135/135 136/136/136
f 131/131/131 136/136/136 137/137/137
f 131/131/131 137/137/137 138/138/138
f 131/131/131 138/138/138 139/139/139
f 131/131/131 139/139/139 140/140/140
f 131/131/131 140/140/140 141/141/141
f 131/131/131 141/141/141 142/142/142
f 131/131/131 142/142/142 143/143/143
f 131/131/131 143/143/143 144/144/144
f 131/131/131 144/144/144 145/145/145
f 131/131/131 145/145/145 146/146/146
f 131/131/131 146/146/146 147/147/147
f 131/131/131 147/147/147 148/148/148
f 131/131/131 148/148/148 149/149/149
f 131/131/131 149/149/149 150/150/150
f 131/131/131 150/150/150 151/151/151
f 131/131/131 151/151/151 152/152/152
f 131/131/131 152/152/152 153/153/153
f 131/131/131 153/153/153 154/154/154
f 131/131/131 154/154/154 155/155/155
f 131/131/131 155/155/155 156/156/156
f 131/131/131 156/156/156 157/157/157
f 131/131/131 157/157/157 158/158/158
f 131/131/131 158/158/158 159/159/159
f 131/131/131 159/159/159 160/160/160
f 131/131/131 160/160/160 161/161/161
f 131/131/131 161/161/161 162/162/162
f 131/131/131 162/162/162 163/163/163
f 131/131/131 163/163/163 132/132/132
f 228/228/228 259/259/259 260/260/260
f 228/228/228 258/258/258 259/259/259
f 228/228/228 257/257/257 258/258/258
f 228/228/228 256/256/256 257/257/257
f 228/228/228 255/255/255 256/256/256
f 228/228/228 254/254/254 255/255/255
f 228/228/228 253/253/253 254/254/254
f 228/228/228 252/252/252 253/253/253
f 228/228/228 251/251/251 252/252/252
f 228/228/228 250/250/250 251/251/251
f 228/228/228 249/249/249 250/250/250
f 228/228/228 248/248/248 249/249/249
f 228/228/228 247/247/247 248/248/248
f 228/228/228 246/246/246 247/247/247
f 228/228/228 245/245/245 246/246/246
f 228/228/228 244/244/244 245/245/245
f 228/228/228 243/243/243 244/244/244
f 228/228/228 242/242/242 243/243/243
f 228/228/228 241/241/241 242/242/242
f 228/228/228 240/240/240 241/241/241
f 228/228/228 239/239/239 240/240/240
f 228/228/228 238/238/238 239/239/239
f 228/228/228 237/237/237 238/238/238
f 228/228/228 236/236/236 237/237/237
f 228/228/228 235/235/235 236/236/236
f 228/228/228 234/234/234 235/235/235
f 228/228/228 233/233/233 234/234/234
f 228/228/228 232/232/232 233/233/233
f 228/228/228 231/231/231 232/232/232
f 228/228/228 230/230/230 231/231/231
f 230/230/230 228/228/228 229/229/229
f 228/228/228 260/260/260 229/229/229
